<?xml version="1.0" encoding="utf-8"?>
<!-- Generator: Adobe Illustrator 21.0.0, SVG Export Plug-In . SVG Version: 6.00 Build 0)  -->
<svg version="1.1" id="Слой_1" xmlns="http://www.w3.org/2000/svg" xmlns:xlink="http://www.w3.org/1999/xlink" x="0px" y="0px"
	 viewBox="0 0 20 20" style="enable-background:new 0 0 20 20;" xml:space="preserve">
<style type="text/css">
	.st0{fill:#FFFFFF;}
</style>
<title>light-bulb</title>
<path class="st0" d="M7,13.3C4.6,12.2,3,9.8,3,7c0-3.9,3.1-7,7-7s7,3.1,7,7c0,2.8-1.6,5.2-4,6.3l0,0V16H7V13.3L7,13.3z M7,17h6v1.5
	c0,0.8-0.7,1.5-1.5,1.5h-3C7.7,20,7,19.3,7,18.5l0,0V17z M9,11.9V14h2v-2.1c2.3-0.5,4-2.5,4-4.9c0-2.8-2.2-5-5-5S5,4.2,5,7
	C5,9.4,6.7,11.4,9,11.9C9,11.9,9,11.9,9,11.9z"/>
</svg>
