<?xml version="1.0" encoding="utf-8"?>
<!-- Generator: Adobe Illustrator 21.0.0, SVG Export Plug-In . SVG Version: 6.00 Build 0)  -->
<svg version="1.1" id="Слой_1" xmlns="http://www.w3.org/2000/svg" xmlns:xlink="http://www.w3.org/1999/xlink" x="0px" y="0px"
	 viewBox="0 0 20 20" style="enable-background:new 0 0 20 20;" xml:space="preserve">
<style type="text/css">
	.st0{fill:#FFFFFF;}
</style>
<title>phone</title>
<path class="st0" d="M20,18.4V19c0,0.6-0.4,1-1,1l0,0h-2C7.6,20,0,12.4,0,3l0,0V1c0-0.6,0.4-1,1-1l0,0h4c0.6,0,1,0.4,1,1l0,0v4
	c0,0.6-0.3,1.3-0.7,1.7L3.2,8.8c1.5,3.6,4.4,6.5,8,8l2.1-2.1c0.4-0.4,1.1-0.7,1.7-0.7h4c0.5,0,1,0.5,1,1l0,0l0,0L20,18.4L20,18.4z"
	/>
</svg>
