<?xml version="1.0" encoding="utf-8"?>
<!-- Generator: Adobe Illustrator 21.0.0, SVG Export Plug-In . SVG Version: 6.00 Build 0)  -->
<svg version="1.1" id="Слой_1" xmlns="http://www.w3.org/2000/svg" xmlns:xlink="http://www.w3.org/1999/xlink" x="0px" y="0px"
	 viewBox="0 0 20 20" style="enable-background:new 0 0 20 20;" xml:space="preserve">
<style type="text/css">
	.st0{fill:#FFFFFF;}
</style>
<title>portfolio</title>
<path class="st0" d="M9,12H1v6c0,1.1,0.9,2,2,2l0,0h14c1.1,0,2-0.9,2-2l0,0v-6h-8v2H9V12z M9,11H0V5c0-1.1,0.9-2,2-2h4V2
	c0-1.1,0.9-2,2-2l0,0h4c1.1,0,2,0.9,2,2l0,0v1h4c1.1,0,2,0.9,2,2l0,0v6h-9V9H9V11z M12,3V2H8v1H12z"/>
</svg>
