<svg><defs><font id="MyriadPro-BoldSemiExt" horiz-adv-x="300"><font-face font-family="Myriad Pro" font-weight="700" font-stretch="semi-expanded" panose-1="2 11 7 5 3 4 3 2 2 4" ascent="750" descent="-250" x-height="489" cap-height="674" bbox="-106 -250 1362 902" underline-thickness="50" underline-position="-50" stemh="119" stemv="159" unicode-range="U+0020-U+FB04"/><glyph glyph-name="f_f_j" unicode="ffj" horiz-adv-x="933" d="M823 700l-36-118c-25 12-62 21-104 21-83 0-114-41-114-97v-17h316V66c0-105-23-175-70-220-48-46-123-66-205-66L594-96c45 3 79 14 99 34 23 24 33 64 33 169v263H571V0H412v370H241V0H82v370H18v119h64v9c0 54 16 115 60 159 34 34 85 58 159 58 35 0 69-10 89-18l-34-114c-12 6-30 11-47 11-21 0-36-7-47-17-17-16-23-46-23-73v-15h173v19c0 158 126 220 268 220 48 0 109-11 143-28z"/><glyph glyph-name="f_j" unicode="fj" horiz-adv-x="618" d="M241 0H82v370H18v119h64v19c0 158 126 220 268 220 54 0 122-13 153-34l-32-118c-24 14-67 27-118 27-83 0-114-41-114-97v-17h316V66c0-105-23-175-70-220-48-46-123-66-205-66L264-96c45 3 79 14 99 34 23 24 33 64 33 169v263H241V0z"/><glyph glyph-name="ff" unicode="ff" horiz-adv-x="690" d="M571 0H412v370H241V0H82v370H18v119h64v5c0 61 16 121 58 164 34 34 85 56 158 56 27 0 52-7 68-13l-21-116c-13 5-27 8-42 8-48 0-64-39-64-89v-15h173v18c0 60 20 130 65 171 42 38 97 50 141 50 33 0 59-4 82-10l-4-122c-14 4-30 7-52 7-52 0-75-39-75-88v-26h103V370H571V0z"/><glyph glyph-name="fi" unicode="fi" horiz-adv-x="621" d="M241 0H82v370H18v119h64v19c0 158 126 220 268 220 54 0 122-13 153-34l-32-118c-24 14-67 27-118 27-83 0-114-41-114-97v-17h316V0H396v370H241V0z"/><glyph glyph-name="fl" unicode="fl" horiz-adv-x="621" d="M241 0H82v370H18v119h64v22c0 62 31 123 79 161 52 40 117 56 195 56 77 0 145-15 199-46V0H396v600c-12 7-32 11-63 11-65 0-94-45-94-105v-17h95V370h-93V0z"/><glyph glyph-name="ffi" unicode="ffi" horiz-adv-x="951" d="M823 700l-36-118c-25 12-62 21-104 21-83 0-114-41-114-97v-17h316V0H726v370H571V0H412v370H241V0H82v370H18v119h64v9c0 54 16 115 60 159 34 34 85 58 159 58 35 0 69-10 89-18l-34-114c-12 6-30 11-47 11-21 0-36-7-47-17-17-16-23-46-23-73v-15h173v19c0 158 126 220 268 220 48 0 109-11 143-28z"/><glyph glyph-name="ffl" unicode="ffl" horiz-adv-x="951" d="M393 700l-32-116c-14 6-31 9-49 9-22 0-38-6-49-17-17-17-24-43-24-72v-15h173v22c0 62 31 123 79 161 52 40 117 56 195 56 77 0 145-15 199-46V0H726v600c-12 7-32 11-63 11-65 0-94-45-94-105v-17h95V370h-93V0H412v370H241V0H82v370H18v119h64v6c0 63 20 118 58 156 42 41 104 63 175 63 30 0 61-8 78-14z"/><glyph glyph-name=".notdef" horiz-adv-x="500" d="M0 0v700h500V0H0zm250 395l170 255H80zm30-45L450 95v510zM80 50h340L250 305zM50 605V95l170 255z"/><glyph glyph-name="space" horiz-adv-x="216"/><glyph glyph-name="space" horiz-adv-x="216"/><glyph glyph-name="exclam" unicode="!" horiz-adv-x="278" d="M196 221H81L57 674h163zM139-12h-1c-56 0-93 40-93 94 0 55 38 94 94 94 57 0 93-39 94-94 0-54-37-94-94-94z"/><glyph glyph-name="quotedbl" unicode="&quot;" horiz-adv-x="420" d="M36 695h145l-24-275H60zm202 0h145l-24-275h-97z"/><glyph glyph-name="numbersign" unicode="#" horiz-adv-x="591" d="M241 271h97l16 112h-97zM198 0h-95l26 173H44v98h102l17 112H75v98h104l26 169h93l-26-169h98l26 169h95l-26-169h83v-98h-99l-16-112h85v-98H415L390 0h-95l26 173h-98z"/><glyph glyph-name="dollar" unicode="$" horiz-adv-x="598" d="M349-88H246V5C171 8 97 29 55 54l33 121c47-25 114-49 188-49 59 0 103 20 103 61 0 37-34 59-116 81-117 32-201 83-201 186 0 93 68 164 186 183v93h103v-87c75-3 123-19 160-35l-32-118c-27 12-81 38-163 38-70 0-90-29-90-55 0-32 42-54 133-82 130-39 184-93 184-190 0-89-66-169-194-189V-88z"/><glyph glyph-name="percent" unicode="%" horiz-adv-x="955" d="M228 662h1c117 0 191-74 191-192 0-136-94-210-198-210-101 0-192 66-192 197 0 119 79 205 198 205zm-2-88h-1c-51 0-73-53-73-114-1-63 26-112 74-112 47 0 72 43 72 114 0 62-21 112-72 112zM329-12h-86l380 672h86zm403 403h1c117 0 191-74 191-192 0-134-94-209-198-209-101 0-192 67-192 196 0 119 79 205 198 205zm-2-88h-1c-51 0-73-53-73-113-1-63 26-112 74-112 47 0 72 42 72 113 0 62-21 112-72 112z"/><glyph glyph-name="ampersand" unicode="&amp;" horiz-adv-x="727" d="M721 0H533c-16 15-32 31-48 50-47-36-111-62-199-62C108-12 35 89 35 179c0 92 55 157 136 197v4c-27 27-52 76-52 124 0 84 68 182 214 182 110 0 194-62 194-160 0-71-47-130-139-170l-1-4 117-121c29 42 55 104 67 167h144c-21-106-56-191-121-262zM307 103h1c42 0 78 16 99 34-44 41-101 100-162 164-31-20-58-49-58-93 0-57 45-105 120-105zm20 485h-1c-41 0-64-33-64-66s17-63 50-96c52 33 79 58 79 96 0 33-22 66-64 66z"/><glyph glyph-name="quotesingle" unicode="'" horiz-adv-x="217" d="M36 695h145l-24-275H60z"/><glyph glyph-name="parenleft" unicode="(" horiz-adv-x="333" d="M182 691h110c-55-93-99-228-99-404 0-174 44-309 99-402H182C130-36 69 95 69 287c0 194 61 325 113 404z"/><glyph glyph-name="parenright" unicode=")" horiz-adv-x="333" d="M151-115H41c55 93 99 228 99 403 0 176-44 310-99 403h110c52-78 113-209 113-403 0-193-61-324-113-403z"/><glyph glyph-name="asterisk" unicode="*" horiz-adv-x="477" d="M298 686l89-51-110-131v-2l166 34V432l-167 28v-3l111-126-90-53-59 157h-2l-58-157-89 53 110 127v2L35 432v104l162-34v2L89 635l91 51 56-157h2z"/><glyph glyph-name="plus" unicode="+" horiz-adv-x="596" d="M247 533h102V316h207v-97H349V0H247v219H40v97h207v217z"/><glyph glyph-name="comma" unicode="," horiz-adv-x="269" d="M106-108l-108-9C31-26 58 78 73 173l162 10C201 77 155-28 106-108z"/><glyph glyph-name="hyphen" unicode="-" horiz-adv-x="343" d="M30 310h283V206H30v104z"/><glyph glyph-name="hyphen" unicode="­" horiz-adv-x="343" d="M30 310h283V206H30v104z"/><glyph glyph-name="period" unicode="." horiz-adv-x="269" d="M144-12h-1c-56 0-93 40-93 94 0 55 38 94 94 94 57 0 93-39 94-94 0-54-37-94-94-94z"/><glyph glyph-name="slash" unicode="/" horiz-adv-x="348" d="M134-40H29l207 726h106z"/><glyph glyph-name="zero" unicode="0" horiz-adv-x="598" d="M298-12h-1C120-12 37 135 36 325c0 189 86 337 265 337 181 0 261-148 261-334 0-189-80-340-264-340zm0 116h1c66 0 104 75 104 222 0 146-37 220-104 220-62 0-104-73-104-220-1-148 41-222 103-222z"/><glyph glyph-name="one" unicode="1" horiz-adv-x="598" d="M255 0v511h-2l-128-59-26 117 180 81h129V0H255z"/><glyph glyph-name="two" unicode="2" horiz-adv-x="598" d="M544 0H48v94l90 73c162 134 231 201 233 271 0 53-32 97-114 97-61 0-115-31-153-60L55 586c54 43 138 76 235 76 149 0 240-83 240-209 0-105-78-189-179-271l-68-51v-2h261V0z"/><glyph glyph-name="three" unicode="3" horiz-adv-x="598" d="M43 39l35 118c27-14 99-44 170-44 84 0 125 37 125 84 0 61-67 90-134 90h-77v114h75c52 0 117 19 117 71 0 36-32 66-102 66-62 0-127-27-154-43L62 608c44 28 130 54 224 54 147 0 230-73 230-164 0-69-40-124-127-152v-2c83-12 151-72 151-156C540 68 430-12 258-12 163-12 84 13 43 39z"/><glyph glyph-name="four" unicode="4" horiz-adv-x="598" d="M490 0H337v155H27v102l257 393h206V272h82V155h-82V0zM178 272h159v147c0 41 2 82 4 126h-4c-23-44-42-85-65-127l-93-144z"/><glyph glyph-name="five" unicode="5" horiz-adv-x="598" d="M513 650V521H234l-14-94c17 2 31 3 50 3 73 0 139-15 188-46 53-34 86-89 86-169C544 95 433-12 247-12 158-12 87 8 47 28l30 118c30-15 98-36 164-36 63 0 138 27 138 96 0 60-49 105-197 105-41 0-70-3-101-7l44 346h388z"/><glyph glyph-name="six" unicode="6" horiz-adv-x="598" d="M491 659V538c-18 2-36 2-61 0-151-8-217-76-234-149h2c36 32 85 51 151 51 116 0 219-76 219-216C568 90 456-12 311-12 121-12 33 124 33 276c0 117 44 220 118 286 72 63 163 95 280 98 27 2 45 0 60-1zM308 105h1c57 0 97 46 97 108s-36 114-108 114c-48 0-87-28-102-62-5-9-7-19-7-33 4-63 40-127 119-127z"/><glyph glyph-name="seven" unicode="7" horiz-adv-x="598" d="M53 650h494v-99L258 0H85l291 519v2H53v129z"/><glyph glyph-name="eight" unicode="8" horiz-adv-x="598" d="M302 662h1c173 0 232-97 232-169 0-61-35-115-98-144v-2c64-22 126-73 126-159C563 70 461-12 295-12 111-12 36 88 36 169c0 79 45 130 122 161v2c-66 32-99 84-99 143 0 112 104 187 243 187zm-1-564h1c57 0 97 33 97 77 0 54-44 87-112 101-55-10-86-45-86-90-1-45 39-88 100-88zm-4 456h-1c-56 0-86-33-86-73 0-44 43-71 101-86 37 8 73 38 73 80 0 39-26 79-87 79z"/><glyph glyph-name="nine" unicode="9" horiz-adv-x="598" d="M95-9v121c18-3 35-2 68-1 54 2 107 15 146 40 47 30 77 71 88 117l-2 1c-32-32-79-49-144-49-119 0-219 77-219 206 0 132 113 236 263 236 182 0 266-134 266-284 0-132-41-229-116-295-69-60-164-91-279-93-26-2-55-1-71 1zm196 554h-1c-57 0-99-47-99-110 0-54 34-101 103-101 48 0 80 20 96 45 5 8 8 17 8 28 1 64-26 138-107 138z"/><glyph glyph-name="colon" unicode=":" horiz-adv-x="269" d="M144 310h-1c-56 0-93 40-93 94 0 55 38 94 94 94 57 0 93-39 94-94 0-54-37-94-94-94zm0-322h-1c-56 0-93 40-93 94 0 55 38 94 94 94 57 0 93-39 94-94 0-54-37-94-94-94z"/><glyph glyph-name="semicolon" unicode=";" horiz-adv-x="269" d="M106-108l-107-9C32-26 59 78 74 173l161 10C202 77 155-28 106-108zm44 418h-1c-56 0-93 40-93 94 0 55 38 94 94 94 57 0 93-39 94-94 0-54-37-94-94-94z"/><glyph glyph-name="less" unicode="&lt;" horiz-adv-x="596" d="M58 219v94l481 219V424L171 267v-2l368-157V0z"/><glyph glyph-name="equal" unicode="=" horiz-adv-x="596" d="M556 326H40v97h516v-97zm0-214H40v97h516v-97z"/><glyph glyph-name="greater" unicode="&gt;" horiz-adv-x="596" d="M538 313v-94L57 0v108l368 157v2L57 424v108z"/><glyph glyph-name="question" unicode="?" horiz-adv-x="483" d="M295 222H155l-1 27c-2 49 13 101 60 153 34 37 64 70 64 102 0 34-22 57-75 59-37 0-82-14-111-34L54 641c42 24 105 45 184 45 132 0 200-69 200-157 0-79-51-126-90-165-39-41-54-81-53-126v-16zM220-12h-1c-56 0-93 40-93 94 0 55 38 94 94 94 57 0 94-39 95-94 0-54-38-94-95-94z"/><glyph glyph-name="at" unicode="@" horiz-adv-x="820" d="M474 256l12 83c-9 2-20 4-32 4-73 0-124-62-124-130 0-39 18-64 54-64 39 0 82 46 90 107zM562-9l19-63c-63-26-115-34-191-34C211-106 57 19 57 214c0 206 156 378 391 378 181 0 324-121 324-299 0-138-89-229-200-229-46 0-83 23-90 75h-2c-34-50-79-75-136-75-68 0-121 50-121 135 0 121 95 229 244 229 48 0 102-12 127-25l-28-187c-9-54-3-80 24-81 44-2 101 49 101 158 0 132-92 232-253 232S141 412 141 227C141 60 253-39 412-39c52 0 110 11 150 30z"/><glyph glyph-name="A" unicode="A" horiz-adv-x="722" d="M460 180H242L189 0H21l225 674h214L696 0H520zM267 297h167l-49 144c-13 39-26 84-37 122h-2c-11-38-21-83-33-122z"/><glyph glyph-name="B" unicode="B" horiz-adv-x="644" d="M69 3v662c40 7 130 15 213 15 103 0 159-10 209-35 51-23 90-69 90-136 0-59-36-114-115-142v-2c76-20 139-77 139-167 0-64-32-113-77-147C475 13 389-8 248-8 165-8 105-2 69 3zm158 557V410h57c92 0 136 31 136 80 0 52-44 75-118 75-40 0-61-2-75-5zm0-263V112c17-3 38-3 68-3 75 0 141 25 141 96 0 68-65 92-149 92h-60z"/><glyph glyph-name="C" unicode="C" horiz-adv-x="662" d="M595 144l26-123C591 6 518-12 425-12 171-12 38 135 38 327c0 222 173 359 400 359 91 0 160-18 191-34l-34-124c-35 15-87 29-150 29-136 0-239-76-239-220 0-127 86-219 240-219 55 0 114 11 149 26z"/><glyph glyph-name="D" unicode="D" horiz-adv-x="765" d="M69 3v662c64 10 145 15 229 15 143 0 235-25 307-76 74-52 122-132 122-248 0-127-50-214-117-269C531 22 408-8 263-8 172-8 110-3 69 3zm159 549V118c15-3 41-3 63-3 164-2 267 80 267 233 0 141-97 211-246 211-42 0-69-4-84-7z"/><glyph glyph-name="E" unicode="E" horiz-adv-x="580" d="M507 410V281H228V129h312V0H69v674h455V545H228V410h279z"/><glyph glyph-name="F" unicode="F" horiz-adv-x="572" d="M69 0v674h451V545H228V397h273V268H228V0H69z"/><glyph glyph-name="G" unicode="G" horiz-adv-x="752" d="M695 390V36C642 18 544-7 442-7 303-7 204 27 136 91c-63 60-98 144-98 238 0 216 171 352 418 352 99 0 176-19 213-37l-35-125c-43 18-95 33-183 33-140 0-245-74-245-210 0-132 96-222 242-222 42 0 77 5 91 11v136H420v123h275z"/><glyph glyph-name="H" unicode="H" horiz-adv-x="746" d="M69 674h159V417h290v257h159V0H518v281H228V0H69v674z"/><glyph glyph-name="I" unicode="I" horiz-adv-x="298" d="M69 674h159V0H69v674z"/><glyph glyph-name="J" unicode="J" horiz-adv-x="449" d="M226 263v411h159V258c0-190-91-270-256-270C90-12 37-6 2 6l19 127c24-8 56-14 90-14 72 0 115 33 115 144z"/><glyph glyph-name="K" unicode="K" horiz-adv-x="666" d="M69 0v674h158V378h2c16 24 34 47 51 69l174 227h201L408 389 670 0H482L293 294l-66-75V0H69z"/><glyph glyph-name="L" unicode="L" horiz-adv-x="555" d="M69 0v674h159V133h300V0H69z"/><glyph glyph-name="M" unicode="M" horiz-adv-x="916" d="M702 0l-10 265c-3 87-6 188-6 296h-3c-25-91-56-191-86-280L506 11H380l-79 268c-24 88-48 188-67 282h-2c-4-98-7-208-11-298L208 0H57l41 674h225l70-219c22-75 44-163 60-243h4c21 79 46 173 71 245l78 217h219L860 0H702z"/><glyph glyph-name="N" unicode="N" horiz-adv-x="749" d="M217 0H69v674h196l152-241c47-77 89-161 123-243h3c-11 96-12 177-12 272v212h148V0H506L348 261c-46 78-95 165-133 250h-4c5-97 6-190 6-291V0z"/><glyph glyph-name="O" unicode="O" horiz-adv-x="796" d="M391-12h-1C174-12 38 136 38 330c0 207 148 356 363 356 222 0 357-147 357-344 0-210-148-354-367-354zm6 124h1c119 0 191 96 191 225 0 122-71 225-191 225S207 461 207 335c0-125 74-223 190-223z"/><glyph glyph-name="P" unicode="P" horiz-adv-x="622" d="M69 0v665c50 8 122 15 229 15 99 0 168-21 214-55 44-33 76-89 76-159 0-64-21-122-63-158-56-51-137-74-238-74-23 0-45 2-60 5V0H69zm158 556V360c15-4 33-5 60-5 86 0 143 39 143 109 0 63-49 97-131 97-36 0-60-2-72-5z"/><glyph glyph-name="Q" unicode="Q" horiz-adv-x="796" d="M752 7l-43-124C601-88 516-60 412-21c-15 6-33 8-52 9C200 1 38 109 38 329c0 209 146 357 365 357 220 0 355-149 355-342 0-148-82-258-179-299v-4c55-14 117-25 173-34zM397 112h1c119 0 191 96 191 225 0 122-71 225-190 225-121 0-192-101-192-228 0-125 74-222 190-222z"/><glyph glyph-name="R" unicode="R" horiz-adv-x="634" d="M69 0v665c52 8 131 15 223 15 109 0 181-17 231-54 40-30 65-79 65-142 0-90-70-148-124-165v-4c47-19 74-64 93-122 23-77 44-166 58-193H452c-11 20-28 69-50 156-21 84-52 106-121 107h-54V0H69zm158 558V376h72c82 0 131 36 131 95 0 63-49 92-122 92-45 0-69-3-81-5z"/><glyph glyph-name="S" unicode="S" horiz-adv-x="589" d="M46 35l35 130c44-24 113-48 188-48 73 0 112 28 112 72 0 39-33 64-122 90-119 34-205 92-205 203 0 117 105 204 269 204 88 0 148-16 194-37l-38-126c-29 13-84 35-159 35-70 0-103-29-103-64 0-43 43-61 136-91 129-41 192-101 192-205 0-108-85-210-289-210-83 0-168 23-210 47z"/><glyph glyph-name="T" unicode="T" horiz-adv-x="599" d="M219 0v544H16v130h568V544H378V0H219z"/><glyph glyph-name="U" unicode="U" horiz-adv-x="742" d="M69 674h159V303c0-122 50-191 142-191 94 0 144 66 144 191v371h159V308C673 89 555-12 363-12 183-12 69 81 69 311v363z"/><glyph glyph-name="V" unicode="V" horiz-adv-x="698" d="M438 0H250L12 674h174l93-283c27-83 50-157 70-243h2c19 81 45 161 71 238l99 288h168z"/><glyph glyph-name="W" unicode="W" horiz-adv-x="957" d="M370 0H191L16 674h172l58-280 44-236h2c11 70 28 153 46 238l61 278h180l57-291c15-79 27-150 37-220h2c11 71 27 151 44 233l62 278h164L753 0H578l-63 314c-14 68-25 128-33 202h-2c-11-74-22-134-39-203z"/><glyph glyph-name="X" unicode="X" horiz-adv-x="681" d="M659 0H469l-67 121-67 122h-2c-15-38-34-71-60-120L211 0H23l218 340L31 674h188l65-122c23-43 39-76 57-113h3c18 43 32 72 52 112l64 123h188L437 347z"/><glyph glyph-name="Y" unicode="Y" horiz-adv-x="670" d="M410 0H251v282L17 674h186l76-163c23-50 39-81 57-124h2c17 40 35 76 57 123l77 164h184L410 288V0z"/><glyph glyph-name="Z" unicode="Z" horiz-adv-x="640" d="M28 0v84l356 456v4H61v130h537v-85L248 134v-4h357V0H28z"/><glyph glyph-name="bracketleft" unicode="[" horiz-adv-x="333" d="M285-112H74v798h211v-84h-98V-28h98v-84z"/><glyph glyph-name="backslash" unicode="\" horiz-adv-x="363" d="M334-40H228L21 686h106z"/><glyph glyph-name="bracketright" unicode="]" horiz-adv-x="333" d="M48 686h211v-798H48v84h98v630H48v84z"/><glyph glyph-name="asciicircum" unicode="^" horiz-adv-x="596" d="M555 177H443L299 531h-2L152 177H42l209 473h95z"/><glyph glyph-name="underscore" unicode="_" horiz-adv-x="500" d="M0-75h500v-50H0v50z"/><glyph glyph-name="grave" unicode="`" d="M-4 706h149l92-156H126z"/><glyph glyph-name="a" unicode="a" horiz-adv-x="564" d="M500 288V121c0-49 3-95 8-121H364l-9 49h-4c-34-40-88-61-151-61C93-12 33 63 33 138c0 127 114 190 308 190v5c0 21-11 61-97 61-53 0-112-19-146-39L69 455c36 21 106 46 202 46 168 0 229-93 229-213zM346 186v43c-93 1-155-20-155-75 0-36 25-56 65-56 42 0 77 29 87 61 2 8 3 18 3 27z"/><glyph glyph-name="b" unicode="b" horiz-adv-x="648" d="M66 147v569h159V428h2c31 44 88 73 163 73 126 0 225-94 224-249C614 74 487-12 368-12c-63 0-127 23-163 84h-2l-6-72H62c2 29 4 88 4 147zm159 122v-51c0-8 0-17 2-25 10-42 50-81 105-81 71 0 119 49 119 134 0 73-39 135-119 135-49 0-94-34-105-85-1-8-2-17-2-27z"/><glyph glyph-name="c" unicode="c" horiz-adv-x="493" d="M444 129l21-115c-32-15-90-26-154-26C141-12 34 88 34 240c0 140 101 261 298 261 43 0 93-7 131-21l-26-117c-21 10-51 18-97 18-86 0-143-56-142-134 0-91 68-136 146-136 42 0 74 7 100 18z"/><glyph glyph-name="d" unicode="d" horiz-adv-x="645" d="M420 716h159V147c0-59 2-118 4-147H441l-7 77h-2c-35-61-101-89-170-89C143-12 34 82 34 239c-1 162 112 262 240 262 66 0 119-22 144-57h2v272zm0-484v43c0 8 0 19-2 27-10 44-49 80-102 80-78 0-119-60-119-136 0-79 46-132 118-132 52 0 93 37 102 83 3 11 3 23 3 35z"/><glyph glyph-name="e" unicode="e" horiz-adv-x="564" d="M528 195H186c5-59 74-89 149-89 56 0 102 6 149 22l21-106C449-1 385-12 313-12 137-12 34 88 34 240c0 110 75 261 264 261 177 0 236-137 236-249 0-23-3-47-6-57zM184 303h201c0 28-16 95-95 95-72 0-101-57-106-95z"/><glyph glyph-name="f" unicode="f" horiz-adv-x="360" d="M241 0H82v370H18v119h64v18c0 60 20 130 65 171 42 38 97 50 141 50 33 0 59-4 82-10l-4-122c-14 4-30 7-52 7-52 0-75-39-75-88v-26h103V370H241V0z"/><glyph glyph-name="g" unicode="g" horiz-adv-x="630" d="M564 347V77c0-90-19-175-79-227-60-50-140-62-212-62-71 0-147 15-194 42l33 120c32-20 94-42 157-42 74 0 139 37 139 133v32h-2C373 30 322 5 259 5 135 5 34 96 34 244c0 156 111 257 241 257 77 0 122-32 149-73h2l4 61h138c-2-27-4-65-4-142zM405 231v52c0 9-1 18-2 26-12 46-46 76-95 76-59 0-111-46-111-138 0-66 39-127 111-127 47 0 83 32 93 70 3 12 4 28 4 41z"/><glyph glyph-name="h" unicode="h" horiz-adv-x="628" d="M66 0v716h159V428h2c17 23 40 41 66 53 24 13 54 20 83 20 100 0 187-64 187-219V0H404v259c0 71-27 115-89 115-47 0-74-30-85-56-5-10-5-21-5-32V0H66z"/><glyph glyph-name="i" unicode="i" horiz-adv-x="291" d="M225 0H66v489h159V0zm-79 550h-1c-52 0-84 35-84 77 0 44 32 78 85 78s84-34 85-78c0-42-32-77-85-77z"/><glyph glyph-name="j" unicode="j" horiz-adv-x="314" d="M-23-220L-39-96c45 3 78 14 98 34C82-38 92 2 92 107v382h159V66c0-105-23-175-70-220-48-46-123-66-204-66zm194 770h-1c-52 0-84 35-84 77 0 44 32 78 85 78s84-34 85-78c0-42-32-77-85-77z"/><glyph glyph-name="k" unicode="k" horiz-adv-x="586" d="M225 716V285h2l39 56 111 148h196L379 293 604 0H404L269 201l-44-51V0H66v716h159z"/><glyph glyph-name="l" unicode="l" horiz-adv-x="291" d="M66 0v716h159V0H66z"/><glyph glyph-name="m" unicode="m" horiz-adv-x="920" d="M66 0v330c0 63-2 116-4 159h134l6-69h4c19 29 63 81 158 81 66 0 120-35 143-89h2c20 28 43 48 68 63 29 17 61 26 101 26 96 0 178-65 178-221V0H702v258c0 76-28 116-81 116-39 0-66-27-77-56-4-12-6-28-6-40V0H384v263c0 71-28 111-79 111-46 0-70-35-79-58-5-13-6-27-6-39V0H66z"/><glyph glyph-name="n" unicode="n" horiz-adv-x="628" d="M66 0v330c0 63-2 116-4 159h138l7-71h4c18 29 70 83 162 83 102 0 190-64 190-219V0H404v259c0 71-27 115-87 115-49 0-76-34-87-62-4-9-5-23-5-35V0H66z"/><glyph glyph-name="o" unicode="o" horiz-adv-x="625" d="M310-12h-1C158-12 34 83 34 240c0 152 108 261 286 261 161 0 271-105 271-251C591 80 460-12 310-12zm3 112h1c65 0 111 52 111 145 0 74-33 144-111 144-81 0-114-71-114-145 0-83 43-144 113-144z"/><glyph glyph-name="p" unicode="p" horiz-adv-x="648" d="M66-200v522c0 66-2 121-4 167h138l7-72h2c42 55 104 84 184 84 107 0 221-85 221-248C614 74 488-12 370-12c-65 0-119 23-143 59h-2v-247H66zm159 466v-46c0-10 0-19 2-29 10-44 51-83 105-83 72 0 119 51 119 136 0 73-39 135-117 135-50 0-96-37-106-88-2-9-3-17-3-25z"/><glyph glyph-name="q" unicode="q" horiz-adv-x="645" d="M420-200V68h-2c-34-52-89-80-162-80C145-12 34 76 34 239c0 179 125 262 234 262 73 0 121-26 151-71h2l3 59h158c-1-48-3-96-3-144v-545H420zm0 423v52c0 8 0 16-2 24-9 42-47 81-102 81-78 0-119-60-119-136 0-79 45-132 117-132 52 0 92 35 102 78 3 10 4 23 4 33z"/><glyph glyph-name="r" unicode="r" horiz-adv-x="408" d="M66 0v323c0 80-1 125-4 166h136l5-97h4c26 78 93 109 144 109 14 0 21 0 34-3V351c-13 3-27 5-46 5-65 0-103-33-112-80-2-9-2-19-2-29V0H66z"/><glyph glyph-name="s" unicode="s" horiz-adv-x="471" d="M37 25l29 113c31-19 96-40 144-40 51 0 71 15 71 39 0 25-16 37-78 53C95 220 50 277 51 338c0 93 82 163 212 163 63 0 119-15 150-30l-27-108c-23 12-72 30-119 30-39 0-62-13-62-39 0-24 22-36 88-54 99-29 142-75 143-152 0-88-71-160-225-160C140-12 80 4 37 25z"/><glyph glyph-name="t" unicode="t" horiz-adv-x="386" d="M86 582l155 41V489h114V370H241V209c0-60 12-91 63-91 25 0 34 1 49 5l2-120c-21-8-60-15-105-15-53 0-97 20-122 46-28 31-42 80-42 147v189H19v119h67v93z"/><glyph glyph-name="u" unicode="u" horiz-adv-x="627" d="M561 489V159c0-67 2-120 4-159H427l-7 75h-3c-18-30-66-87-167-87S65 48 65 204v285h159V232c0-74 26-117 86-117 48 0 76 33 87 60 4 9 5 19 5 29v285h159z"/><glyph glyph-name="v" unicode="v" horiz-adv-x="575" d="M11 489h174l75-230c13-41 23-77 30-113h4c8 37 17 72 30 113l71 230h170L366 0H204z"/><glyph glyph-name="w" unicode="w" horiz-adv-x="807" d="M13 489h160l44-197c11-49 21-105 31-164h2c10 58 26 115 39 163l54 198h127l51-191c15-56 29-112 40-170h2c7 58 19 115 32 172l45 189h155L638 0H485l-49 172c-14 49-23 90-34 152h-2c-10-63-20-106-33-151L316 0H163z"/><glyph glyph-name="x" unicode="x" horiz-adv-x="561" d="M7 489h179l54-80c16-23 31-46 46-70h2c15 27 28 50 43 73l47 77h177L377 259 557 0H374l-54 87c-15 24-29 48-43 74h-2l-43-74-51-87H2l185 252z"/><glyph glyph-name="y" unicode="y" horiz-adv-x="567" d="M7 489h178l81-236c9-29 20-69 28-94h3c8 27 17 66 25 95l67 235h174L445 185C359-43 308-115 252-159c-56-45-114-60-158-64L63-90c19 3 42 9 67 21 25 11 54 37 70 62 5 8 9 16 9 22s-1 14-8 28z"/><glyph glyph-name="z" unicode="z" horiz-adv-x="508" d="M23 0v89l165 184c32 34 55 56 88 89v2H41v125h435v-92L319 220c-30-33-58-63-91-93v-2h257V0H23z"/><glyph glyph-name="braceleft" unicode="{" horiz-adv-x="333" d="M37 250v75c74 3 79 42 79 72 0 25-3 52-5 79-3 27-6 55-6 79 0 93 59 131 151 131h41v-86h-19c-47 0-63-26-63-72 0-16 3-33 6-54 2-20 5-44 5-72 2-78-31-103-88-113v-2c57-11 90-36 88-115 0-28-3-51-6-72-2-21-5-38-5-54 0-47 17-73 63-73h19v-85h-41c-92 0-151 36-151 134 0 23 3 51 6 77 2 28 5 54 5 78 0 29-5 70-79 73z"/><glyph glyph-name="bar" unicode="|" horiz-adv-x="304" d="M98 750h109V-250H98V750z"/><glyph glyph-name="braceright" unicode="}" horiz-adv-x="333" d="M296 325v-75c-74-3-79-44-79-73 0-24 3-50 6-78 2-26 5-54 5-77 0-98-59-134-151-134H36v85h19c46 0 63 26 63 73 0 16-3 33-6 54-2 21-5 44-5 72-2 79 31 104 88 115v2c-57 10-90 35-88 113 0 28 3 52 6 72 2 21 5 38 5 54 0 46-16 72-63 72H36v86h41c92 0 151-38 151-131 0-24-3-52-6-79-2-27-5-54-5-79 0-30 5-69 79-72z"/><glyph glyph-name="asciitilde" unicode="~" horiz-adv-x="596" d="M137 190H38c-1 136 54 192 141 192 49 0 83-16 142-47 42-23 72-39 98-39 21 0 36 20 39 81h100c6-153-63-194-137-194-49 0-91 20-143 48-40 23-69 40-94 40-23 0-42-16-47-81z"/><glyph glyph-name="exclamdown" unicode="¡" horiz-adv-x="278" d="M221-191H58l24 452h115zm-82 685h1c56 0 93-40 93-94-1-55-37-94-94-94s-94 39-94 94c0 54 38 94 94 94z"/><glyph glyph-name="cent" unicode="¢" horiz-adv-x="598" d="M404-13H301v97c-69 10-122 38-161 79-37 42-58 101-58 165 0 121 76 230 219 256v94h103v-90c33-1 72-9 103-20l-26-117c-20 10-51 19-94 19-87 0-141-52-141-133 0-93 65-135 140-135 45 0 80 9 106 19l21-113c-26-13-66-23-109-26v-95z"/><glyph glyph-name="sterling" unicode="£" horiz-adv-x="598" d="M548 0H56v81c51 22 119 74 119 147 0 12 0 23-3 35H69v109h85c-4 23-7 49-7 76 0 132 99 214 239 214 60 0 106-13 130-27l-26-118c-22 12-53 20-94 20-80 0-102-49-102-99 0-22 4-44 9-66h148V263H316c0-22-2-43-9-64-10-26-26-48-48-68v-2h289V0z"/><glyph glyph-name="currency" unicode="¤" horiz-adv-x="598" d="M299 555h1c48 0 90-13 121-35l81 86 70-73-89-78c15-23 35-58 35-116 0-61-20-99-39-123l87-81-70-69-75 90c-32-26-81-40-123-40s-92 13-122 39l-75-89-69 69 86 80c-19 24-40 63-40 121 0 61 21 96 38 119l-90 78 71 73 80-88c31 24 73 37 122 37zm-1-105h-1c-55 0-104-43-104-113 0-83 60-116 105-116 46 0 105 32 105 117 0 68-48 112-105 112z"/><glyph glyph-name="yen" unicode="¥" horiz-adv-x="598" d="M368 0H218v158H54v72h164v66H54v72h125L1 650h175l75-153c20-41 31-72 46-110h2c16 35 29 72 48 110l77 153h173L409 368h126v-72H368v-66h167v-72H368V0z"/><glyph glyph-name="brokenbar" unicode="¦" horiz-adv-x="304" d="M98 174h109v-350H98v350zm0 500h109V324H98v350z"/><glyph glyph-name="section" unicode="§" horiz-adv-x="604" d="M174 340v-1c0-34 31-59 92-79 49-16 106-30 130-42 20 11 32 31 32 52 0 29-20 52-73 71-44 17-111 37-144 51-22-11-37-29-37-52zm326 313l-25-96c-31 15-77 30-144 30-66 0-97-20-97-48 0-29 40-48 117-70 117-33 205-73 205-178 0-54-32-95-78-120 21-16 48-49 48-95C526-56 380-86 289-86c-63 0-143 10-204 48l31 95c32-19 101-45 165-45 57 0 97 17 97 51 0 33-31 51-110 73-115 31-220 70-220 176 0 44 29 97 89 122-22 16-42 55-42 94 0 103 102 157 231 157 62 0 121-9 174-32z"/><glyph glyph-name="dieresis" unicode="¨" d="M41 556h-1c-43 0-75 33-75 72 0 42 33 73 76 73 39 0 70-31 70-73 0-39-31-72-70-72zm221 0h-2c-41 0-72 33-72 72 0 42 31 73 74 73 41 0 72-31 72-73 0-39-31-72-72-72z"/><glyph glyph-name="copyright" unicode="©" horiz-adv-x="677" d="M340 648h1c170 0 304-138 304-308 0-172-134-310-305-310S32 168 32 340c0 170 137 308 308 308zm-1-57h-1C206 591 98 479 98 338 98 198 206 87 339 87c133-1 240 111 240 252 0 140-107 252-240 252zm135-100l-15-53c-12 8-52 23-95 23-78 0-124-46-124-124 0-72 49-125 124-125 41 0 79 10 101 26l15-52c-35-24-83-33-124-33-119 0-186 79-186 181 0 115 94 186 193 186 49 0 99-14 111-29z"/><glyph glyph-name="ordfeminine" unicode="ª" horiz-adv-x="403" d="M365 267H264l-8 33h-2c-25-22-61-39-107-38-72 0-114 44-114 98 0 75 80 117 213 116v6c0 6-5 38-64 38-40 0-78-12-102-28l-22 66c25 14 77 34 145 34 112 0 156-63 156-141V346c0-31 2-61 6-79zM250 388v28c-60 1-106-14-106-47 0-23 20-39 46-39 24 0 48 15 55 33 4 9 5 18 5 25z"/><glyph glyph-name="guillemotleft" unicode="«" horiz-adv-x="492" d="M259 445L136 252 259 60H149L30 252l119 193h110zm205 0L341 252 464 60H354L235 252l119 193h110z"/><glyph glyph-name="logicalnot" unicode="¬" horiz-adv-x="596" d="M40 423h516V107H454v219H40v97z"/><glyph glyph-name="registered" unicode="®" horiz-adv-x="487" d="M222 484v-58h-53v161c12 2 40 6 75 6 38 0 54-5 66-13 11-7 18-19 18-35s-15-31-38-37v-2c18-6 29-19 34-41 5-24 9-34 11-39h-57c-5 6-8 20-12 34-3 17-12 24-28 24h-16zm1 73v-39h15c19 0 31 8 31 20 0 13-11 20-29 20-6 0-12-1-17-1zm22 128h1c101 0 181-79 181-176 0-98-80-177-182-177-103 0-185 79-185 177 0 97 82 176 185 176zm-1-44h-1c-73 0-128-59-128-133 0-73 55-132 129-132 75-1 129 59 129 133 0 73-54 132-129 132z"/><glyph glyph-name="macron" unicode="¯" d="M19 669h263v-87H19v87z"/><glyph glyph-name="macron" unicode="ˉ" d="M19 669h263v-87H19v87z"/><glyph glyph-name="degree" unicode="°" horiz-adv-x="379" d="M190 686h1c94 0 161-72 161-155 0-88-73-156-163-156-94 0-162 70-162 154-1 87 70 157 163 157zm-1-76h-1c-45 0-73-38-73-80 0-45 31-79 74-79 44 0 75 34 75 80 0 40-27 79-75 79z"/><glyph glyph-name="plusminus" unicode="±" horiz-adv-x="596" d="M247 583h102V410h207v-97H349V137H247v176H40v97h207v173zM40 97h516V0H40v97z"/><glyph glyph-name="twosuperior" unicode="²" horiz-adv-x="378" d="M17 451v57l67 55c84 69 124 99 124 142 0 25-22 46-61 46-36 0-70-13-94-29l-34 78c37 25 93 46 158 46 101 0 161-50 161-123 0-71-55-114-118-162l-26-19v-2h152v-89H17z"/><glyph glyph-name="threesuperior" unicode="³" horiz-adv-x="376" d="M51 736l-25 76c32 18 90 34 156 34 100 0 153-42 153-100 0-43-37-75-88-88v-2c60-5 105-40 105-92 0-70-75-118-191-118-59 0-118 13-151 31l26 81c22-12 69-29 109-29 44 0 75 18 75 43 0 32-45 47-91 47H93v70h35c34 0 79 10 79 40 0 19-15 34-55 34s-82-16-101-27z"/><glyph glyph-name="acute" unicode="´" d="M158 706h149L177 550H66z"/><glyph glyph-name="mu" unicode="µ" horiz-adv-x="628" d="M421 73h-4C401 34 354-9 281-9c-28 0-57 11-74 31v-43c0-46 2-139 10-179H79C69-176 66-90 66-28v517h159V227c0-69 27-112 83-112 44 0 79 33 90 60 4 9 5 19 5 29v285h159V165c0-43 15-56 44-58L598-2c-13-6-33-10-59-10-61 0-103 30-118 85z"/><glyph glyph-name="paragraph" unicode="¶" horiz-adv-x="580" d="M322-46H217v310h-6c-68 0-176 65-176 190 0 102 50 226 313 226 62 0 124-4 155-12V-46H398v624h-76V-46z"/><glyph glyph-name="periodcentered" unicode="·" horiz-adv-x="269" d="M134 162h-1c-56 0-93 40-93 94 0 55 38 94 94 94 57 0 93-39 94-94 0-54-37-94-94-94z"/><glyph glyph-name="periodcentered" unicode="∙" horiz-adv-x="269" d="M134 162h-1c-56 0-93 40-93 94 0 55 38 94 94 94 57 0 93-39 94-94 0-54-37-94-94-94z"/><glyph glyph-name="cedilla" unicode="¸" d="M118 4h86l-28-48c39-4 74-31 74-72 0-66-59-88-125-88-34 0-62 8-82 21l20 56c18-11 40-17 55-17 19 0 37 7 37 26s-23 32-81 36z"/><glyph glyph-name="onesuperior" unicode="¹" horiz-adv-x="320" d="M249 451H124v291h-1l-82-36-16 87 116 48h108V451z"/><glyph glyph-name="ordmasculine" unicode="º" horiz-adv-x="411" d="M208 592h1c109 0 181-71 181-161-1-107-88-169-186-169-99 0-182 64-182 162 0 96 75 168 186 168zm-3-76h-1c-47 0-67-48-67-91 0-47 28-87 69-87 40 0 68 33 68 90 0 42-25 88-69 88z"/><glyph glyph-name="guillemotright" unicode="»" horiz-adv-x="492" d="M151 252L28 445h108l121-193L136 60H28zm202 0L230 445h108l121-193L338 60H230z"/><glyph glyph-name="onequarter" unicode="¼" horiz-adv-x="886" d="M265 267H140v291h-1l-82-36-16 87 116 48h108V267zm15-279h-88l375 674h87zM793 0H677v91H466v64l180 240h147V167h57V91h-57V0zM677 167v75c0 25 3 50 4 76h-2c-14-26-27-51-39-69l-59-81 3-1h93z"/><glyph glyph-name="onehalf" unicode="½" horiz-adv-x="886" d="M253 267H128v291h-1l-82-36-16 87 116 48h108V267zm4-279h-87l374 674h88zM518 0v57l67 55c84 69 124 99 124 142 0 25-22 46-61 46-36 0-70-13-94-29l-34 78c37 25 93 46 158 46 101 0 161-50 161-123 0-71-55-113-118-162l-26-19v-2h152V0H518z"/><glyph glyph-name="threequarters" unicode="¾" horiz-adv-x="886" d="M67 552l-25 75c32 19 90 35 156 35 100 0 153-42 153-100 0-43-37-75-88-88v-2c60-5 105-40 105-92 0-70-75-118-191-118-59 0-118 13-151 31l26 81c22-12 69-29 109-29 44 0 75 18 75 43 0 32-45 47-91 47h-36v70h35c34 0 79 10 79 40 0 19-15 34-55 34s-82-16-101-27zM316-12h-87l375 674h87zM804 0H688v91H477v64l180 240h147V167h57V91h-57V0zM688 167v75c0 25 3 50 4 76h-2c-14-26-27-51-39-69l-59-81 3-1h93z"/><glyph glyph-name="questiondown" unicode="¿" horiz-adv-x="483" d="M266 494h1c56 0 93-40 93-94 0-55-37-94-94-94-56 0-93 39-94 94 0 54 38 94 94 94zm-73-233h140l1-27c2-49-13-101-60-153-34-37-64-70-64-102 0-34 22-57 75-59 37 0 82 14 111 34l38-112c-42-24-105-45-184-45-132 0-200 69-200 157 0 79 51 126 90 165 39 41 54 81 53 126v16z"/><glyph glyph-name="Agrave" unicode="À" horiz-adv-x="722" d="M460 180H242L189 0H21l225 674h214L696 0H520zM267 297h167l-49 144c-13 39-26 84-37 122h-2c-11-38-21-83-33-122zm-91 540h169l85-124H299z"/><glyph glyph-name="Aacute" unicode="Á" horiz-adv-x="722" d="M460 180H242L189 0H21l225 674h214L696 0H520zM267 297h167l-49 144c-13 39-26 84-37 122h-2c-11-38-21-83-33-122zm98 540h169L411 710H280z"/><glyph glyph-name="Acircumflex" unicode="Â" horiz-adv-x="722" d="M460 180H242L189 0H21l225 674h214L696 0H520zM267 297h167l-49 144c-13 39-26 84-37 122h-2c-11-38-21-83-33-122zm35 540h117l107-127H415l-54 66h-2l-53-66H195z"/><glyph glyph-name="Atilde" unicode="Ã" horiz-adv-x="722" d="M460 180H242L189 0H21l225 674h214L696 0H520zM267 297h167l-49 144c-13 39-26 84-37 122h-2c-11-38-21-83-33-122zm21 416h-73c-3 88 30 132 80 132 28 0 48-10 68-21 18-10 34-20 47-20 17 0 24 10 28 44h72c2-91-28-127-82-127-29 0-50 9-69 19s-32 19-46 19c-13 0-23-15-25-46z"/><glyph glyph-name="Adieresis" unicode="Ä" horiz-adv-x="722" d="M460 180H242L189 0H21l225 674h214L696 0H520zM267 297h167l-49 144c-13 39-26 84-37 122h-2c-11-38-21-83-33-122zm-11 415h-1c-41 0-72 33-72 70 0 40 31 70 73 70 39 0 68-30 68-70 0-37-29-70-68-70zm215 0h-1c-41 0-70 33-70 70 0 40 30 70 71 70s70-30 70-70c0-37-29-70-70-70z"/><glyph glyph-name="Aring" unicode="Å" horiz-adv-x="722" d="M460 180H242L189 0H21l225 674h214L696 0H520zM267 297h167l-49 144c-13 39-26 84-37 122h-2c-11-38-21-83-33-122zm90 605h1c75 0 116-43 116-101 0-56-46-98-117-98-72 0-119 43-119 98 0 57 43 101 119 101zm-2-52h-1c-28 0-45-23-45-49 0-24 19-46 46-46 28 0 47 20 47 47 0 25-19 48-47 48z"/><glyph glyph-name="AE" unicode="Æ" horiz-adv-x="958" d="M172 0H6l315 674h561V545H573l20-135h286V281H616l24-152h286V0H504l-28 184H255zm135 313h150l-25 162c-4 27-9 58-13 86h-3l-34-78z"/><glyph glyph-name="Ccedilla" unicode="Ç" horiz-adv-x="662" d="M595 145l26-123C593 8 528-9 439-11l-18-33c39-10 75-36 75-85 0-71-65-94-122-94-32 0-65 5-89 19l19 64c14-8 39-14 58-14 21 0 37 7 37 26s-23 30-82 37l39 84C147 17 38 154 38 328c0 221 173 358 401 358 90 0 160-18 190-34l-34-124c-35 15-87 29-150 29-136 0-239-76-239-220 0-126 86-218 240-218 55 0 114 10 149 26z"/><glyph glyph-name="Egrave" unicode="È" horiz-adv-x="580" d="M507 410V281H228V129h312V0H69v674h455V545H228V410h279zM127 837h169l85-124H250z"/><glyph glyph-name="Eacute" unicode="É" horiz-adv-x="580" d="M507 410V281H228V129h312V0H69v674h455V545H228V410h279zM309 837h169L355 710H224z"/><glyph glyph-name="Ecircumflex" unicode="Ê" horiz-adv-x="580" d="M507 410V281H228V129h312V0H69v674h455V545H228V410h279zM244 837h117l107-127H357l-54 66h-2l-53-66H137z"/><glyph glyph-name="Edieresis" unicode="Ë" horiz-adv-x="580" d="M507 410V281H228V129h312V0H69v674h455V545H228V410h279zM187 712h-1c-41 0-72 33-72 70 0 40 31 70 73 70 39 0 68-30 68-70 0-37-29-70-68-70zm215 0h-1c-41 0-70 33-70 70 0 40 30 70 71 70s70-30 70-70c0-37-29-70-70-70z"/><glyph glyph-name="Igrave" unicode="Ì" horiz-adv-x="298" d="M69 674h159V0H69v674zm-96 163h169l85-124H96z"/><glyph glyph-name="Iacute" unicode="Í" horiz-adv-x="298" d="M69 674h159V0H69v674zm88 163h169L203 710H72z"/><glyph glyph-name="Icircumflex" unicode="Î" horiz-adv-x="298" d="M69 674h159V0H69v674zm22 163h117l107-127H204l-54 66h-2l-53-66H-16z"/><glyph glyph-name="Idieresis" unicode="Ï" horiz-adv-x="298" d="M69 674h159V0H69v674zm-26 38h-1c-41 0-72 33-72 70 0 40 31 70 73 70 39 0 68-30 68-70 0-37-29-70-68-70zm215 0h-1c-41 0-70 33-70 70 0 40 30 70 71 70s70-30 70-70c0-37-29-70-70-70z"/><glyph glyph-name="Eth" unicode="Ð" horiz-adv-x="775" d="M4 277v129h75v262c64 10 145 15 229 15 143 0 234-22 306-74 74-52 122-137 122-252 0-129-50-217-117-273-79-65-202-95-346-95-91 0-153 5-194 11v277H4zm388 129V277H238V115c15-3 41-3 63-3 166 0 266 79 266 237 0 149-96 213-245 213-42 0-69-4-84-7V406h154z"/><glyph glyph-name="Ntilde" unicode="Ñ" horiz-adv-x="749" d="M217 0H69v674h196l152-241c47-77 89-161 123-243h3c-11 96-12 177-12 272v212h148V0H506L348 261c-46 78-95 165-133 250h-4c5-97 6-190 6-291V0zm86 713h-73c-3 88 30 132 80 132 28 0 48-10 68-21 18-10 34-20 47-20 17 0 24 10 28 44h72c2-91-28-127-82-127-29 0-50 9-69 19s-32 19-46 19c-13 0-23-15-25-46z"/><glyph glyph-name="Ograve" unicode="Ò" horiz-adv-x="796" d="M391-12h-1C174-12 38 136 38 330c0 207 148 356 363 356 222 0 357-147 357-344 0-210-148-354-367-354zm6 124h1c119 0 191 96 191 225 0 122-71 225-191 225S207 461 207 335c0-125 74-223 190-223zM221 838h169l85-124H344z"/><glyph glyph-name="Oacute" unicode="Ó" horiz-adv-x="796" d="M391-12h-1C174-12 38 136 38 330c0 207 148 356 363 356 222 0 357-147 357-344 0-210-148-354-367-354zm6 124h1c119 0 191 96 191 225 0 122-71 225-191 225S207 461 207 335c0-125 74-223 190-223zm12 726h169L455 711H324z"/><glyph glyph-name="Ocircumflex" unicode="Ô" horiz-adv-x="796" d="M391-12h-1C174-12 38 136 38 330c0 207 148 356 363 356 222 0 357-147 357-344 0-210-148-354-367-354zm6 124h1c119 0 191 96 191 225 0 122-71 225-191 225S207 461 207 335c0-125 74-223 190-223zm-57 726h117l107-127H453l-54 66h-2l-53-66H233z"/><glyph glyph-name="Otilde" unicode="Õ" horiz-adv-x="796" d="M391-12h-1C174-12 38 136 38 330c0 207 148 356 363 356 222 0 357-147 357-344 0-210-148-354-367-354zm6 124h1c119 0 191 96 191 225 0 122-71 225-191 225S207 461 207 335c0-125 74-223 190-223zm-73 602h-73c-3 88 30 132 80 132 28 0 48-10 68-21 18-10 34-20 47-20 17 0 24 10 28 44h72c2-91-28-127-82-127-29 0-50 9-69 19s-32 19-46 19c-13 0-23-15-25-46z"/><glyph glyph-name="Odieresis" unicode="Ö" horiz-adv-x="796" d="M391-12h-1C174-12 38 136 38 330c0 207 148 356 363 356 222 0 357-147 357-344 0-210-148-354-367-354zm6 124h1c119 0 191 96 191 225 0 122-71 225-191 225S207 461 207 335c0-125 74-223 190-223zM292 712h-1c-41 0-72 33-72 70 0 40 31 70 73 70 39 0 68-30 68-70 0-37-29-70-68-70zm215 0h-1c-41 0-70 33-70 70 0 40 30 70 71 70s70-30 70-70c0-37-29-70-70-70z"/><glyph glyph-name="multiply" unicode="×" horiz-adv-x="596" d="M40 457l68 69 190-194 190 194 68-69-190-194L556 69 488 0 298 194 108 0 40 69l190 194z"/><glyph glyph-name="Oslash" unicode="Ø" horiz-adv-x="796" d="M169-71L82 3l61 82C77 146 38 235 38 336c0 203 149 350 361 350 61 0 118-13 167-37l63 84 92-68-61-81c63-61 98-148 98-245 0-209-153-351-359-351-59 0-112 13-159 35zm64 278l255 335c-26 16-56 24-89 24-126 0-200-102-200-229 0-50 11-88 33-130h1zm334 251L318 129c22-14 48-21 80-21 123 0 199 98 199 230 0 39-8 79-28 119z"/><glyph glyph-name="Ugrave" unicode="Ù" horiz-adv-x="742" d="M69 674h159V303c0-122 50-191 142-191 94 0 144 66 144 191v371h159V308C673 89 555-12 363-12 183-12 69 81 69 311v363zm128 163h169l85-124H320z"/><glyph glyph-name="Uacute" unicode="Ú" horiz-adv-x="742" d="M69 674h159V303c0-122 50-191 142-191 94 0 144 66 144 191v371h159V308C673 89 555-12 363-12 183-12 69 81 69 311v363zm308 163h169L423 710H292z"/><glyph glyph-name="Ucircumflex" unicode="Û" horiz-adv-x="742" d="M69 674h159V303c0-122 50-191 142-191 94 0 144 66 144 191v371h159V308C673 89 555-12 363-12 183-12 69 81 69 311v363zm257 163h117l107-127H439l-54 66h-2l-53-66H219z"/><glyph glyph-name="Udieresis" unicode="Ü" horiz-adv-x="742" d="M69 674h159V303c0-122 50-191 142-191 94 0 144 66 144 191v371h159V308C673 89 555-12 363-12 183-12 69 81 69 311v363zm204 38h-1c-41 0-72 33-72 70 0 40 31 70 73 70 39 0 68-30 68-70 0-37-29-70-68-70zm215 0h-1c-41 0-70 33-70 70 0 40 30 70 71 70s70-30 70-70c0-37-29-70-70-70z"/><glyph glyph-name="Yacute" unicode="Ý" horiz-adv-x="670" d="M410 0H251v282L17 674h186l76-163c23-50 39-81 57-124h2c17 40 35 76 57 123l77 164h184L410 288V0zm-60 835h169L396 708H265z"/><glyph glyph-name="Thorn" unicode="Þ" horiz-adv-x="622" d="M69 0v674h158V550c21 3 45 5 96 5 88 0 152-19 198-56 41-34 67-85 67-144 0-164-121-231-282-231-37 0-64 3-79 5V0H69zm158 430V251c17-3 44-6 73-6 90 0 130 40 130 97 0 64-49 94-127 94-38 0-64-3-76-6z"/><glyph glyph-name="germandbls" unicode="ß" horiz-adv-x="635" d="M225 0H66v430c0 116 30 187 80 233 45 42 108 65 191 65 121 0 226-70 226-191 0-30-9-63-23-83-43-20-61-46-61-70 0-21 10-40 34-64 29-30 84-76 84-157 0-103-73-175-211-175-38 0-85 5-115 17l21 116c18-8 43-14 72-14 44 0 70 21 70 51 0 23-11 39-34 62-31 31-83 77-83 145 0 50 27 98 86 128 4 9 7 18 7 31 0 46-31 84-83 84-59 0-102-40-102-164V0z"/><glyph glyph-name="agrave" unicode="à" horiz-adv-x="564" d="M500 288V121c0-49 3-95 8-121H364l-9 49h-4c-34-40-88-61-151-61C93-12 33 63 33 138c0 127 114 190 308 190v5c0 21-11 61-97 61-53 0-112-19-146-39L69 455c36 21 106 46 202 46 168 0 229-93 229-213zM346 186v43c-93 1-155-20-155-75 0-36 25-56 65-56 42 0 77 29 87 61 2 8 3 18 3 27zM108 706h149l92-156H238z"/><glyph glyph-name="aacute" unicode="á" horiz-adv-x="564" d="M500 288V121c0-49 3-95 8-121H364l-9 49h-4c-34-40-88-61-151-61C93-12 33 63 33 138c0 127 114 190 308 190v5c0 21-11 61-97 61-53 0-112-19-146-39L69 455c36 21 106 46 202 46 168 0 229-93 229-213zM346 186v43c-93 1-155-20-155-75 0-36 25-56 65-56 42 0 77 29 87 61 2 8 3 18 3 27zm-47 520h149L318 550H207z"/><glyph glyph-name="acircumflex" unicode="â" horiz-adv-x="564" d="M500 288V121c0-49 3-95 8-121H364l-9 49h-4c-34-40-88-61-151-61C93-12 33 63 33 138c0 127 114 190 308 190v5c0 21-11 61-97 61-53 0-112-19-146-39L69 455c36 21 106 46 202 46 168 0 229-93 229-213zM346 186v43c-93 1-155-20-155-75 0-36 25-56 65-56 42 0 77 29 87 61 2 8 3 18 3 27zM224 706h106l104-156H332l-54 89h-2l-54-89H120z"/><glyph glyph-name="atilde" unicode="ã" horiz-adv-x="564" d="M500 288V121c0-49 3-95 8-121H364l-9 49h-4c-34-40-88-61-151-61C93-12 33 63 33 138c0 127 114 190 308 190v5c0 21-11 61-97 61-53 0-112-19-146-39L69 455c36 21 106 46 202 46 168 0 229-93 229-213zM346 186v43c-93 1-155-20-155-75 0-36 25-56 65-56 42 0 77 29 87 61 2 8 3 18 3 27zM197 557h-76c-4 92 33 137 86 137 25 0 47-10 67-22 18-10 33-20 45-20 17 0 23 10 27 47h74c4-96-30-134-86-134-31 0-51 12-74 24-19 11-26 16-38 16-15 0-23-15-25-48z"/><glyph glyph-name="adieresis" unicode="ä" horiz-adv-x="564" d="M500 288V121c0-49 3-95 8-121H364l-9 49h-4c-34-40-88-61-151-61C93-12 33 63 33 138c0 127 114 190 308 190v5c0 21-11 61-97 61-53 0-112-19-146-39L69 455c36 21 106 46 202 46 168 0 229-93 229-213zM346 186v43c-93 1-155-20-155-75 0-36 25-56 65-56 42 0 77 29 87 61 2 8 3 18 3 27zM173 556h-1c-43 0-75 33-75 72 0 42 33 73 76 73 39 0 70-31 70-73 0-39-31-72-70-72zm221 0h-2c-41 0-72 33-72 72 0 42 31 73 74 73 41 0 72-31 72-73 0-39-31-72-72-72z"/><glyph glyph-name="aring" unicode="å" horiz-adv-x="564" d="M500 288V121c0-49 3-95 8-121H364l-9 49h-4c-34-40-88-61-151-61C93-12 33 63 33 138c0 127 114 190 308 190v5c0 21-11 61-97 61-53 0-112-19-146-39L69 455c36 21 106 46 202 46 168 0 229-93 229-213zM346 186v43c-93 1-155-20-155-75 0-36 25-56 65-56 42 0 77 29 87 61 2 8 3 18 3 27zm-62 554h1c75 0 116-44 116-102 0-57-46-99-117-99-72 0-119 43-119 99 0 57 44 102 119 102zm0-52h-1c-29 0-46-23-46-50 0-24 19-47 46-47 29 0 48 21 48 48 0 26-19 49-47 49z"/><glyph glyph-name="ae" unicode="æ" horiz-adv-x="859" d="M825 200H490c4-52 57-94 141-94 68 0 109 11 152 28l22-106C747-2 675-12 609-12c-86 0-162 32-197 89h-4c-40-52-103-89-195-89C97-12 33 60 33 141c0 120 117 184 311 183v14c0 6-12 55-99 55-57 0-111-20-144-40l-32 99c36 19 103 49 184 49 86 0 141-29 173-80h3c40 49 101 80 178 80 162 0 222-137 222-246 0-20-3-45-4-55zm-476-16v44c-95 1-157-23-157-74 0-36 29-56 67-56 44 0 72 27 85 55 4 8 5 19 5 31zm140 124h193c1 24-13 91-93 91-71 0-99-58-100-91z"/><glyph glyph-name="ccedilla" unicode="ç" horiz-adv-x="493" d="M445 129l20-116c-25-12-70-23-123-25l-18-33c38-10 74-34 74-83 0-72-65-95-122-95-31 0-65 5-90 20l20 63c15-8 39-14 58-14 21 0 38 7 38 26s-24 30-83 37l40 83C120 9 34 104 34 240c0 140 101 261 299 261 43 0 92-7 131-21l-26-117c-21 10-51 18-97 18-87 0-144-56-143-134 0-91 69-136 146-136 42 0 74 7 101 18z"/><glyph glyph-name="egrave" unicode="è" horiz-adv-x="564" d="M528 195H186c5-59 74-89 149-89 56 0 102 6 149 22l21-106C449-1 385-12 313-12 137-12 34 88 34 240c0 110 75 261 264 261 177 0 236-137 236-249 0-23-3-47-6-57zM184 303h201c0 28-16 95-95 95-72 0-101-57-106-95zm-55 403h149l92-156H259z"/><glyph glyph-name="eacute" unicode="é" horiz-adv-x="564" d="M528 195H186c5-59 74-89 149-89 56 0 102 6 149 22l21-106C449-1 385-12 313-12 137-12 34 88 34 240c0 110 75 261 264 261 177 0 236-137 236-249 0-23-3-47-6-57zM184 303h201c0 28-16 95-95 95-72 0-101-57-106-95zm135 403h149L338 550H227z"/><glyph glyph-name="ecircumflex" unicode="ê" horiz-adv-x="564" d="M528 195H186c5-59 74-89 149-89 56 0 102 6 149 22l21-106C449-1 385-12 313-12 137-12 34 88 34 240c0 110 75 261 264 261 177 0 236-137 236-249 0-23-3-47-6-57zM184 303h201c0 28-16 95-95 95-72 0-101-57-106-95zm55 403h106l104-156H347l-54 89h-2l-54-89H135z"/><glyph glyph-name="edieresis" unicode="ë" horiz-adv-x="564" d="M528 195H186c5-59 74-89 149-89 56 0 102 6 149 22l21-106C449-1 385-12 313-12 137-12 34 88 34 240c0 110 75 261 264 261 177 0 236-137 236-249 0-23-3-47-6-57zM184 303h201c0 28-16 95-95 95-72 0-101-57-106-95zm5 253h-1c-43 0-75 33-75 72 0 42 33 73 76 73 39 0 70-31 70-73 0-39-31-72-70-72zm221 0h-2c-41 0-72 33-72 72 0 42 31 73 74 73 41 0 72-31 72-73 0-39-31-72-72-72z"/><glyph glyph-name="igrave" unicode="ì" horiz-adv-x="291" d="M225 0H66v489h159V0zM-33 706h149l92-156H97z"/><glyph glyph-name="iacute" unicode="í" horiz-adv-x="291" d="M225 0H66v489h159V0zm-57 706h149L187 550H76z"/><glyph glyph-name="icircumflex" unicode="î" horiz-adv-x="291" d="M225 0H66v489h159V0zM93 706h106l104-156H201l-54 89h-2l-54-89H-11z"/><glyph glyph-name="idieresis" unicode="ï" horiz-adv-x="291" d="M225 0H66v489h159V0zM37 556h-1c-43 0-75 33-75 72 0 42 33 73 76 73 39 0 70-31 70-73 0-39-31-72-70-72zm221 0h-2c-41 0-72 33-72 72 0 42 31 73 74 73 41 0 72-31 72-73 0-39-31-72-72-72z"/><glyph glyph-name="eth" unicode="ð" horiz-adv-x="622" d="M310 100h1c69 0 110 53 110 142 0 55-9 85-28 103s-46 29-80 29c-84 0-113-76-113-138 0-74 40-136 110-136zM115 469l-27 66 113 48c-34 19-69 33-105 46l63 92c62-19 126-50 182-84l153 64 31-64-114-46c58-44 104-97 135-159 27-52 41-110 41-176C587 81 456-12 311-12 158-12 34 84 34 235c0 140 116 235 259 235 26 0 50-5 77-24l2 3c-28 33-59 62-98 86z"/><glyph glyph-name="ntilde" unicode="ñ" horiz-adv-x="628" d="M66 0v330c0 63-2 116-4 159h138l7-71h4c18 29 70 83 162 83 102 0 190-64 190-219V0H404v259c0 71-27 115-87 115-49 0-76-34-87-62-4-9-5-23-5-35V0H66zm175 557h-76c-4 92 33 137 86 137 25 0 47-10 67-22 18-10 33-20 45-20 17 0 23 10 27 47h74c4-96-30-134-86-134-31 0-51 12-74 24-19 11-26 16-38 16-15 0-23-15-25-48z"/><glyph glyph-name="ograve" unicode="ò" horiz-adv-x="625" d="M310-12h-1C158-12 34 83 34 240c0 152 108 261 286 261 161 0 271-105 271-251C591 80 460-12 310-12zm3 112h1c65 0 111 52 111 145 0 74-33 144-111 144-81 0-114-71-114-145 0-83 43-144 113-144zM150 706h149l92-156H280z"/><glyph glyph-name="oacute" unicode="ó" horiz-adv-x="625" d="M310-12h-1C158-12 34 83 34 240c0 152 108 261 286 261 161 0 271-105 271-251C591 80 460-12 310-12zm3 112h1c65 0 111 52 111 145 0 74-33 144-111 144-81 0-114-71-114-145 0-83 43-144 113-144zm17 606h149L349 550H238z"/><glyph glyph-name="ocircumflex" unicode="ô" horiz-adv-x="625" d="M310-12h-1C158-12 34 83 34 240c0 152 108 261 286 261 161 0 271-105 271-251C591 80 460-12 310-12zm3 112h1c65 0 111 52 111 145 0 74-33 144-111 144-81 0-114-71-114-145 0-83 43-144 113-144zm-53 606h106l104-156H368l-54 89h-2l-54-89H156z"/><glyph glyph-name="otilde" unicode="õ" horiz-adv-x="625" d="M310-12h-1C158-12 34 83 34 240c0 152 108 261 286 261 161 0 271-105 271-251C591 80 460-12 310-12zm3 112h1c65 0 111 52 111 145 0 74-33 144-111 144-81 0-114-71-114-145 0-83 43-144 113-144zm-73 457h-76c-4 92 33 137 86 137 25 0 47-10 67-22 18-10 33-20 45-20 17 0 23 10 27 47h74c4-96-30-134-86-134-31 0-51 12-74 24-19 11-26 16-38 16-15 0-23-15-25-48z"/><glyph glyph-name="odieresis" unicode="ö" horiz-adv-x="625" d="M310-12h-1C158-12 34 83 34 240c0 152 108 261 286 261 161 0 271-105 271-251C591 80 460-12 310-12zm3 112h1c65 0 111 52 111 145 0 74-33 144-111 144-81 0-114-71-114-145 0-83 43-144 113-144zM204 556h-1c-43 0-75 33-75 72 0 42 33 73 76 73 39 0 70-31 70-73 0-39-31-72-70-72zm221 0h-2c-41 0-72 33-72 72 0 42 31 73 74 73 41 0 72-31 72-73 0-39-31-72-72-72z"/><glyph glyph-name="divide" unicode="÷" horiz-adv-x="596" d="M298 365h-1c-45 0-76 32-76 78 0 49 31 79 78 79 46 0 76-30 77-79 0-46-31-78-78-78zm258-147H41v97h515v-97zM298 11h-1c-45 0-76 32-76 78 0 49 31 79 78 79 46 0 76-30 77-79 0-46-31-78-78-78z"/><glyph glyph-name="oslash" unicode="ø" horiz-adv-x="625" d="M312 501h1c47 0 91-9 129-27l51 73 52-39-48-66c60-44 94-112 94-196C591 82 459-12 313-12c-44 0-88 8-125 26l-54-75-49 41 47 64C71 88 34 155 34 243c0 147 108 258 278 258zm-99-340l158 213c-17 9-37 15-59 15-87 0-123-72-123-145 0-30 6-61 22-83h2zm201 164L257 115c16-12 36-15 55-15 75 0 124 54 124 145 0 25-5 55-20 79z"/><glyph glyph-name="ugrave" unicode="ù" horiz-adv-x="627" d="M561 489V159c0-67 2-120 4-159H427l-7 75h-3c-18-30-66-87-167-87S65 48 65 204v285h159V232c0-74 26-117 86-117 48 0 76 33 87 60 4 9 5 19 5 29v285h159zM144 706h149l92-156H274z"/><glyph glyph-name="uacute" unicode="ú" horiz-adv-x="627" d="M561 489V159c0-67 2-120 4-159H427l-7 75h-3c-18-30-66-87-167-87S65 48 65 204v285h159V232c0-74 26-117 86-117 48 0 76 33 87 60 4 9 5 19 5 29v285h159zM338 706h149L357 550H246z"/><glyph glyph-name="ucircumflex" unicode="û" horiz-adv-x="627" d="M561 489V159c0-67 2-120 4-159H427l-7 75h-3c-18-30-66-87-167-87S65 48 65 204v285h159V232c0-74 26-117 86-117 48 0 76 33 87 60 4 9 5 19 5 29v285h159zM261 706h106l104-156H369l-54 89h-2l-54-89H157z"/><glyph glyph-name="udieresis" unicode="ü" horiz-adv-x="627" d="M561 489V159c0-67 2-120 4-159H427l-7 75h-3c-18-30-66-87-167-87S65 48 65 204v285h159V232c0-74 26-117 86-117 48 0 76 33 87 60 4 9 5 19 5 29v285h159zm-353 67h-1c-43 0-75 33-75 72 0 42 33 73 76 73 39 0 70-31 70-73 0-39-31-72-70-72zm221 0h-2c-41 0-72 33-72 72 0 42 31 73 74 73 41 0 72-31 72-73 0-39-31-72-72-72z"/><glyph glyph-name="yacute" unicode="ý" horiz-adv-x="567" d="M7 489h178l81-236c9-29 20-69 28-94h3c8 27 17 66 25 95l67 235h174L445 185C359-43 308-115 252-159c-56-45-114-60-158-64L63-90c19 3 42 9 67 21 25 11 54 37 70 62 5 8 9 16 9 22s-1 14-8 28zm317 217h149L343 550H232z"/><glyph glyph-name="thorn" unicode="þ" horiz-adv-x="648" d="M66 678h159V429h2c32 42 87 72 163 72 107 3 224-80 224-251C614 67 480-12 370-12c-65 0-114 23-143 59h-2v-247H66v878zm159-404v-68c0-12 6-34 16-47 17-28 51-51 92-51 69 0 118 50 118 139 0 71-42 132-113 132-45 0-83-21-102-61-5-11-11-31-11-44z"/><glyph glyph-name="ydieresis" unicode="ÿ" horiz-adv-x="567" d="M7 489h178l81-236c9-29 20-69 28-94h3c8 27 17 66 25 95l67 235h174L445 185C359-43 308-115 252-159c-56-45-114-60-158-64L63-90c19 3 42 9 67 21 25 11 54 37 70 62 5 8 9 16 9 22s-1 14-8 28zm182 67h-1c-43 0-75 33-75 72 0 42 33 73 76 73 39 0 70-31 70-73 0-39-31-72-70-72zm221 0h-2c-41 0-72 33-72 72 0 42 31 73 74 73 41 0 72-31 72-73 0-39-31-72-72-72z"/><glyph glyph-name="Amacron" unicode="Ā" horiz-adv-x="722" d="M460 180H242L189 0H21l225 674h214L696 0H520zM267 297h167l-49 144c-13 39-26 84-37 122h-2c-11-38-21-83-33-122zm-45 518h267v-82H222v82z"/><glyph glyph-name="amacron" unicode="ā" horiz-adv-x="564" d="M500 288V121c0-49 3-95 8-121H364l-9 49h-4c-34-40-88-61-151-61C93-12 33 63 33 138c0 127 114 190 308 190v5c0 21-11 61-97 61-53 0-112-19-146-39L69 455c36 21 106 46 202 46 168 0 229-93 229-213zM346 186v43c-93 1-155-20-155-75 0-36 25-56 65-56 42 0 77 29 87 61 2 8 3 18 3 27zM151 669h263v-87H151v87z"/><glyph glyph-name="Abreve" unicode="Ă" horiz-adv-x="722" d="M460 180H242L189 0H21l225 674h214L696 0H520zM267 297h167l-49 144c-13 39-26 84-37 122h-2c-11-38-21-83-33-122zm-56 541h84c4-22 17-47 62-47s61 23 67 47h80c-2-74-46-130-147-130-104 0-144 56-146 130z"/><glyph glyph-name="abreve" unicode="ă" horiz-adv-x="564" d="M500 288V121c0-49 3-95 8-121H364l-9 49h-4c-34-40-88-61-151-61C93-12 33 63 33 138c0 127 114 190 308 190v5c0 21-11 61-97 61-53 0-112-19-146-39L69 455c36 21 106 46 202 46 168 0 229-93 229-213zM346 186v43c-93 1-155-20-155-75 0-36 25-56 65-56 42 0 77 29 87 61 2 8 3 18 3 27zM137 697h84c5-37 23-64 61-64 42 0 60 31 62 64h84c-2-88-50-148-146-148-100 0-143 64-145 148z"/><glyph glyph-name="Aogonek" unicode="Ą" horiz-adv-x="722" d="M460 674L695 0l-92-1c-7-13-24-38-24-64 0-35 25-60 59-60 19 0 35 4 45 8l23-72c-27-22-72-34-106-34-71 0-118 34-118 110 0 46 26 95 37 114l-59 179H242L188 0H20l226 674h214zM267 297h167l-49 144c-13 39-26 84-38 122h-2c-11-38-21-83-33-122z"/><glyph glyph-name="aogonek" unicode="ą" horiz-adv-x="564" d="M500 288V121c0-50 3-95 7-121h-60c-8-16-19-43-19-68 0-37 20-55 50-55 18 0 32 4 46 11l24-73c-35-27-74-38-112-38-58 0-105 34-105 104 0 52 22 97 33 120l-9 48h-4c-34-40-88-61-151-61C93-12 33 63 33 138c0 127 114 190 308 190v5c0 21-11 61-97 61-53 0-112-19-146-39L69 455c36 21 106 46 202 46 168 0 229-93 229-213zM346 186v43c-93 1-155-20-155-75 0-36 25-56 65-56 42 0 77 29 87 61 2 8 3 18 3 27z"/><glyph glyph-name="Cacute" unicode="Ć" horiz-adv-x="662" d="M595 144l26-123C591 6 518-12 425-12 171-12 38 135 38 327c0 222 173 359 400 359 91 0 160-18 191-34l-34-124c-35 15-87 29-150 29-136 0-239-76-239-220 0-127 86-219 240-219 55 0 114 11 149 26zM411 838h169L457 711H326z"/><glyph glyph-name="cacute" unicode="ć" horiz-adv-x="493" d="M444 129l21-115c-32-15-90-26-154-26C141-12 34 88 34 240c0 140 101 261 298 261 43 0 93-7 131-21l-26-117c-21 10-51 18-97 18-86 0-143-56-142-134 0-91 68-136 146-136 42 0 74 7 100 18zM312 706h149L331 550H220z"/><glyph glyph-name="Ccircumflex" unicode="Ĉ" horiz-adv-x="662" d="M595 144l26-123C591 6 518-12 425-12 171-12 38 135 38 327c0 222 173 359 400 359 91 0 160-18 191-34l-34-124c-35 15-87 29-150 29-136 0-239-76-239-220 0-127 86-219 240-219 55 0 114 11 149 26zM336 842h117l107-127H449l-54 66h-2l-53-66H229z"/><glyph glyph-name="ccircumflex" unicode="ĉ" horiz-adv-x="493" d="M444 129l21-115c-32-15-90-26-154-26C141-12 34 88 34 240c0 140 101 261 298 261 43 0 93-7 131-21l-26-117c-21 10-51 18-97 18-86 0-143-56-142-134 0-91 68-136 146-136 42 0 74 7 100 18zM232 706h106l104-156H340l-54 89h-2l-54-89H128z"/><glyph glyph-name="Cdotaccent" unicode="Ċ" horiz-adv-x="662" d="M595 144l26-123C591 6 518-12 425-12 171-12 38 135 38 327c0 222 173 359 400 359 91 0 160-18 191-34l-34-124c-35 15-87 29-150 29-136 0-239-76-239-220 0-127 86-219 240-219 55 0 114 11 149 26zM396 712h-1c-41 0-72 33-72 70 0 39 31 70 73 70 39 0 68-31 68-70 0-37-29-70-68-70z"/><glyph glyph-name="cdotaccent" unicode="ċ" horiz-adv-x="493" d="M444 129l21-115c-32-15-90-26-154-26C141-12 34 88 34 240c0 140 101 261 298 261 43 0 93-7 131-21l-26-117c-21 10-51 18-97 18-86 0-143-56-142-134 0-91 68-136 146-136 42 0 74 7 100 18zM304 556h-1c-42 0-74 34-74 73 0 42 32 73 75 73 41 0 71-31 71-73 0-39-30-73-71-73z"/><glyph glyph-name="Ccaron" unicode="Č" horiz-adv-x="662" d="M595 144l26-123C591 6 518-12 425-12 171-12 38 135 38 327c0 222 173 359 400 359 91 0 160-18 191-34l-34-124c-35 15-87 29-150 29-136 0-239-76-239-220 0-127 86-219 240-219 55 0 114 11 149 26zM453 711H336L229 838h111l54-65h2l53 65h111z"/><glyph glyph-name="ccaron" unicode="č" horiz-adv-x="493" d="M444 129l21-115c-32-15-90-26-154-26C141-12 34 88 34 240c0 140 101 261 298 261 43 0 93-7 131-21l-26-117c-21 10-51 18-97 18-86 0-143-56-142-134 0-91 68-136 146-136 42 0 74 7 100 18zm-99 421H239L135 706h102l54-90h2l54 90h102z"/><glyph glyph-name="Dcaron" unicode="Ď" horiz-adv-x="765" d="M69 3v662c64 10 145 15 229 15 143 0 235-25 307-76 74-52 122-132 122-248 0-127-50-214-117-269C531 22 408-8 263-8 172-8 110-3 69 3zm159 549V118c15-3 41-3 63-3 164-2 267 80 267 233 0 141-97 211-246 211-42 0-69-4-84-7zm187 159H298L191 838h111l54-65h2l53 65h111z"/><glyph glyph-name="dcaron" unicode="ď" horiz-adv-x="655" d="M420 716h159V147c0-59 2-118 4-147H441l-7 77h-2c-35-61-101-89-170-89C143-12 34 82 34 239c-1 162 112 262 240 262 66 0 119-22 144-57h2v272zm0-484v43c0 8 0 19-2 27-10 44-49 80-102 80-78 0-119-60-119-136 0-79 46-132 118-132 52 0 93 37 102 83 3 11 3 23 3 35zm269 264l-70 42c15 27 27 68 27 106 0 25-8 51-18 69l101 18c16-12 31-45 31-76 0-95-55-146-71-159z"/><glyph glyph-name="Dcroat" unicode="Đ" horiz-adv-x="775" d="M4 277v129h75v262c64 10 145 15 229 15 143 0 234-22 306-74 74-52 122-137 122-252 0-129-50-217-117-273-79-65-202-95-346-95-91 0-153 5-194 11v277H4zm388 129V277H238V115c15-3 41-3 63-3 166 0 266 79 266 237 0 149-96 213-245 213-42 0-69-4-84-7V406h154z"/><glyph glyph-name="dcroat" unicode="đ" horiz-adv-x="645" d="M666 542h-87V147c0-59 2-118 4-147H441l-7 77h-2c-35-61-101-89-170-89C143-12 34 82 34 239c-1 162 112 262 240 262 66 0 119-22 144-57h2v98H222v84h198v90h159v-90h87v-84zM420 232v43c0 8 0 19-2 27-10 44-49 80-102 80-78 0-119-60-119-136 0-79 46-132 118-132 52 0 93 37 102 83 3 11 3 23 3 35z"/><glyph glyph-name="Emacron" unicode="Ē" horiz-adv-x="580" d="M507 410V281H228V129h312V0H69v674h455V545H228V410h279zM161 815h267v-82H161v82z"/><glyph glyph-name="emacron" unicode="ē" horiz-adv-x="564" d="M528 195H186c5-59 74-89 149-89 56 0 102 6 149 22l21-106C449-1 385-12 313-12 137-12 34 88 34 240c0 110 75 261 264 261 177 0 236-137 236-249 0-23-3-47-6-57zM184 303h201c0 28-16 95-95 95-72 0-101-57-106-95zm-29 366h263v-87H155v87z"/><glyph glyph-name="Ebreve" unicode="Ĕ" horiz-adv-x="580" d="M507 410V281H228V129h312V0H69v674h455V545H228V410h279zM152 840h84c4-22 17-47 62-47s61 23 67 47h80c-2-74-46-130-147-130-104 0-144 56-146 130z"/><glyph glyph-name="ebreve" unicode="ĕ" horiz-adv-x="564" d="M528 195H186c5-59 74-89 149-89 56 0 102 6 149 22l21-106C449-1 385-12 313-12 137-12 34 88 34 240c0 110 75 261 264 261 177 0 236-137 236-249 0-23-3-47-6-57zM184 303h201c0 28-16 95-95 95-72 0-101-57-106-95zm-43 394h84c5-37 23-64 61-64 42 0 60 31 62 64h84c-2-88-50-148-146-148-100 0-143 64-145 148z"/><glyph glyph-name="Edotaccent" unicode="Ė" horiz-adv-x="580" d="M507 410V281H228V129h312V0H69v674h455V545H228V410h279zM293 712h-1c-41 0-72 33-72 70 0 39 31 70 73 70 39 0 68-31 68-70 0-37-29-70-68-70z"/><glyph glyph-name="edotaccent" unicode="ė" horiz-adv-x="564" d="M528 195H186c5-59 74-89 149-89 56 0 102 6 149 22l21-106C449-1 385-12 313-12 137-12 34 88 34 240c0 110 75 261 264 261 177 0 236-137 236-249 0-23-3-47-6-57zM184 303h201c0 28-16 95-95 95-72 0-101-57-106-95zm105 253h-1c-42 0-74 34-74 73 0 42 32 73 75 73 41 0 71-31 71-73 0-39-30-73-71-73z"/><glyph glyph-name="Eogonek" unicode="Ę" horiz-adv-x="580" d="M523-116l23-73c-28-21-66-34-112-34-67 0-109 34-109 95 0 60 41 106 72 128H69v674h456V545H228V410h280V281H228V129h312V0h-28c-31-19-70-58-70-93 0-19 15-32 38-32 13 0 28 3 43 9z"/><glyph glyph-name="eogonek" unicode="ę" horiz-adv-x="564" d="M452-116l23-73c-27-21-67-34-111-34-63 0-105 32-105 87s41 101 67 124v1c-5-1-10-1-16-1C137-12 34 88 34 240c0 110 75 261 264 261 177 0 236-137 236-249 0-23-3-47-6-57H186c5-59 74-89 149-89 56 0 102 6 149 22l21-106c-15-7-31-12-44-16-32-13-89-61-89-97 0-24 18-34 36-34 13 0 29 3 44 9zM184 303h201c0 28-16 95-95 95-72 0-101-57-106-95z"/><glyph glyph-name="Ecaron" unicode="Ě" horiz-adv-x="580" d="M507 410V281H228V129h312V0H69v674h455V545H228V410h279zM351 710H234L127 837h111l54-65h2l53 65h111z"/><glyph glyph-name="ecaron" unicode="ě" horiz-adv-x="564" d="M528 195H186c5-59 74-89 149-89 56 0 102 6 149 22l21-106C449-1 385-12 313-12 137-12 34 88 34 240c0 110 75 261 264 261 177 0 236-137 236-249 0-23-3-47-6-57zM184 303h201c0 28-16 95-95 95-72 0-101-57-106-95zm155 247H233L129 706h102l54-90h2l54 90h102z"/><glyph glyph-name="Gcircumflex" unicode="Ĝ" horiz-adv-x="752" d="M695 390V36C642 18 544-7 442-7 303-7 204 27 136 91c-63 60-98 144-98 238 0 216 171 352 418 352 99 0 176-19 213-37l-35-125c-43 18-95 33-183 33-140 0-245-74-245-210 0-132 96-222 242-222 42 0 77 5 91 11v136H420v123h275zM350 842h117l107-127H463l-54 66h-2l-53-66H243z"/><glyph glyph-name="gcircumflex" unicode="ĝ" horiz-adv-x="630" d="M564 347V77c0-90-19-175-79-227-60-50-140-62-212-62-71 0-147 15-194 42l33 120c32-20 94-42 157-42 74 0 139 37 139 133v32h-2C373 30 322 5 259 5 135 5 34 96 34 244c0 156 111 257 241 257 77 0 122-32 149-73h2l4 61h138c-2-27-4-65-4-142zM405 231v52c0 9-1 18-2 26-12 46-46 76-95 76-59 0-111-46-111-138 0-66 39-127 111-127 47 0 83 32 93 70 3 12 4 28 4 41zM262 707h106l104-156H370l-54 89h-2l-54-89H158z"/><glyph glyph-name="Gbreve" unicode="Ğ" horiz-adv-x="752" d="M695 390V36C642 18 544-7 442-7 303-7 204 27 136 91c-63 60-98 144-98 238 0 216 171 352 418 352 99 0 176-19 213-37l-35-125c-43 18-95 33-183 33-140 0-245-74-245-210 0-132 96-222 242-222 42 0 77 5 91 11v136H420v123h275zM265 847h84c4-22 17-47 62-47s61 23 67 47h80c-2-74-46-130-147-130-104 0-144 56-146 130z"/><glyph glyph-name="gbreve" unicode="ğ" horiz-adv-x="630" d="M564 347V77c0-90-19-175-79-227-60-50-140-62-212-62-71 0-147 15-194 42l33 120c32-20 94-42 157-42 74 0 139 37 139 133v32h-2C373 30 322 5 259 5 135 5 34 96 34 244c0 156 111 257 241 257 77 0 122-32 149-73h2l4 61h138c-2-27-4-65-4-142zM405 231v52c0 9-1 18-2 26-12 46-46 76-95 76-59 0-111-46-111-138 0-66 39-127 111-127 47 0 83 32 93 70 3 12 4 28 4 41zM167 697h84c5-37 23-64 61-64 42 0 60 31 62 64h84c-2-88-50-148-146-148-100 0-143 64-145 148z"/><glyph glyph-name="Gdotaccent" unicode="Ġ" horiz-adv-x="752" d="M695 390V36C642 18 544-7 442-7 303-7 204 27 136 91c-63 60-98 144-98 238 0 216 171 352 418 352 99 0 176-19 213-37l-35-125c-43 18-95 33-183 33-140 0-245-74-245-210 0-132 96-222 242-222 42 0 77 5 91 11v136H420v123h275zM412 712h-1c-41 0-72 33-72 70 0 39 31 70 73 70 39 0 68-31 68-70 0-37-29-70-68-70z"/><glyph glyph-name="gdotaccent" unicode="ġ" horiz-adv-x="630" d="M564 347V77c0-90-19-175-79-227-60-50-140-62-212-62-71 0-147 15-194 42l33 120c32-20 94-42 157-42 74 0 139 37 139 133v32h-2C373 30 322 5 259 5 135 5 34 96 34 244c0 156 111 257 241 257 77 0 122-32 149-73h2l4 61h138c-2-27-4-65-4-142zM405 231v52c0 9-1 18-2 26-12 46-46 76-95 76-59 0-111-46-111-138 0-66 39-127 111-127 47 0 83 32 93 70 3 12 4 28 4 41zm-94 326h-1c-42 0-74 34-74 73 0 42 32 73 75 73 41 0 71-31 71-73 0-39-30-73-71-73z"/><glyph glyph-name="Gcommaaccent" unicode="Ģ" horiz-adv-x="752" d="M695 390V36C642 18 544-7 442-7 303-7 204 27 136 91c-63 60-98 144-98 238 0 216 171 352 418 352 99 0 176-19 213-37l-35-125c-43 18-95 33-183 33-140 0-245-74-245-210 0-132 96-222 242-222 42 0 77 5 91 11v136H420v123h275zM315-247l-23 66c35 7 68 28 68 64 0 23-15 44-28 59l109 20c20-16 39-47 39-82 0-87-74-126-165-127z"/><glyph glyph-name="gcommaaccent" unicode="ģ" horiz-adv-x="630" d="M564 347V77c0-90-19-175-79-227-60-50-140-62-212-62-71 0-147 15-194 42l33 120c32-20 94-42 158-42 73 0 138 37 138 133v32h-2C373 30 322 5 259 5 135 5 34 96 34 244c0 156 111 257 241 257 77 0 122-32 149-73h2l4 61h138c-2-27-4-65-4-142zM405 231v52c0 9-1 18-2 26-12 46-47 76-95 76-58 0-111-46-111-138 0-66 39-127 111-127 47 0 83 32 93 70 3 12 4 28 4 41zm-17 493l24-55c-42-6-75-25-75-61 0-20 15-39 28-53l-102-16c-21 13-40 41-40 71 0 78 74 113 165 114z"/><glyph glyph-name="Hcircumflex" unicode="Ĥ" horiz-adv-x="746" d="M69 674h159V417h290v257h159V0H518v281H228V0H69v674zm246 163h117l107-127H428l-54 66h-2l-53-66H208z"/><glyph glyph-name="hcircumflex" unicode="ĥ" horiz-adv-x="628" d="M66 0v716h159V428h2c17 23 40 41 66 53 24 13 54 20 83 20 100 0 187-64 187-219V0H404v259c0 71-27 115-89 115-47 0-74-30-85-56-5-10-5-21-5-32V0H66zm28 864h117l107-127H207l-54 66h-2l-53-66H-13z"/><glyph glyph-name="Hbar" unicode="Ħ" horiz-adv-x="762" d="M756 472h-71V0H526v253H236V0H77v472H6v90h71v112h159V562h290v112h159V562h71v-90zm-230-83v83H236v-83h290z"/><glyph glyph-name="hbar" unicode="ħ" horiz-adv-x="628" d="M563 0H404v259c0 71-27 115-89 115-47 0-74-30-85-56-5-10-5-21-5-32V0H66v542h-84v84h84v90h159v-90h200v-84H225V428h2c17 23 40 40 66 53 24 12 54 20 83 20 100 0 187-64 187-219V0z"/><glyph glyph-name="Itilde" unicode="Ĩ" horiz-adv-x="298" d="M69 674h159V0H69v674zm6 39H2c-3 88 30 132 80 132 28 0 48-10 68-21 18-10 34-20 47-20 17 0 24 10 28 44h72c2-91-28-127-82-127-29 0-50 9-69 19s-32 19-46 19c-13 0-23-15-25-46z"/><glyph glyph-name="itilde" unicode="ĩ" horiz-adv-x="291" d="M225 0H66v489h159V0zM73 557H-3c-4 92 33 137 86 137 25 0 47-10 67-22 18-10 33-20 45-20 17 0 23 10 27 47h74c4-96-30-134-86-134-31 0-51 12-74 24-19 11-26 16-38 16-15 0-23-15-25-48z"/><glyph glyph-name="Imacron" unicode="Ī" horiz-adv-x="298" d="M69 674h159V0H69v674zM16 815h267v-82H16v82z"/><glyph glyph-name="imacron" unicode="ī" horiz-adv-x="291" d="M225 0H66v489h159V0zM15 669h263v-87H15v87z"/><glyph glyph-name="Ibreve" unicode="Ĭ" horiz-adv-x="298" d="M69 674h159V0H69v674zM2 843h84c4-22 17-47 62-47s61 23 67 47h80c-2-74-46-130-147-130C44 713 4 769 2 843z"/><glyph glyph-name="ibreve" unicode="ĭ" horiz-adv-x="291" d="M225 0H66v489h159V0zM1 697h84c5-37 23-64 61-64 42 0 60 31 62 64h84c-2-88-50-148-146-148C46 549 3 613 1 697z"/><glyph glyph-name="Iogonek" unicode="Į" horiz-adv-x="298" d="M228 674V0h-74c-8-15-21-41-21-65 0-36 25-61 59-61 20 0 35 4 45 8l24-72c-28-22-73-34-107-34-70 0-117 34-117 110C37-68 61-19 69 0v674h159z"/><glyph glyph-name="iogonek" unicode="į" horiz-adv-x="291" d="M146 552h-1c-55 0-88 37-88 81 0 45 34 81 89 81s89-36 89-81c0-44-33-81-89-81zm79-63V0h-74c-8-15-21-41-21-65 0-36 25-61 59-61 20 0 35 4 45 8l24-72c-28-22-73-34-107-34-71 0-118 34-118 110C33-68 57-19 66 0v489h159z"/><glyph glyph-name="Idotaccent" unicode="İ" horiz-adv-x="298" d="M69 674h159V0H69v674zm83 38h-1c-41 0-72 33-72 70 0 39 31 70 73 70 39 0 68-31 68-70 0-37-29-70-68-70z"/><glyph glyph-name="dotlessi" unicode="ı" horiz-adv-x="291" d="M225 0H66v489h159V0z"/><glyph glyph-name="IJ" unicode="Ĳ" horiz-adv-x="747" d="M69 674h159V0H69v674zm455-411v411h159V258c0-190-91-270-256-270-39 0-92 6-127 18l19 127c24-8 56-14 90-14 72 0 115 33 115 144z"/><glyph glyph-name="ij" unicode="ĳ" horiz-adv-x="605" d="M225 0H66v489h159V0zm-79 550h-1c-52 0-84 35-84 77 0 44 32 78 85 78s84-34 85-78c0-42-32-77-85-77zm122-770L252-96c45 3 78 14 98 34 23 24 33 64 33 169v382h159V66c0-105-23-175-70-220-48-46-123-66-204-66zm194 770h-1c-52 0-84 35-84 77 0 44 32 78 85 78s84-34 85-78c0-42-32-77-85-77z"/><glyph glyph-name="Jcircumflex" unicode="Ĵ" horiz-adv-x="449" d="M226 263v411h159V258c0-190-91-270-256-270C90-12 37-6 2 6l19 127c24-8 56-14 90-14 72 0 115 33 115 144zm19 574h117l107-127H358l-54 66h-2l-53-66H138z"/><glyph glyph-name="jcircumflex" unicode="ĵ" horiz-adv-x="314" d="M-23-220L-39-96c45 3 78 14 98 34C82-38 92 2 92 107v382h159V66c0-105-23-175-70-220-48-46-123-66-204-66zm132 924h105l104-156H216l-53 90h-2l-54-90H5z"/><glyph glyph-name="Kcommaaccent" unicode="Ķ" horiz-adv-x="666" d="M69 0v674h158V378h2c16 24 34 47 51 69l174 227h201L408 389 670 0H482L293 294l-66-75V0H69zm194-247l-23 66c35 7 68 28 68 64 0 23-15 44-28 59l109 20c20-16 39-47 39-82 0-87-74-126-165-127z"/><glyph glyph-name="kcommaaccent" unicode="ķ" horiz-adv-x="586" d="M225 716V285h2l39 56 111 148h196L379 293 604 0H404L269 201l-44-51V0H66v716h159zm-2-964l-23 67c35 6 68 28 68 64 0 23-15 44-28 59l109 20c20-16 39-47 39-82 0-87-74-126-165-128z"/><glyph glyph-name="kgreenlandic" unicode="ĸ" horiz-adv-x="586" d="M225 489V285h2l39 56 111 148h196L379 293 604 0H404L269 201l-44-51V0H66v489h159z"/><glyph glyph-name="Lacute" unicode="Ĺ" horiz-adv-x="555" d="M69 0v674h159V133h300V0H69zm99 837h169L214 710H83z"/><glyph glyph-name="lacute" unicode="ĺ" horiz-adv-x="291" d="M66 0v716h159V0H66zm83 872h169L195 745H64z"/><glyph glyph-name="Lcommaaccent" unicode="Ļ" horiz-adv-x="555" d="M69 0v674h159V133h300V0H69zm142-247l-23 66c35 7 68 28 68 64 0 23-15 44-28 59l109 20c20-16 39-47 39-82 0-87-74-126-165-127z"/><glyph glyph-name="lcommaaccent" unicode="ļ" horiz-adv-x="291" d="M66 0v716h159V0H66zm-5-248l-23 67c35 6 68 28 68 64 0 23-15 44-28 59l109 20c20-16 39-47 39-82 0-87-74-126-165-128z"/><glyph glyph-name="Lcaron" unicode="Ľ" horiz-adv-x="555" d="M69 0v674h159V133h300V0H69zm245 483l-23 66c35 7 68 28 68 64 0 23-15 44-28 59l109 20c20-16 39-47 39-82 0-87-74-126-165-127z"/><glyph glyph-name="lcaron" unicode="ľ" horiz-adv-x="302" d="M66 0v716h159V0H66zm274 497l-78 42c15 31 27 67 27 106 0 24-8 50-18 68l101 18c16-12 31-45 31-82 0-89-47-135-63-152z"/><glyph glyph-name="Ldot" unicode="Ŀ" horiz-adv-x="555" d="M69 0v674h159V133h300V0H69zm346 313h-1c-41 0-72 33-72 70 0 39 31 70 73 70 39 0 68-31 68-70 0-37-29-70-68-70z"/><glyph glyph-name="ldot" unicode="ŀ" horiz-adv-x="364" d="M66 0v716h159V0H66zm265 322h-1c-39 0-68 33-68 70 0 40 30 70 69 70 36 0 64-30 64-70 0-37-28-70-64-70z"/><glyph glyph-name="Lslash" unicode="Ł" horiz-adv-x="563" d="M536 0H77v235l-81-53v104l81 53v335h159V444l137 89V428l-137-89V133h300V0z"/><glyph glyph-name="lslash" unicode="ł" horiz-adv-x="307" d="M233 0H74v214L6 161v108l68 54v393h159V447l76 60V398l-76-60V0z"/><glyph glyph-name="Nacute" unicode="Ń" horiz-adv-x="749" d="M217 0H69v674h196l152-241c47-77 89-161 123-243h3c-11 96-12 177-12 272v212h148V0H506L348 261c-46 78-95 165-133 250h-4c5-97 6-190 6-291V0zm158 837h169L421 710H290z"/><glyph glyph-name="nacute" unicode="ń" horiz-adv-x="628" d="M66 0v330c0 63-2 116-4 159h138l7-71h4c18 29 70 83 162 83 102 0 190-64 190-219V0H404v259c0 71-27 115-87 115-49 0-76-34-87-62-4-9-5-23-5-35V0H66zm256 706h149L341 550H230z"/><glyph glyph-name="Ncommaaccent" unicode="Ņ" horiz-adv-x="749" d="M217 0H69v674h196l152-241c47-77 89-161 123-243h3c-11 96-12 177-12 272v212h148V0H506L348 261c-46 78-95 165-133 250h-4c5-97 6-190 6-291V0zm88-247l-23 66c35 7 68 28 68 64 0 23-15 44-28 59l109 20c20-16 39-47 39-82 0-87-74-126-165-127z"/><glyph glyph-name="ncommaaccent" unicode="ņ" horiz-adv-x="628" d="M66 0v330c0 63-2 116-4 159h138l7-71h4c18 29 70 83 162 83 102 0 190-64 190-219V0H404v259c0 71-27 115-87 115-49 0-76-34-87-62-4-9-5-23-5-35V0H66zm178-248l-23 67c35 6 68 28 68 64 0 23-15 44-28 59l109 20c20-16 39-47 39-82 0-87-74-126-165-128z"/><glyph glyph-name="Ncaron" unicode="Ň" horiz-adv-x="749" d="M217 0H69v674h196l152-241c47-77 89-161 123-243h3c-11 96-12 177-12 272v212h148V0H506L348 261c-46 78-95 165-133 250h-4c5-97 6-190 6-291V0zm221 708H321L214 835h111l54-65h2l53 65h111z"/><glyph glyph-name="ncaron" unicode="ň" horiz-adv-x="628" d="M66 0v330c0 63-2 116-4 159h138l7-71h4c18 29 70 83 162 83 102 0 190-64 190-219V0H404v259c0 71-27 115-87 115-49 0-76-34-87-62-4-9-5-23-5-35V0H66zm301 550H261L157 706h102l54-90h2l54 90h102z"/><glyph glyph-name="napostrophe" unicode="ŉ" horiz-adv-x="628" d="M66 0v330c0 63-2 116-4 159h138l7-71h4c18 29 70 83 162 83 102 0 190-64 190-219V0H404v259c0 71-27 115-87 115-49 0-76-34-87-62-4-9-5-23-5-35V0H66zm17 525l-71 44c19 31 31 59 31 89 0 20-7 40-17 55l100 29c13-9 31-39 31-79 0-73-54-121-74-138z"/><glyph glyph-name="Eng" unicode="Ŋ" horiz-adv-x="749" d="M217 0H69v674h196l152-241c47-77 89-161 123-243h3c-11 96-12 177-12 272v212h148V54c0-188-106-260-248-274L397-99c71 16 110 38 122 84L348 261c-46 78-95 165-133 250h-4c5-97 6-190 6-291V0z"/><glyph glyph-name="eng" unicode="ŋ" horiz-adv-x="628" d="M66 0v330c0 63-2 116-4 159h138l7-71h4c18 29 70 83 162 83 102 0 190-64 190-219V67c0-186-96-251-219-264L314-73c64 11 90 45 90 114v218c0 71-27 115-87 115-49 0-76-34-87-62-4-9-5-23-5-35V0H66z"/><glyph glyph-name="Omacron" unicode="Ō" horiz-adv-x="796" d="M391-12h-1C174-12 38 136 38 330c0 207 148 356 363 356 222 0 357-147 357-344 0-210-148-354-367-354zm6 124h1c119 0 191 96 191 225 0 122-71 225-191 225S207 461 207 335c0-125 74-223 190-223zM265 817h267v-82H265v82z"/><glyph glyph-name="omacron" unicode="ō" horiz-adv-x="625" d="M310-12h-1C158-12 34 83 34 240c0 152 108 261 286 261 161 0 271-105 271-251C591 80 460-12 310-12zm3 112h1c65 0 111 52 111 145 0 74-33 144-111 144-81 0-114-71-114-145 0-83 43-144 113-144zM182 669h263v-87H182v87z"/><glyph glyph-name="Obreve" unicode="Ŏ" horiz-adv-x="796" d="M391-12h-1C174-12 38 136 38 330c0 207 148 356 363 356 222 0 357-147 357-344 0-210-148-354-367-354zm6 124h1c119 0 191 96 191 225 0 122-71 225-191 225S207 461 207 335c0-125 74-223 190-223zM251 848h84c4-22 17-47 62-47s61 23 67 47h80c-2-74-46-130-147-130-104 0-144 56-146 130z"/><glyph glyph-name="obreve" unicode="ŏ" horiz-adv-x="625" d="M310-12h-1C158-12 34 83 34 240c0 152 108 261 286 261 161 0 271-105 271-251C591 80 460-12 310-12zm3 112h1c65 0 111 52 111 145 0 74-33 144-111 144-81 0-114-71-114-145 0-83 43-144 113-144zM168 697h84c5-37 23-64 61-64 42 0 60 31 62 64h84c-2-88-50-148-146-148-100 0-143 64-145 148z"/><glyph glyph-name="Ohungarumlaut" unicode="Ő" horiz-adv-x="796" d="M391-12h-1C174-12 38 136 38 330c0 207 148 356 363 356 222 0 357-147 357-344 0-210-148-354-367-354zm6 124h1c119 0 191 96 191 225 0 122-71 225-191 225S207 461 207 335c0-125 74-223 190-223zm-85 727h152L359 721H244zm193 0h152L552 721H437z"/><glyph glyph-name="ohungarumlaut" unicode="ő" horiz-adv-x="625" d="M310-12h-1C158-12 34 83 34 240c0 152 108 261 286 261 161 0 271-105 271-251C591 80 460-12 310-12zm3 112h1c65 0 111 52 111 145 0 74-33 144-111 144-81 0-114-71-114-145 0-83 43-144 113-144zM206 705h129l-97-152h-92zm186 0h128l-97-152h-92z"/><glyph glyph-name="OE" unicode="Œ" horiz-adv-x="1031" d="M990 129V0H570c-19 0-42-3-68-6s-58-6-96-6C165-12 38 144 38 329c0 226 157 357 369 357 43 0 78-3 106-6 29-3 52-6 71-6h390V545H678V410h279V281H678V129h312zm-471-4v423c-22 9-54 14-91 14-121 0-221-84-221-227 0-121 81-223 234-223 27 0 58 4 78 13z"/><glyph glyph-name="oe" unicode="œ" horiz-adv-x="936" d="M902 198H567c3-52 66-92 143-92 65 0 105 11 150 29l22-107C823-4 737-12 688-12c-75 0-143 23-192 88h-2c-46-60-119-88-200-88C153-12 34 85 34 244c0 147 108 257 269 257 77 0 151-31 187-89h2c42 59 109 89 183 89 174 0 231-137 231-248 0-20-3-46-4-55zM313 389h-1c-84 0-112-75-112-144 0-82 41-145 111-145 66 0 109 53 109 145 0 78-35 144-107 144zm250-83h195c0 25-10 92-97 92-67 0-96-57-98-92z"/><glyph glyph-name="Racute" unicode="Ŕ" horiz-adv-x="634" d="M69 0v665c52 8 131 15 223 15 109 0 181-17 231-54 40-30 65-79 65-142 0-90-70-148-124-165v-4c47-19 74-64 93-122 23-77 44-166 58-193H452c-11 20-28 69-50 156-21 84-52 106-121 107h-54V0H69zm158 558V376h72c82 0 131 36 131 95 0 63-49 92-122 92-45 0-69-3-81-5zm84 280h169L357 711H226z"/><glyph glyph-name="racute" unicode="ŕ" horiz-adv-x="408" d="M66 0v323c0 80-1 125-4 166h136l5-97h4c26 78 93 109 144 109 14 0 21 0 34-3V351c-13 3-27 5-46 5-65 0-103-33-112-80-2-9-2-19-2-29V0H66zm158 706h149L243 550H132z"/><glyph glyph-name="Rcommaaccent" unicode="Ŗ" horiz-adv-x="634" d="M69 0v665c52 8 131 15 223 15 109 0 181-17 231-54 40-30 65-79 65-142 0-90-70-148-124-165v-4c47-19 74-64 93-122 23-77 44-166 58-193H452c-11 20-28 69-50 156-21 84-52 106-121 107h-54V0H69zm158 558V376h72c82 0 131 36 131 95 0 63-49 92-122 92-45 0-69-3-81-5zm20-803l-23 66c35 7 68 28 68 64 0 23-15 44-28 59l109 20c20-16 39-47 39-82 0-87-74-126-165-127z"/><glyph glyph-name="rcommaaccent" unicode="ŗ" horiz-adv-x="408" d="M66 0v323c0 80-1 125-4 166h136l5-97h4c26 78 93 109 144 109 14 0 21 0 34-3V351c-13 3-27 5-46 5-65 0-103-33-112-80-2-9-2-19-2-29V0H66zm-1-248l-23 67c35 6 68 28 68 64 0 23-15 44-28 59l109 20c20-16 39-47 39-82 0-87-74-126-165-128z"/><glyph glyph-name="Rcaron" unicode="Ř" horiz-adv-x="634" d="M69 0v665c52 8 131 15 223 15 109 0 181-17 231-54 40-30 65-79 65-142 0-90-70-148-124-165v-4c47-19 74-64 93-122 23-77 44-166 58-193H452c-11 20-28 69-50 156-21 84-52 106-121 107h-54V0H69zm158 558V376h72c82 0 131 36 131 95 0 63-49 92-122 92-45 0-69-3-81-5zm142 153H252L145 838h111l54-65h2l53 65h111z"/><glyph glyph-name="rcaron" unicode="ř" horiz-adv-x="408" d="M66 0v323c0 80-1 125-4 166h136l5-97h4c26 78 93 109 144 109 14 0 21 0 34-3V351c-13 3-27 5-46 5-65 0-103-33-112-80-2-9-2-19-2-29V0H66zm202 550H162L58 706h102l54-90h2l54 90h102z"/><glyph glyph-name="Sacute" unicode="Ś" horiz-adv-x="589" d="M46 35l35 130c44-24 113-48 188-48 73 0 112 28 112 72 0 39-33 64-122 90-119 34-205 92-205 203 0 117 105 204 269 204 88 0 148-16 194-37l-38-126c-29 13-84 35-159 35-70 0-103-29-103-64 0-43 43-61 136-91 129-41 192-101 192-205 0-108-85-210-289-210-83 0-168 23-210 47zm271 803h169L363 711H232z"/><glyph glyph-name="sacute" unicode="ś" horiz-adv-x="471" d="M37 25l29 113c31-19 96-40 144-40 51 0 71 15 71 39 0 25-16 37-78 53C95 220 50 277 51 338c0 93 82 163 212 163 63 0 119-15 150-30l-27-108c-23 12-72 30-119 30-39 0-62-13-62-39 0-24 22-36 88-54 99-29 142-75 143-152 0-88-71-160-225-160C140-12 80 4 37 25zm226 681h149L282 550H171z"/><glyph glyph-name="Scircumflex" unicode="Ŝ" horiz-adv-x="589" d="M46 35l35 130c44-24 113-48 188-48 73 0 112 28 112 72 0 39-33 64-122 90-119 34-205 92-205 203 0 117 105 204 269 204 88 0 148-16 194-37l-38-126c-29 13-84 35-159 35-70 0-103-29-103-64 0-43 43-61 136-91 129-41 192-101 192-205 0-108-85-210-289-210-83 0-168 23-210 47zm191 803h117l107-127H350l-54 66h-2l-53-66H130z"/><glyph glyph-name="scircumflex" unicode="ŝ" horiz-adv-x="471" d="M37 25l29 113c31-19 96-40 144-40 51 0 71 15 71 39 0 25-16 37-78 53C95 220 50 277 51 338c0 93 82 163 212 163 63 0 119-15 150-30l-27-108c-23 12-72 30-119 30-39 0-62-13-62-39 0-24 22-36 88-54 99-29 142-75 143-152 0-88-71-160-225-160C140-12 80 4 37 25zm150 681h106l104-156H295l-54 89h-2l-54-89H83z"/><glyph glyph-name="Scedilla" unicode="Ş" horiz-adv-x="589" d="M46 35l35 130c44-24 113-48 188-48 73 0 112 28 112 72 0 39-33 64-121 90-120 34-206 92-206 203 0 117 105 204 269 204 88 0 148-16 194-37l-38-126c-29 13-84 35-159 35-70 0-103-29-103-64 0-43 43-61 136-91 129-41 192-101 192-205 0-93-63-180-208-204l-22-38c39-4 74-32 74-70 0-66-60-90-124-90-36 0-64 8-84 21l21 56c17-10 39-17 56-17 18 0 36 7 36 26 0 18-22 32-81 36l37 70h-3C188-12 97 7 46 35z"/><glyph glyph-name="Scedilla" unicode="" horiz-adv-x="589" d="M46 35l35 130c44-24 113-48 188-48 73 0 112 28 112 72 0 39-33 64-121 90-120 34-206 92-206 203 0 117 105 204 269 204 88 0 148-16 194-37l-38-126c-29 13-84 35-159 35-70 0-103-29-103-64 0-43 43-61 136-91 129-41 192-101 192-205 0-93-63-180-208-204l-22-38c39-4 74-32 74-70 0-66-60-90-124-90-36 0-64 8-84 21l21 56c17-10 39-17 56-17 18 0 36 7 36 26 0 18-22 32-81 36l37 70h-3C188-12 97 7 46 35z"/><glyph glyph-name="scedilla" unicode="ş" horiz-adv-x="471" d="M37 25l29 113c31-19 96-40 144-40 51 0 71 15 71 39 0 25-16 37-78 53C95 220 51 277 51 338c1 93 82 163 212 163 63 0 119-15 150-30l-27-108c-23 12-72 30-119 30-38 0-62-13-62-39 0-24 23-36 87-54 100-29 144-75 144-152 0-74-51-138-160-155l-22-37c39-4 74-31 74-72 0-66-59-88-126-88-33 0-62 8-82 21l21 56c17-11 40-17 55-17 18 0 37 7 37 26s-23 32-81 36l37 71h-2c-30 0-94 9-150 36z"/><glyph glyph-name="scedilla" unicode="" horiz-adv-x="471" d="M37 25l29 113c31-19 96-40 144-40 51 0 71 15 71 39 0 25-16 37-78 53C95 220 51 277 51 338c1 93 82 163 212 163 63 0 119-15 150-30l-27-108c-23 12-72 30-119 30-38 0-62-13-62-39 0-24 23-36 87-54 100-29 144-75 144-152 0-74-51-138-160-155l-22-37c39-4 74-31 74-72 0-66-59-88-126-88-33 0-62 8-82 21l21 56c17-11 40-17 55-17 18 0 37 7 37 26s-23 32-81 36l37 71h-2c-30 0-94 9-150 36z"/><glyph glyph-name="Scaron" unicode="Š" horiz-adv-x="589" d="M46 35l35 130c44-24 113-48 188-48 73 0 112 28 112 72 0 39-33 64-122 90-119 34-205 92-205 203 0 117 105 204 269 204 88 0 148-16 194-37l-38-126c-29 13-84 35-159 35-70 0-103-29-103-64 0-43 43-61 136-91 129-41 192-101 192-205 0-108-85-210-289-210-83 0-168 23-210 47zm316 676H245L138 838h111l54-65h2l53 65h111z"/><glyph glyph-name="scaron" unicode="š" horiz-adv-x="471" d="M37 25l29 113c31-19 96-40 144-40 51 0 71 15 71 39 0 25-16 37-78 53C95 220 50 277 51 338c0 93 82 163 212 163 63 0 119-15 150-30l-27-108c-23 12-72 30-119 30-39 0-62-13-62-39 0-24 22-36 88-54 99-29 142-75 143-152 0-88-71-160-225-160C140-12 80 4 37 25zm256 525H187L83 706h102l54-90h2l54 90h102z"/><glyph glyph-name="Tcommaaccent" unicode="Ţ" horiz-adv-x="599" d="M219 0v544H16v130h568V544H378V0H219zm-5-247l-23 66c35 7 68 28 68 64 0 23-15 44-28 59l109 20c20-16 39-47 39-82 0-87-74-126-165-127z"/><glyph glyph-name="Tcommaaccent" unicode="Ț" horiz-adv-x="599" d="M219 0v544H16v130h568V544H378V0H219zm-5-247l-23 66c35 7 68 28 68 64 0 23-15 44-28 59l109 20c20-16 39-47 39-82 0-87-74-126-165-127z"/><glyph glyph-name="tcommaaccent" unicode="ţ" horiz-adv-x="386" d="M86 582l155 41V489h114V370H241V209c0-60 12-91 63-91 25 0 34 1 49 5l2-120c-21-8-60-15-105-15-53 0-97 20-122 46-28 31-42 80-42 147v189H19v119h67v93zm50-832l-23 67c35 6 68 28 68 64 0 23-15 44-28 59l109 20c20-16 39-47 39-82 0-87-74-126-165-128z"/><glyph glyph-name="tcommaaccent" unicode="ț" horiz-adv-x="386" d="M86 582l155 41V489h114V370H241V209c0-60 12-91 63-91 25 0 34 1 49 5l2-120c-21-8-60-15-105-15-53 0-97 20-122 46-28 31-42 80-42 147v189H19v119h67v93zm50-832l-23 67c35 6 68 28 68 64 0 23-15 44-28 59l109 20c20-16 39-47 39-82 0-87-74-126-165-128z"/><glyph glyph-name="Tcaron" unicode="Ť" horiz-adv-x="599" d="M219 0v544H16v130h568V544H378V0H219zm139 710H241L134 837h111l54-65h2l53 65h111z"/><glyph glyph-name="tcaron" unicode="ť" horiz-adv-x="388" d="M86 582l155 42V489h114V370H241V209c0-60 12-91 64-91 24 0 33 1 48 5l2-120c-20-8-60-15-105-15-53 0-97 20-122 46-28 31-42 80-42 147v189H19v119h67v93zm246-47l-31 63c21 11 35 38 35 64 0 17-7 37-17 51l100 18c16-12 31-43 31-70 0-79-71-118-118-126z"/><glyph glyph-name="Tbar" unicode="Ŧ" horiz-adv-x="599" d="M584 544H378V376h126v-90H378V0H219v286H91v90h128v168H16v130h568V544z"/><glyph glyph-name="tbar" unicode="ŧ" horiz-adv-x="386" d="M355 370H241v-70h86v-79h-86v-27c0-51 18-76 63-76 25 0 34 1 49 5l2-120c-21-8-60-15-105-15-53 0-97 20-122 46-28 31-42 80-42 147v40H22v79h64v70H19v119h67v93l155 41V489h114V370z"/><glyph glyph-name="Utilde" unicode="Ũ" horiz-adv-x="742" d="M69 674h159V303c0-122 50-191 142-191 94 0 144 66 144 191v371h159V308C673 89 555-12 363-12 183-12 69 81 69 311v363zm228 39h-73c-3 88 30 132 80 132 28 0 48-10 68-21 18-10 34-20 47-20 17 0 24 10 28 44h72c2-91-28-127-82-127-29 0-50 9-69 19s-32 19-46 19c-13 0-23-15-25-46z"/><glyph glyph-name="utilde" unicode="ũ" horiz-adv-x="627" d="M561 489V159c0-67 2-120 4-159H427l-7 75h-3c-18-30-66-87-167-87S65 48 65 204v285h159V232c0-74 26-117 86-117 48 0 76 33 87 60 4 9 5 19 5 29v285h159zm-320 68h-76c-4 92 33 137 86 137 25 0 47-10 67-22 18-10 33-20 45-20 17 0 23 10 27 47h74c4-96-30-134-86-134-31 0-51 12-74 24-19 11-26 16-38 16-15 0-23-15-25-48z"/><glyph glyph-name="Umacron" unicode="Ū" horiz-adv-x="742" d="M69 674h159V303c0-122 50-191 142-191 94 0 144 66 144 191v371h159V308C673 89 555-12 363-12 183-12 69 81 69 311v363zm169 141h267v-82H238v82z"/><glyph glyph-name="umacron" unicode="ū" horiz-adv-x="627" d="M561 489V159c0-67 2-120 4-159H427l-7 75h-3c-18-30-66-87-167-87S65 48 65 204v285h159V232c0-74 26-117 86-117 48 0 76 33 87 60 4 9 5 19 5 29v285h159zM183 669h263v-87H183v87z"/><glyph glyph-name="Ubreve" unicode="Ŭ" horiz-adv-x="742" d="M69 674h159V303c0-122 50-191 142-191 94 0 144 66 144 191v371h159V308C673 89 555-12 363-12 183-12 69 81 69 311v363zm155 167h84c4-22 17-47 62-47s61 23 67 47h80c-2-74-46-130-147-130-104 0-144 56-146 130z"/><glyph glyph-name="ubreve" unicode="ŭ" horiz-adv-x="627" d="M561 489V159c0-67 2-120 4-159H427l-7 75h-3c-18-30-66-87-167-87S65 48 65 204v285h159V232c0-74 26-117 86-117 48 0 76 33 87 60 4 9 5 19 5 29v285h159zM169 697h84c5-37 23-64 61-64 42 0 60 31 62 64h84c-2-88-50-148-146-148-100 0-143 64-145 148z"/><glyph glyph-name="Uring" unicode="Ů" horiz-adv-x="742" d="M69 674h159V303c0-122 50-191 142-191 94 0 144 66 144 191v371h159V308C673 89 555-12 363-12 183-12 69 81 69 311v363zm303 215h1c75 0 116-43 116-101 0-56-46-98-117-98-72 0-119 43-119 98 0 57 43 101 119 101zm-2-52h-1c-28 0-45-23-45-49 0-24 19-46 46-46 28 0 47 20 47 47 0 25-19 48-47 48z"/><glyph glyph-name="uring" unicode="ů" horiz-adv-x="627" d="M561 489V159c0-67 2-120 4-159H427l-7 75h-3c-18-30-66-87-167-87S65 48 65 204v285h159V232c0-74 26-117 86-117 48 0 76 33 87 60 4 9 5 19 5 29v285h159zM315 740h1c75 0 116-44 116-102 0-57-46-99-117-99-72 0-119 43-119 99 0 57 44 102 119 102zm0-52h-1c-29 0-46-23-46-50 0-24 19-47 46-47 29 0 48 21 48 48 0 26-19 49-47 49z"/><glyph glyph-name="Uhungarumlaut" unicode="Ű" horiz-adv-x="742" d="M69 674h159V303c0-122 50-191 142-191 94 0 144 66 144 191v371h159V308C673 89 555-12 363-12 183-12 69 81 69 311v363zm211 164h152L327 720H212zm193 0h152L520 720H405z"/><glyph glyph-name="uhungarumlaut" unicode="ű" horiz-adv-x="627" d="M561 489V159c0-67 2-120 4-159H427l-7 75h-3c-18-30-66-87-167-87S65 48 65 204v285h159V232c0-74 26-117 86-117 48 0 76 33 87 60 4 9 5 19 5 29v285h159zM229 705h129l-97-152h-92zm186 0h128l-97-152h-92z"/><glyph glyph-name="Uogonek" unicode="Ų" horiz-adv-x="742" d="M486-116l23-72c-29-22-71-35-116-35-67 0-105 34-105 90 0 52 36 96 62 122h-6C177-7 69 87 69 311v363h159V303c0-122 50-191 142-191 94 0 144 66 144 191v371h159V308c0-182-81-282-215-309-25-23-57-56-57-87 0-24 19-37 42-37 13 0 28 3 43 9z"/><glyph glyph-name="uogonek" unicode="ų" horiz-adv-x="627" d="M561 489V159c0-67 2-120 4-159l-54 1c-8-15-20-40-20-65 0-36 25-61 59-61 20 0 35 4 45 8l23-72c-27-22-72-34-107-34-70 0-117 34-117 110 0 46 24 95 33 114l-7 74h-3c-18-30-66-87-167-87S65 48 65 204v285h159V232c0-74 26-117 86-117 48 0 76 33 87 60 4 9 5 19 5 29v285h159z"/><glyph glyph-name="Wcircumflex" unicode="Ŵ" horiz-adv-x="957" d="M370 0H191L16 674h172l58-280 44-236h2c11 70 28 153 46 238l61 278h180l57-291c15-79 27-150 37-220h2c11 71 27 151 44 233l62 278h164L753 0H578l-63 314c-14 68-25 128-33 202h-2c-11-74-22-134-39-203zm56 837h117l107-127H539l-54 66h-2l-53-66H319z"/><glyph glyph-name="wcircumflex" unicode="ŵ" horiz-adv-x="807" d="M13 489h160l44-197c11-49 21-105 31-164h2c10 58 26 115 39 163l54 198h127l51-191c15-56 29-112 40-170h2c7 58 19 115 32 172l45 189h155L638 0H485l-49 172c-14 49-23 90-34 152h-2c-10-63-20-106-33-151L316 0H163zm338 217h106l104-156H459l-54 89h-2l-54-89H247z"/><glyph glyph-name="Ycircumflex" unicode="Ŷ" horiz-adv-x="670" d="M410 0H251v282L17 674h186l76-163c23-50 39-81 57-124h2c17 40 35 76 57 123l77 164h184L410 288V0zM277 837h117l107-127H390l-54 66h-2l-53-66H170z"/><glyph glyph-name="ycircumflex" unicode="ŷ" horiz-adv-x="567" d="M7 489h178l81-236c9-29 20-69 28-94h3c8 27 17 66 25 95l67 235h174L445 185C359-43 308-115 252-159c-56-45-114-60-158-64L63-90c19 3 42 9 67 21 25 11 54 37 70 62 5 8 9 16 9 22s-1 14-8 28zm230 217h106l104-156H345l-54 89h-2l-54-89H133z"/><glyph glyph-name="Ydieresis" unicode="Ÿ" horiz-adv-x="670" d="M410 0H251v282L17 674h186l76-163c23-50 39-81 57-124h2c17 40 35 76 57 123l77 164h184L410 288V0zM239 710h-1c-41 0-72 33-72 70 0 40 31 70 73 70 39 0 68-30 68-70 0-37-29-70-68-70zm215 0h-1c-41 0-70 33-70 70 0 40 30 70 71 70s70-30 70-70c0-37-29-70-70-70z"/><glyph glyph-name="Zacute" unicode="Ź" horiz-adv-x="640" d="M28 0v84l356 456v4H61v130h537v-85L248 134v-4h357V0H28zm295 837h169L369 710H238z"/><glyph glyph-name="zacute" unicode="ź" horiz-adv-x="508" d="M23 0v89l165 184c32 34 55 56 88 89v2H41v125h435v-92L319 220c-30-33-58-63-91-93v-2h257V0H23zm255 706h149L297 550H186z"/><glyph glyph-name="Zdotaccent" unicode="Ż" horiz-adv-x="640" d="M28 0v84l356 456v4H61v130h537v-85L248 134v-4h357V0H28zm295 712h-1c-41 0-72 33-72 70 0 39 31 70 73 70 39 0 68-31 68-70 0-37-29-70-68-70z"/><glyph glyph-name="zdotaccent" unicode="ż" horiz-adv-x="508" d="M23 0v89l165 184c32 34 55 56 88 89v2H41v125h435v-92L319 220c-30-33-58-63-91-93v-2h257V0H23zm237 556h-1c-42 0-74 34-74 73 0 42 32 73 75 73 41 0 71-31 71-73 0-39-30-73-71-73z"/><glyph glyph-name="Zcaron" unicode="Ž" horiz-adv-x="640" d="M28 0v84l356 456v4H61v130h537v-85L248 134v-4h357V0H28zm356 710H267L160 837h111l54-65h2l53 65h111z"/><glyph glyph-name="zcaron" unicode="ž" horiz-adv-x="508" d="M23 0v89l165 184c32 34 55 56 88 89v2H41v125h435v-92L319 220c-30-33-58-63-91-93v-2h257V0H23zm288 550H205L101 706h102l54-90h2l54 90h102z"/><glyph glyph-name="florin" unicode="ƒ" horiz-adv-x="598" d="M126 308v107h97l4 28c6 50 35 219 225 219 37-1 71-8 89-17l-26-111c-13 5-29 9-50 9-50 0-76-33-82-85l-6-43h106V308H363l-24-176C321 4 280-94 131-94c-45 1-82 9-97 17L56 33c16-6 32-8 50-9 57 2 71 32 87 157l16 127h-83z"/><glyph glyph-name="AEacute" unicode="Ǽ" horiz-adv-x="958" d="M172 0H6l315 674h561V545H573l20-135h286V281H616l24-152h286V0H504l-28 184H255zm135 313h150l-25 162c-4 27-9 58-13 86h-3l-34-78zm211 524h169L564 710H433z"/><glyph glyph-name="aeacute" unicode="ǽ" horiz-adv-x="859" d="M825 200H490c4-52 57-94 141-94 68 0 109 11 152 28l22-106C747-2 675-12 609-12c-86 0-162 32-197 89h-4c-40-52-103-89-195-89C97-12 33 60 33 141c0 120 117 184 311 183v14c0 6-12 55-99 55-57 0-111-20-144-40l-32 99c36 19 103 49 184 49 86 0 141-29 173-80h3c40 49 101 80 178 80 162 0 222-137 222-246 0-20-3-45-4-55zm-476-16v44c-95 1-157-23-157-74 0-36 29-56 67-56 44 0 72 27 85 55 4 8 5 19 5 31zm140 124h193c1 24-13 91-93 91-71 0-99-58-100-91zm-51 398h149L457 550H346z"/><glyph glyph-name="Oslashacute" unicode="Ǿ" horiz-adv-x="796" d="M169-71L82 3l61 82C77 146 38 235 38 336c0 203 149 350 361 350 61 0 118-13 167-37l63 84 92-68-61-81c63-61 98-148 98-245 0-209-153-351-359-351-59 0-112 13-159 35zm64 278l255 335c-26 16-56 24-89 24-126 0-200-102-200-229 0-50 11-88 33-130h1zm334 251L318 129c22-14 48-21 80-21 123 0 199 98 199 230 0 39-8 79-28 119zM401 844h169L447 717H316z"/><glyph glyph-name="oslashacute" unicode="ǿ" horiz-adv-x="625" d="M312 501h1c47 0 91-9 129-27l51 73 52-39-48-66c60-44 94-112 94-196C591 82 459-12 313-12c-44 0-88 8-125 26l-54-75-49 41 47 64C71 88 34 155 34 243c0 147 108 258 278 258zm-99-340l158 213c-17 9-37 15-59 15-87 0-123-72-123-145 0-30 6-61 22-83h2zm201 164L257 115c16-12 36-15 55-15 75 0 124 54 124 145 0 25-5 55-20 79zm-88 381h149L345 550H234z"/><glyph glyph-name="Scommaaccent" unicode="Ș" horiz-adv-x="589" d="M46 35l35 130c44-24 113-48 188-48 73 0 112 28 112 72 0 39-33 64-122 90-119 34-205 92-205 203 0 117 105 204 269 204 88 0 148-16 194-37l-38-126c-29 13-84 35-159 35-70 0-103-29-103-64 0-43 43-61 136-91 129-41 192-101 192-205 0-108-85-210-289-210-83 0-168 23-210 47zm179-282l-23 66c35 7 68 28 68 64 0 23-15 44-28 59l109 20c20-16 39-47 39-82 0-87-74-126-165-127z"/><glyph glyph-name="scommaaccent" unicode="ș" horiz-adv-x="471" d="M37 25l29 113c31-19 96-40 144-40 51 0 71 15 71 39 0 25-16 37-78 53C95 220 50 277 51 338c0 93 82 163 212 163 63 0 119-15 150-30l-27-108c-23 12-72 30-119 30-39 0-62-13-62-39 0-24 22-36 88-54 99-29 142-75 143-152 0-88-71-160-225-160C140-12 80 4 37 25zm128-273l-23 67c35 6 68 28 68 64 0 23-15 44-28 59l109 20c20-16 39-47 39-82 0-87-74-126-165-128z"/><glyph glyph-name="circumflex" unicode="ˆ" d="M97 706h106l104-156H205l-54 89h-2l-54-89H-7z"/><glyph glyph-name="caron" unicode="ˇ" d="M203 550H97L-7 706H95l54-90h2l54 90h102z"/><glyph glyph-name="breve" unicode="˘" d="M5 697h84c5-37 23-64 61-64 42 0 60 31 62 64h84c-2-88-50-148-146-148C50 549 7 613 5 697z"/><glyph glyph-name="dotaccent" unicode="˙" d="M113 556h-1c-42 0-74 34-74 73 0 42 32 73 75 73 41 0 71-31 71-73 0-39-30-73-71-73z"/><glyph glyph-name="ring" unicode="˚" horiz-adv-x="400" d="M201 740h1c75 0 116-44 116-102 0-57-46-99-117-99-72 0-119 43-119 99 0 57 44 102 119 102zm0-52h-1c-29 0-46-23-46-50 0-24 19-47 46-47 29 0 48 21 48 48 0 26-19 49-47 49z"/><glyph glyph-name="ogonek" unicode="˛" d="M78 1h81c-7-14-24-40-24-69 0-32 21-57 57-57 20 0 37 5 47 9l23-73c-27-22-72-34-106-34-71 0-118 34-118 110C38-67 64-17 78 1z"/><glyph glyph-name="tilde" unicode="˜" d="M77 557H1c-4 92 33 137 86 137 25 0 47-10 67-22 18-10 33-20 45-20 17 0 23 10 27 47h74c4-96-30-134-86-134-31 0-51 12-74 24-19 11-26 16-38 16-15 0-23-15-25-48z"/><glyph glyph-name="hungarumlaut" unicode="˝" d="M41 705h129L73 553h-92zm186 0h128l-97-152h-92z"/><glyph glyph-name="uni037E" unicode=";" horiz-adv-x="286" d="M129-108l-107-9C46-26 67 78 75 165l162 5c-25-93-67-198-108-278zm22 392h-1c-59 0-98 43-98 100 0 58 40 99 100 99s99-41 99-99c0-57-39-100-100-100z"/><glyph glyph-name="tonos" unicode="΄" d="M133 706h143l-87-156H82z"/><glyph glyph-name="dieresistonos" unicode="΅" horiz-adv-x="437" d="M183 735h116l-60-180h-81zM65 565h-1c-37 0-65 30-65 64 0 37 29 64 67 64 35 0 62-27 62-64 0-34-27-64-63-64zm309 0h-1c-37 0-64 30-64 64 0 37 27 64 65 64 37 0 64-27 64-64 0-34-27-64-64-64z"/><glyph glyph-name="Alphatonos" unicode="Ά" horiz-adv-x="724" d="M462 180H244L191 0H23l225 674h214L698 0H522zM269 297h167l-49 144c-13 39-26 84-37 122h-2c-11-38-21-83-33-122zM24 674h128l-37-177H21z"/><glyph glyph-name="anoteleia" unicode="·" horiz-adv-x="286" d="M143 212h-1c-60 0-102 44-102 103 0 61 42 103 104 103s102-42 103-103c0-59-41-103-104-103z"/><glyph glyph-name="Epsilontonos" unicode="Έ" horiz-adv-x="697" d="M624 410V281H345V129h312V0H186v674h455V545H345V410h279zM2 674h129L93 497H0z"/><glyph glyph-name="Etatonos" unicode="Ή" horiz-adv-x="863" d="M186 674h159V417h289v257h159V0H634v281H345V0H186v674zM3 674h129L94 497H1z"/><glyph glyph-name="Iotatonos" unicode="Ί" horiz-adv-x="415" d="M186 674h159V0H186v674zM2 674h129L93 497H0z"/><glyph glyph-name="Omicrontonos" unicode="Ό" horiz-adv-x="874" d="M468-12h-1c-216 0-352 148-352 342 0 207 148 356 363 356 222 0 357-147 357-344 0-210-148-354-367-354zm6 124h1c119 0 191 96 191 225 0 122-71 225-191 225S284 461 284 335c0-125 74-223 190-223zM2 674h129L93 497H0z"/><glyph glyph-name="Upsilontonos" unicode="Ύ" horiz-adv-x="843" d="M171 551l23 129c70-1 163-31 226-104 45-53 73-121 82-205h7c13 83 49 152 95 202 59 65 138 104 204 107l22-132c-99-24-199-127-235-258-13-47-20-96-20-144V0H416v146c0 53-3 92-13 138-30 142-104 248-232 267zM3 674h128L94 497H0z"/><glyph glyph-name="Omegatonos" unicode="Ώ" horiz-adv-x="891" d="M708 122v-4h148V0H531v91c83 56 149 127 149 256 0 115-75 215-194 215s-199-97-199-215c0-117 65-211 150-256V0H110v118h145v4c-61 39-133 122-133 243 0 178 151 321 366 321 223 0 356-147 356-310 0-136-79-214-136-254zM3 674h128L94 497H0z"/><glyph glyph-name="iotadieresistonos" unicode="ΐ" horiz-adv-x="295" d="M225 489V156c0-36 14-50 47-47L265-1c-12-7-43-11-69-11-86 0-130 38-130 154v347h159zM118 723h116l-60-180H94zM1 551H0c-37 0-65 29-65 64 0 36 29 63 66 63 35 0 62-27 62-64 0-34-26-63-62-63zm308 0h-1c-37 0-63 29-63 64 0 36 27 63 64 63s64-27 64-64c0-34-26-63-64-63z"/><glyph glyph-name="Alpha" unicode="Α" horiz-adv-x="722" d="M460 180H242L189 0H21l225 674h214L696 0H520zM267 297h167l-49 144c-13 39-26 84-37 122h-2c-11-38-21-83-33-122z"/><glyph glyph-name="Beta" unicode="Β" horiz-adv-x="644" d="M69 3v662c40 7 130 15 213 15 103 0 159-10 209-35 51-23 90-69 90-136 0-59-36-114-115-142v-2c76-20 139-77 139-167 0-64-32-113-77-147C475 13 389-8 248-8 165-8 105-2 69 3zm158 557V410h57c92 0 136 31 136 80 0 52-44 75-118 75-40 0-61-2-75-5zm0-263V112c17-3 38-3 68-3 75 0 141 25 141 96 0 68-65 92-149 92h-60z"/><glyph glyph-name="Gamma" unicode="Γ" horiz-adv-x="522" d="M69 674h446V541H228V0H69v674z"/><glyph glyph-name="Delta" unicode="Δ" horiz-adv-x="708" d="M18 0v80l240 594h194L689 80V0H18zm176 128h306L390 426c-15 39-32 85-44 126h-3c-9-29-24-77-38-117z"/><glyph glyph-name="Delta" unicode="" horiz-adv-x="708" d="M18 0v80l240 594h194L689 80V0H18zm176 128h306L390 426c-15 39-32 85-44 126h-3c-9-29-24-77-38-117z"/><glyph glyph-name="Epsilon" unicode="Ε" horiz-adv-x="580" d="M507 410V281H228V129h312V0H69v674h455V545H228V410h279z"/><glyph glyph-name="Zeta" unicode="Ζ" horiz-adv-x="640" d="M28 0v84l356 456v4H61v130h537v-85L248 134v-4h357V0H28z"/><glyph glyph-name="Eta" unicode="Η" horiz-adv-x="746" d="M69 674h159V417h290v257h159V0H518v281H228V0H69v674z"/><glyph glyph-name="Theta" unicode="Θ" horiz-adv-x="796" d="M391-12h-1C174-12 38 136 38 330c0 207 148 356 363 356 222 0 357-147 357-344 0-210-148-354-367-354zm6 124h1c119 0 191 96 191 225 0 122-71 225-191 225S207 461 207 334c0-124 74-222 190-222zM276 405h242V282H276v123z"/><glyph glyph-name="Iota" unicode="Ι" horiz-adv-x="298" d="M69 674h159V0H69v674z"/><glyph glyph-name="Kappa" unicode="Κ" horiz-adv-x="666" d="M69 0v674h158V378h2c16 24 34 47 51 69l174 227h201L408 389 670 0H482L293 294l-66-75V0H69z"/><glyph glyph-name="Lambda" unicode="Λ" horiz-adv-x="713" d="M696 0H520L384 433c-13 40-25 84-36 122h-2c-11-38-21-83-32-122L189 0H21l225 674h214z"/><glyph glyph-name="Mu" unicode="Μ" horiz-adv-x="916" d="M702 0l-10 265c-3 87-6 188-6 296h-3c-25-91-56-191-86-280L506 11H380l-79 268c-24 88-48 188-67 282h-2c-4-98-7-208-11-298L208 0H57l41 674h225l70-219c22-75 44-163 60-243h4c21 79 46 173 71 245l78 217h219L860 0H702z"/><glyph glyph-name="Nu" unicode="Ν" horiz-adv-x="749" d="M217 0H69v674h196l152-241c47-77 89-161 123-243h3c-11 96-12 177-12 272v212h148V0H506L348 261c-46 78-95 165-133 250h-4c5-97 6-190 6-291V0z"/><glyph glyph-name="Xi" unicode="Ξ" horiz-adv-x="626" d="M62 674h510V547H62v127zm36-265h438V282H98v127zM45 129h544V0H45v129z"/><glyph glyph-name="Omicron" unicode="Ο" horiz-adv-x="796" d="M391-12h-1C174-12 38 136 38 330c0 207 148 356 363 356 222 0 357-147 357-344 0-210-148-354-367-354zm6 124h1c119 0 191 96 191 225 0 122-71 225-191 225S207 461 207 335c0-125 74-223 190-223z"/><glyph glyph-name="Pi" unicode="Π" horiz-adv-x="719" d="M649 674V0H490v544H228V0H69v674h580z"/><glyph glyph-name="Rho" unicode="Ρ" horiz-adv-x="622" d="M69 0v665c50 8 122 15 229 15 99 0 168-21 214-55 44-33 76-89 76-159 0-64-21-122-63-158-56-51-137-74-238-74-23 0-45 2-60 5V0H69zm158 556V360c15-4 33-5 60-5 86 0 143 39 143 109 0 63-49 97-131 97-36 0-60-2-72-5z"/><glyph glyph-name="Sigma" unicode="Σ" horiz-adv-x="631" d="M244 133v-4h351V0H34v89l219 243L48 569v105h518V545H254v-4l173-203z"/><glyph glyph-name="Tau" unicode="Τ" horiz-adv-x="599" d="M219 0v544H16v130h568V544H378V0H219z"/><glyph glyph-name="Upsilon" unicode="Υ" horiz-adv-x="680" d="M11 551l23 129c70-1 163-31 226-104 45-53 73-121 82-205h7c13 83 49 152 95 202 59 65 138 104 204 107l22-132c-99-24-199-127-235-258-13-47-20-96-20-144V0H256v146c0 53-3 92-13 138-30 142-104 248-232 267z"/><glyph glyph-name="Phi" unicode="Φ" horiz-adv-x="853" d="M501 26v-56H349v56C196 42 38 137 38 332c0 203 175 303 313 318v54h152v-54c150-16 311-113 311-312 0-192-156-292-313-312zM350 136v406c-69-11-151-75-151-209 0-118 81-186 151-197zm152 406V136c68 10 151 65 151 198 0 134-78 198-151 208z"/><glyph glyph-name="Chi" unicode="Χ" horiz-adv-x="681" d="M659 0H469l-67 121-67 122h-2c-15-38-34-71-60-120L211 0H23l218 340L31 674h188l65-122c23-43 39-76 57-113h3c18 43 32 72 52 112l64 123h188L437 347z"/><glyph glyph-name="Psi" unicode="Ψ" horiz-adv-x="798" d="M755 674V470c0-201-129-283-281-289V0H326v181c-143 5-280 79-280 260v233h155V471c0-132 57-167 125-169v372h148V300c65 4 126 40 126 199v175h155z"/><glyph glyph-name="Omega" unicode="Ω" horiz-adv-x="815" d="M632 122v-4h148V0H455v91c83 57 149 139 149 257 0 114-75 214-194 214s-199-97-199-215c0-103 65-211 150-256V0H34v118h145v4C118 161 46 244 46 365c0 179 151 321 366 321 223 0 356-146 356-309 0-136-79-215-136-255z"/><glyph glyph-name="Omega" unicode="Ω" horiz-adv-x="815" d="M632 122v-4h148V0H455v91c83 57 149 139 149 257 0 114-75 214-194 214s-199-97-199-215c0-103 65-211 150-256V0H34v118h145v4C118 161 46 244 46 365c0 179 151 321 366 321 223 0 356-146 356-309 0-136-79-215-136-255z"/><glyph glyph-name="Iotadieresis" unicode="Ϊ" horiz-adv-x="298" d="M43 715h-1c-41 0-72 33-72 70 0 40 31 70 73 70 39 0 67-30 67-70 0-37-28-70-67-70zm214 0h-1c-41 0-71 33-71 70 0 40 31 70 72 70s70-30 70-70c0-37-29-70-70-70zM69 674h159V0H69v674z"/><glyph glyph-name="Upsilondieresis" unicode="Ϋ" horiz-adv-x="680" d="M237 700h-1c-41 0-72 33-72 70 0 40 31 70 73 70 39 0 68-30 68-70 0-37-29-70-68-70zm214 0h-1c-41 0-70 33-70 70 0 40 30 70 71 70s70-30 70-70c0-37-29-70-70-70zM12 551l22 129c70-1 163-31 226-104 45-53 73-121 82-205h7c13 83 49 152 95 202 59 65 138 104 204 107l22-132c-99-24-199-127-235-258-13-47-20-96-20-144V0H256v146c0 53-3 92-13 138-30 142-104 248-231 267z"/><glyph glyph-name="alphatonos" unicode="ά" horiz-adv-x="629" d="M309 704h143l-87-156H258zm127-215h138c-8-91-14-214-14-311 0-59 22-73 47-71L600-2c-8-5-35-10-59-10-61 0-99 33-113 94h-2c-40-66-104-94-173-94C138-12 34 77 34 236c0 161 120 265 240 265 61 0 115-25 147-79h4c3 26 7 47 11 67zM197 242v-1c0-71 42-129 103-129 51 0 92 50 102 99 2 14 3 25 3 39 0 11 0 22-2 31-11 58-50 100-99 100-66 0-107-63-107-139z"/><glyph glyph-name="epsilontonos" unicode="έ" horiz-adv-x="501" d="M264 704h144l-88-156H213zM145 257v5c-57 19-87 54-87 101 0 68 71 138 224 138 81 0 134-14 183-41l-28-98c-29 15-80 31-129 31-55 0-87-18-87-46s38-40 116-41h59V204h-57c-75-1-130-9-130-45 0-39 51-55 104-55 45 0 103 14 144 33l23-100C422 1 335-12 270-12 160-12 35 26 35 140c0 60 48 104 110 117z"/><glyph glyph-name="etatonos" unicode="ή" horiz-adv-x="628" d="M312 704h143l-87-156H261zM207 418h4c18 29 70 83 162 83 102 0 190-64 190-219V-29c0-54-1-131 11-171H421c-14 24-17 115-17 172v287c0 71-27 115-87 115-49 0-76-34-87-62-4-9-5-23-5-35V0H66v330c0 63-3 118-16 159h140c10-18 16-44 17-71z"/><glyph glyph-name="iotatonos" unicode="ί" horiz-adv-x="295" d="M140 704h143l-87-156H89zm85-215V156c0-36 14-50 47-47L265-1c-12-7-43-11-69-11-86 0-130 38-130 154v347h159z"/><glyph glyph-name="upsilondieresistonos" unicode="ΰ" horiz-adv-x="600" d="M370 489h148c18-33 41-102 41-191 0-148-67-310-269-310C162-12 57 57 57 210v110c0 77-2 137-14 169h155c13-13 18-36 18-94V223c0-72 40-108 88-108 70 0 99 81 99 180 0 84-22 167-33 194zM260 723h117l-61-180h-81zM143 551h-1c-37 0-65 29-65 64 0 36 29 63 66 63 35 0 62-27 62-64 0-34-26-63-62-63zm308 0h-1c-37 0-63 29-63 64 0 36 27 63 64 63 38 0 64-27 64-64 0-34-26-63-64-63z"/><glyph glyph-name="alpha" unicode="α" horiz-adv-x="628" d="M436 489h138c-8-91-14-214-14-311 0-59 22-73 47-71L600-2c-8-5-35-10-59-10-61 0-99 33-113 94h-2c-40-66-104-94-173-94C138-12 34 77 34 236c0 161 120 265 240 265 61 0 115-25 147-79h4c3 26 7 47 11 67zM197 242v-1c0-71 42-129 103-129 51 0 92 50 102 99 2 14 3 25 3 39 0 11 0 22-2 31-11 58-50 100-99 100-66 0-107-63-107-139z"/><glyph glyph-name="beta" unicode="β" horiz-adv-x="632" d="M218 36h-2v-62c0-57 1-129 12-174H80C66-169 62-90 62-31v441c0 148 42 216 86 255 39 36 95 63 177 63 135 0 211-83 211-184 0-51-26-122-83-151v-6c75-16 144-88 144-184C597 72 494-12 367-12c-60 0-110 14-149 48zm-3 399V160c26-31 64-56 111-56 75 0 109 53 109 102 0 73-55 108-121 112-7 1-15 0-23 0v93c6 0 11 0 18 2 54 9 85 53 85 100 0 58-32 93-80 93-57 0-99-42-99-171z"/><glyph glyph-name="gamma" unicode="γ" horiz-adv-x="552" d="M343-200H189c2 74 4 171-15 262C141 228 49 395-13 489h179c40-53 102-198 130-330h4c37 73 81 184 81 289 0 23-1 33-1 41h153c2-10 2-26 2-37 0-129-81-294-189-436-6-9-6-18-6-26 1-35 1-124 3-190z"/><glyph glyph-name="delta" unicode="δ" horiz-adv-x="621" d="M541 675l-43-98c-18 14-81 40-138 40-40 0-59-10-59-26s19-28 61-57l89-65c86-62 135-135 135-226C586 95 468-12 306-12 157-12 34 83 34 233c0 124 91 196 179 235v4l-21 18c-19 16-59 49-59 101 0 65 77 137 216 137 87 0 160-30 192-53zM355 356l-53 41c-54-29-102-81-102-160 0-72 49-137 118-137 58 0 108 48 108 130 0 45-26 92-71 126z"/><glyph glyph-name="epsilon" unicode="ε" horiz-adv-x="501" d="M145 257v5c-57 19-87 54-87 101 0 68 71 138 224 138 81 0 135-13 183-41l-28-98c-29 15-80 31-129 31-55 0-87-18-87-46s38-40 116-41h59V204h-57c-75-1-130-9-130-45 0-39 51-55 104-55 45 0 103 14 144 33l23-100C422 1 335-12 270-12 160-12 35 26 35 140c0 60 48 104 110 117z"/><glyph glyph-name="zeta" unicode="ζ" horiz-adv-x="472" d="M386-157l-96 31c8 18 24 77 25 101-29 4-73 12-117 27C116 30 37 93 37 230c0 127 77 266 213 368v6h-53c-51 0-91 4-117 13l16 98c32-3 84-3 144-3h204l23-102c-145-60-266-212-266-354 0-73 34-114 86-139 47-24 108-33 164-41 6-1 11-7 11-14 0-61-32-165-76-219z"/><glyph glyph-name="eta" unicode="η" horiz-adv-x="628" d="M207 418h4c18 29 70 83 162 83 102 0 190-64 190-219V-29c0-54-1-131 11-171H421c-14 24-17 115-17 172v287c0 71-27 115-87 115-49 0-76-34-87-62-4-9-5-23-5-35V0H66v330c0 63-3 118-16 159h140c10-18 16-44 17-71z"/><glyph glyph-name="theta" unicode="θ" horiz-adv-x="616" d="M308-12h-1C133-12 34 128 34 363c0 185 84 365 282 365 190 0 266-164 266-365 0-199-75-375-274-375zM193 420h230c0 104-36 199-113 199-79 0-117-98-117-199zm232-110H194c0-122 40-213 118-213 80 0 113 95 113 213z"/><glyph glyph-name="iota" unicode="ι" horiz-adv-x="295" d="M225 489V156c0-36 14-50 47-47L265-1c-12-7-43-11-69-11-86 0-130 38-130 154v347h159z"/><glyph glyph-name="kappa" unicode="κ" horiz-adv-x="587" d="M365 267v-5c46-9 85-53 127-116L584 0H399l-61 96c-39 59-70 99-106 102h-7V0H66v364c0 45-6 112-15 125h156c10-9 18-44 18-88V287h3c62 72 115 139 162 202h184v-5z"/><glyph glyph-name="lambda" unicode="λ" horiz-adv-x="561" d="M383 0l-75 225c-10 31-20 65-31 106h-5c-8-37-18-73-27-103L172 0H4l187 447c5 15 6 22 6 28s-2 15-6 25c-21 58-63 103-110 103H56l15 119c10 3 35 6 55 6 113 0 174-94 226-223L556 0H383z"/><glyph glyph-name="uni03BC" unicode="μ" horiz-adv-x="628" d="M421 73h-4C401 34 354-9 281-9c-28 0-57 11-74 31v-43c0-46 2-139 10-179H79C69-176 66-90 66-28v517h159V227c0-69 27-112 83-112 44 0 79 33 90 60 4 9 5 19 5 29v285h159V165c0-43 15-56 44-58L598-2c-13-6-33-10-59-10-61 0-103 30-118 85z"/><glyph glyph-name="nu" unicode="ν" horiz-adv-x="551" d="M-1 489h174l74-230c14-40 23-77 34-116h5c44 86 93 200 93 305 0 15 0 26-1 41h152c2-12 2-23 2-38 0-145-89-298-188-451H187z"/><glyph glyph-name="xi" unicode="ξ" horiz-adv-x="506" d="M423 441V337h-32c-124 0-185-48-185-116 0-56 38-96 147-121 44-11 86-17 135-23 7-1 11-6 11-14 0-53-32-165-76-219l-97 31c9 18 22 76 23 100C225-9 35 27 35 203c0 94 65 173 159 199v5c-73 27-109 80-109 144 0 90 80 177 243 177 71 0 115-12 154-29l-28-100c-27 12-65 21-98 21-73 0-110-38-110-90 0-54 52-82 137-88 12-1 26-1 40-1z"/><glyph glyph-name="omicron" unicode="ο" horiz-adv-x="625" d="M310-12h-1C158-12 34 83 34 240c0 152 108 261 286 261 161 0 271-105 271-251C591 80 460-12 310-12zm3 112h1c65 0 111 52 111 145 0 74-33 144-111 144-81 0-114-71-114-145 0-83 43-144 113-144z"/><glyph glyph-name="pi" unicode="π" horiz-adv-x="644" d="M609 370h-64V166c0-72 6-134 12-166H404c-13 17-17 84-17 151v219H269c-2-119-26-307-57-370H59c30 90 58 265 56 370-29 0-68-1-97-8L3 454c22 23 78 35 180 35h441z"/><glyph glyph-name="rho" unicode="ρ" horiz-adv-x="641" d="M222 38h-2v-67c0-54-1-131 6-171H71C64-176 61-90 61-28v215c0 147 50 209 99 251 51 41 107 63 185 63 151 0 262-97 262-254C607 76 478-12 358-12c-62 0-110 19-136 50zm-2 189v-23c0-10 0-16 2-26 10-31 51-70 105-70 74 0 117 56 117 136 0 73-41 128-110 128-63 0-114-55-114-145z"/><glyph glyph-name="uni03C2" unicode="ς" horiz-adv-x="492" d="M478 473l-33-108c-27 11-61 20-101 20-82 0-145-58-145-145 0-73 47-110 109-129 54-16 105-24 158-33 7-1 10-6 10-15 0-61-34-175-75-220l-98 32c10 18 23 76 26 100-21 3-49 8-78 15C133 19 34 85 34 230c0 135 105 271 302 271 56 0 107-11 142-28z"/><glyph glyph-name="sigma" unicode="σ" horiz-adv-x="647" d="M516 392l-2-5c46-41 66-100 66-146C580 75 457-12 310-12 158-12 34 80 34 237c0 152 107 264 297 264h305l-6-114c-27 0-61 1-114 5zM312 100h1c64 0 110 52 110 146 0 73-31 143-107 143-83 0-116-71-116-145 0-83 43-144 112-144z"/><glyph glyph-name="tau" unicode="τ" horiz-adv-x="483" d="M388 110L381 1c-13-8-43-13-74-13-114 0-152 56-152 177v205h-44c-52 0-78-2-102-7l-20 91c25 18 65 35 188 35h296l-16-119H314V175c0-50 21-65 53-65h21z"/><glyph glyph-name="upsilon" unicode="υ" horiz-adv-x="600" d="M370 489h148c18-33 41-102 41-191 0-148-67-310-269-310C162-12 57 57 57 210v110c0 77-2 137-14 169h155c13-13 18-36 18-94V223c0-72 40-108 88-108 70 0 99 81 99 180 0 84-22 167-33 194z"/><glyph glyph-name="phi" unicode="φ" horiz-adv-x="756" d="M232 505l54-89c-44-25-93-81-93-165 0-81 45-143 119-155v228c0 128 87 180 175 177 120-4 233-98 233-245C720 90 585-1 452-12v-188H312v188C166-2 34 80 34 249c0 136 112 230 198 256zm220-151V94c67 12 119 65 119 158 0 80-46 143-91 143-18 0-28-15-28-41z"/><glyph glyph-name="chi" unicode="χ" horiz-adv-x="541" d="M5 489h174l103-220h4c11 24 23 52 39 84l62 136h153L356 158l187-352-152-36L263 28l-5-1c-11-21-22-48-42-89l-82-168L0-192l188 348z"/><glyph glyph-name="psi" unicode="ψ" horiz-adv-x="777" d="M326-200v188C185-5 61 58 61 267v99c0 49-1 91-7 123h146c12-13 16-45 16-93V279c0-136 50-177 110-181v527h140V98c80 2 119 92 119 185 0 105-24 184-35 206h143c22-38 44-99 44-198 0-141-74-292-271-303v-188H326z"/><glyph glyph-name="omega" unicode="ω" horiz-adv-x="779" d="M463 380l-3-175c0-48 20-84 54-84 43 0 76 53 76 152 0 77-24 166-71 216v3h145c38-35 81-121 81-227C745 84 645-12 528-12c-59 0-116 28-140 80h-5c-29-47-77-80-140-80C138-12 34 74 34 251c0 111 42 194 83 241h145v-3c-43-54-73-140-73-226 0-99 40-142 75-142 32 0 53 33 52 84l-2 175h149z"/><glyph glyph-name="iotadieresis" unicode="ϊ" horiz-adv-x="295" d="M45 544h-1c-41 0-72 33-72 70 0 40 31 70 73 70 39 0 68-30 68-70 0-37-29-70-68-70zm214 0h-1c-41 0-70 33-70 70 0 40 30 70 71 70s70-30 70-70c0-37-29-70-70-70zm-34-55V156c0-36 14-50 47-47L265-1c-12-7-43-11-69-11-86 0-130 38-130 153v348h159z"/><glyph glyph-name="upsilondieresis" unicode="ϋ" horiz-adv-x="600" d="M185 544h-1c-41 0-72 33-72 70 0 40 32 70 73 70 39 0 68-30 68-70 0-37-29-70-68-70zm215 0h-1c-41 0-70 33-70 70 0 40 30 70 71 70s70-30 70-70c0-37-29-70-70-70zm-30-55h148c18-33 41-102 41-191 0-148-67-310-269-310C162-12 57 57 57 210v110c0 77-2 137-14 169h155c13-13 18-36 18-94V223c0-72 40-108 88-108 70 0 99 81 99 180 0 84-22 167-33 194z"/><glyph glyph-name="omicrontonos" unicode="ό" horiz-adv-x="625" d="M307 704h143l-87-156H256zm3-716h-1C158-12 34 83 34 240c0 152 108 261 286 261 161 0 271-105 271-251C591 80 460-12 310-12zm3 112h1c65 0 111 52 111 145 0 74-33 144-111 144-81 0-114-71-114-145 0-83 43-144 113-144z"/><glyph glyph-name="upsilontonos" unicode="ύ" horiz-adv-x="600" d="M287 704h144l-87-156H236zm83-215h148c18-33 41-102 41-191 0-148-67-310-269-310C162-12 57 57 57 210v110c0 77-2 137-14 169h155c13-13 18-36 18-94V223c0-72 40-108 88-108 70 0 99 81 99 180 0 84-22 167-33 194z"/><glyph glyph-name="omegatonos" unicode="ώ" horiz-adv-x="779" d="M384 704h143l-87-156H333zm79-324l-3-175c0-48 20-84 54-84 43 0 76 53 76 152 0 77-24 166-71 216v3h145c38-35 81-121 81-227C745 84 645-12 528-12c-59 0-116 28-140 80h-5c-29-47-77-80-140-80C138-12 34 74 34 251c0 111 42 194 83 241h145v-3c-43-54-73-140-73-226 0-99 40-142 75-142 32 0 53 33 52 84l-2 175h149z"/><glyph glyph-name="afii10023" unicode="Ё" horiz-adv-x="580" d="M507 410V281H228V129h312V0H69v674h455V545H228V410h279zM187 712h-1c-41 0-72 33-72 70 0 40 31 70 73 70 39 0 68-30 68-70 0-37-29-70-68-70zm215 0h-1c-41 0-70 33-70 70 0 40 30 70 71 70s70-30 70-70c0-37-29-70-70-70z"/><glyph glyph-name="afii10051" unicode="Ђ" horiz-adv-x="783" d="M16 674h610V547H369V423h4c29 17 80 32 133 32 77 0 129-29 170-72 44-47 68-123 68-207 0-142-62-251-172-296-42-24-84-33-118-36L432-28c34 7 73 21 98 49 26 27 46 74 46 140 0 57-12 101-33 127-23 28-51 40-89 40-36 0-66-14-85-28V0H210v547H16v127z"/><glyph glyph-name="afii10052" unicode="Ѓ" horiz-adv-x="526" d="M69 674h440V545H228V0H69v674zm221 163h169L336 710H205z"/><glyph glyph-name="afii10053" unicode="Є" horiz-adv-x="659" d="M627 650l-34-118c-36 15-91 29-154 29-129 0-208-63-228-159h346V282H212c10-105 106-167 239-167 46 0 101 9 141 25l25-117C584 7 513-12 425-12 180-12 38 126 38 337c0 185 135 349 395 349 95 0 164-22 194-36z"/><glyph glyph-name="afii10054" unicode="Ѕ" horiz-adv-x="589" d="M46 35l35 130c44-24 113-48 188-48 73 0 112 28 112 72 0 39-33 64-122 90-119 34-205 92-205 203 0 117 105 204 269 204 88 0 148-16 194-37l-38-126c-29 13-84 35-159 35-70 0-103-29-103-64 0-43 43-61 136-91 129-41 192-101 192-205 0-108-85-210-289-210-83 0-168 23-210 47z"/><glyph glyph-name="afii10055" unicode="І" horiz-adv-x="298" d="M69 674h159V0H69v674z"/><glyph glyph-name="afii10056" unicode="Ї" horiz-adv-x="298" d="M69 674h159V0H69v674zm-26 38h-1c-41 0-72 33-72 70 0 40 31 70 73 70 39 0 68-30 68-70 0-37-29-70-68-70zm215 0h-1c-41 0-70 33-70 70 0 40 30 70 71 70s70-30 70-70c0-37-29-70-70-70z"/><glyph glyph-name="afii10057" unicode="Ј" horiz-adv-x="449" d="M226 263v411h159V258c0-190-91-270-256-270C90-12 37-6 2 6l19 127c24-8 56-14 90-14 72 0 115 33 115 144z"/><glyph glyph-name="afii10058" unicode="Љ" horiz-adv-x="1022" d="M139 674h475V438c25 3 59 5 88 5 141 0 282-63 282-220 0-66-27-119-68-153C845 10 736-8 631-8 548-8 491-2 455 3v542H296V391c0-180-24-311-132-368C127 4 76-11 16-11L-1 115c39 5 69 22 88 41 42 44 52 133 52 226v292zm474-350V112c21-3 39-3 60-3 73 0 145 35 145 113 0 80-70 106-143 106-23 0-42-2-62-4z"/><glyph glyph-name="afii10059" unicode="Њ" horiz-adv-x="1029" d="M69 674h159V427h233v247h159V435c25 3 59 5 93 5 145 0 278-63 278-216 0-68-27-120-68-155C852 9 744-8 638-8 554-8 497-2 461 3v292H228V0H69v674zm550-353V113c21-3 40-4 62-4 75 0 144 34 144 112s-67 104-141 104c-28 0-46-2-65-4z"/><glyph glyph-name="afii10060" unicode="Ћ" horiz-adv-x="788" d="M16 674h603V547H370V415h4c35 21 96 40 154 40 60 0 106-18 138-50 39-38 57-95 57-166V0H564v213c0 37-7 67-26 88-15 17-37 27-70 27-37 0-71-13-98-32V0H211v547H16v127z"/><glyph glyph-name="afii10061" unicode="Ќ" horiz-adv-x="656" d="M69 674h158V398h15l211 276h198L389 379c94-20 138-79 168-159 28-76 54-151 89-220H471c-25 46-39 97-56 146-26 74-61 135-153 135h-35V0H69v674zm262 158h169L377 705H246z"/><glyph glyph-name="afii10062" unicode="Ў" horiz-adv-x="652" d="M8 676h182l110-238 56-136h3l43 138 83 236h169L519 353c-47-111-94-216-150-280-48-56-106-89-193-89-38 0-60 5-82 13l13 127c15-4 32-6 56-6 52 0 85 31 98 60 5 12 2 19-3 29zm163 159h110c1-40 13-63 45-63 31 0 43 22 47 63h109c-5-86-65-127-159-127s-144 43-152 127z"/><glyph glyph-name="afii10145" unicode="Џ" horiz-adv-x="728" d="M69 674h159V129h273v545h159V0H439l-8-193H299L291 0H69v674z"/><glyph glyph-name="afii10017" unicode="А" horiz-adv-x="722" d="M460 180H242L189 0H21l225 674h214L696 0H520zM267 297h167l-49 144c-13 39-26 84-37 122h-2c-11-38-21-83-33-122z"/><glyph glyph-name="afii10018" unicode="Б" horiz-adv-x="646" d="M69 674h482V545H228V438c25 3 63 5 92 5 72 0 149-17 204-56 49-34 83-88 83-164 0-66-27-117-67-152C469 11 352-8 247-8 163-8 105-2 69 3v671zm158-350V113c20-3 44-4 69-4 39 0 80 12 107 35 22 18 36 44 36 78 0 36-16 60-40 77-30 22-73 29-110 29-19 0-40-2-62-4z"/><glyph glyph-name="afii10019" unicode="В" horiz-adv-x="644" d="M69 3v662c40 7 130 15 213 15 103 0 159-10 209-35 51-23 90-69 90-136 0-59-36-114-115-142v-2c76-20 139-77 139-167 0-64-32-113-77-147C475 13 389-8 248-8 165-8 105-2 69 3zm158 557V410h57c92 0 136 31 136 80 0 52-44 75-118 75-40 0-61-2-75-5zm0-263V112c17-3 38-3 68-3 75 0 141 25 141 96 0 68-65 92-149 92h-60z"/><glyph glyph-name="afii10020" unicode="Г" horiz-adv-x="526" d="M69 674h440V545H228V0H69v674z"/><glyph glyph-name="afii10021" unicode="Д" horiz-adv-x="738" d="M172 674h472V123l73-5-8-296H588L579 0H150l-9-178H20l-6 296 59 5c29 46 54 95 70 147 21 65 29 137 29 220v184zm148-128v-93c0-78-11-154-34-220-14-39-32-76-51-106h250v419H320z"/><glyph glyph-name="afii10022" unicode="Е" horiz-adv-x="580" d="M507 410V281H228V129h312V0H69v674h455V545H228V410h279z"/><glyph glyph-name="afii10024" unicode="Ж" horiz-adv-x="933" d="M4 674h187l182-276h15v276h156V398h14l183 276h187L682 376c91-8 139-66 171-155 27-74 45-151 78-221H768c-23 46-38 102-53 151-24 76-58 130-143 130h-28V0H388v281h-29c-84 0-119-54-143-130-14-49-29-105-51-151H2c33 70 54 147 79 216 32 88 78 143 168 160z"/><glyph glyph-name="afii10025" unicode="З" horiz-adv-x="592" d="M88 516L48 627c53 30 128 59 231 59 153 0 249-73 249-175 0-90-60-142-142-161v-2c86-10 166-68 166-157C552 33 386-12 258-12 184-12 99 3 34 41l36 120c32-15 112-45 183-45 79 0 130 30 130 87 0 74-83 84-143 84h-79v117h80c72 0 121 32 121 83 0 44-40 72-108 72-59 0-124-23-166-43z"/><glyph glyph-name="afii10026" unicode="И" horiz-adv-x="749" d="M69 674h148V457c0-103-1-207-6-304h3c41 86 90 175 137 255l160 266h168V0H531v215c0 93 1 182 12 277h-3c-36-87-85-178-131-253L259 0H69v674z"/><glyph glyph-name="afii10027" unicode="Й" horiz-adv-x="749" d="M69 674h148V457c0-103-1-207-6-304h3c41 86 90 175 137 255l160 266h168V0H531v215c0 93 1 182 12 277h-3c-36-87-85-178-131-253L259 0H69v674zm151 160h110c1-40 13-63 45-63 31 0 43 22 47 63h109c-5-86-65-127-159-127s-144 43-152 127z"/><glyph glyph-name="afii10028" unicode="К" horiz-adv-x="656" d="M69 674h158V398h15l211 276h198L389 379c94-20 138-79 168-159 28-76 54-151 89-220H471c-25 46-39 97-56 146-26 74-61 135-153 135h-35V0H69v674z"/><glyph glyph-name="afii10029" unicode="Л" horiz-adv-x="695" d="M137 674h489V0H467v545H295V391c0-179-25-311-133-369C125 3 74-11 13-11L-3 115c39 5 69 22 87 41 42 43 53 133 53 226v292z"/><glyph glyph-name="afii10030" unicode="М" horiz-adv-x="916" d="M702 0l-10 265c-3 87-6 188-6 296h-3c-25-91-56-191-86-280L506 11H380l-79 268c-24 88-48 188-67 282h-2c-4-98-7-208-11-298L208 0H57l41 674h225l70-219c22-75 44-163 60-243h4c21 79 46 173 71 245l78 217h219L860 0H702z"/><glyph glyph-name="afii10031" unicode="Н" horiz-adv-x="746" d="M69 674h159V417h290v257h159V0H518v281H228V0H69v674z"/><glyph glyph-name="afii10032" unicode="О" horiz-adv-x="796" d="M391-12h-1C174-12 38 136 38 330c0 207 148 356 363 356 222 0 357-147 357-344 0-210-148-354-367-354zm6 124h1c119 0 191 96 191 225 0 122-71 225-191 225S207 461 207 335c0-125 74-223 190-223z"/><glyph glyph-name="afii10033" unicode="П" horiz-adv-x="732" d="M69 674h594V0H504v545H228V0H69v674z"/><glyph glyph-name="afii10034" unicode="Р" horiz-adv-x="622" d="M69 0v665c50 8 122 15 229 15 99 0 168-21 214-55 44-33 76-89 76-159 0-64-21-122-63-158-56-51-137-74-238-74-23 0-45 2-60 5V0H69zm158 556V360c15-4 33-5 60-5 86 0 143 39 143 109 0 63-49 97-131 97-36 0-60-2-72-5z"/><glyph glyph-name="afii10035" unicode="С" horiz-adv-x="662" d="M595 144l26-123C591 6 518-12 425-12 171-12 38 135 38 327c0 222 173 359 400 359 91 0 160-18 191-34l-34-124c-35 15-87 29-150 29-136 0-239-76-239-220 0-127 86-219 240-219 55 0 114 11 149 26z"/><glyph glyph-name="afii10036" unicode="Т" horiz-adv-x="599" d="M219 0v544H16v130h568V544H378V0H219z"/><glyph glyph-name="afii10037" unicode="У" horiz-adv-x="652" d="M8 676h182l110-238 56-136h3l43 138 83 236h169L519 353c-47-111-94-216-150-280-48-56-106-89-193-89-38 0-60 5-82 13l13 127c15-4 32-6 56-6 52 0 85 31 98 60 5 12 2 19-3 29z"/><glyph glyph-name="afii10038" unicode="Ф" horiz-adv-x="854" d="M352 704h152v-62c152-9 313-90 313-304 0-209-157-293-315-305v-63H350v63C197 42 38 123 38 332c0 218 176 300 314 310v62zm-1-561v391c-66-7-152-57-152-197 0-130 85-187 152-194zm152 391V143c65 6 153 54 153 195 0 138-81 188-153 196z"/><glyph glyph-name="afii10039" unicode="Х" horiz-adv-x="681" d="M659 0H469l-67 121-67 122h-2c-15-38-34-71-60-120L211 0H23l218 340L31 674h188l65-122c23-43 39-76 57-113h3c18 43 32 72 52 112l64 123h188L437 347z"/><glyph glyph-name="afii10040" unicode="Ц" horiz-adv-x="752" d="M69 674h159V128h271v546h159V123l73-5-8-296H602L593 0H69v674z"/><glyph glyph-name="afii10041" unicode="Ч" horiz-adv-x="690" d="M62 674h159V485c0-85 49-122 127-122 40 0 80 13 114 29v282h159V-9H462v285h-3c-55-26-106-38-170-38-124 0-227 61-227 216v220z"/><glyph glyph-name="afii10042" unicode="Ш" horiz-adv-x="978" d="M69 674h156V129h186v545h156V129h185v545h156V0H69v674z"/><glyph glyph-name="afii10043" unicode="Щ" horiz-adv-x="1002" d="M69 674h156V128h186v546h156V128h185v546h156V123l73-5-8-296H851L843 0H69v674z"/><glyph glyph-name="afii10044" unicode="Ъ" horiz-adv-x="751" d="M12 674h339V445c21 3 57 6 91 6 133 0 270-71 270-224 0-65-21-111-54-145C588 10 477-8 371-8 288-8 228-2 192 3v542H12v129zm338-348V113c16-3 36-4 64-4 71 0 130 37 130 113 0 80-65 108-131 108-21 0-45-2-63-4z"/><glyph glyph-name="afii10045" unicode="Ы" horiz-adv-x="909" d="M69 674h159V445c21 3 55 6 84 6 144 0 287-66 287-227 0-62-21-108-54-142C475 10 348-8 249-8 165-8 105-2 69 3v671zm158-348V113c13-3 36-4 61-4 71 0 143 35 143 114 0 80-82 107-142 107-24 0-45-2-62-4zm438 348h159V0H665v674z"/><glyph glyph-name="afii10046" unicode="Ь" horiz-adv-x="645" d="M69 674h159V445c25 3 63 6 92 6 151 0 287-66 287-223 0-64-21-112-54-146C483 10 356-8 249-8 165-8 105-2 69 3v671zm158-348V113c20-3 40-4 67-4 76 0 145 31 145 112 0 82-68 109-144 109-25 0-46-2-68-4z"/><glyph glyph-name="afii10047" unicode="Э" horiz-adv-x="647" d="M111 282v120h323c-12 96-85 159-206 159-62 0-119-16-157-31L40 645c46 19 120 41 198 41 252 0 371-151 371-349 0-235-173-349-385-349C148-12 72 4 33 22l27 120c39-16 100-27 154-27 119 0 207 61 220 167H111z"/><glyph glyph-name="afii10048" unicode="Ю" horiz-adv-x="1001" d="M69 674h159V413h88c31 164 153 273 324 273 203 0 326-147 326-344 0-211-136-354-336-354-181 0-300 122-319 294h-83V0H69v674zm567-564h1c106 0 168 98 168 227 0 123-61 227-169 227S466 461 466 335c0-125 64-225 170-225z"/><glyph glyph-name="afii10049" unicode="Я" horiz-adv-x="645" d="M179 0H9c15 23 26 49 37 77 30 80 51 154 102 202 17 15 36 27 59 36v4c-77 11-151 63-151 166 0 60 29 109 72 141 55 41 145 54 238 54 82 0 158-7 210-15V0H418v263h-44c-33 0-58-9-78-26-48-41-68-124-91-181-8-19-14-34-26-56zm239 379v177c-12 3-36 7-74 7-67 0-129-21-129-96 0-61 63-91 137-91 23 0 50 1 66 3z"/><glyph glyph-name="afii10065" unicode="а" horiz-adv-x="564" d="M500 288V121c0-49 3-95 8-121H364l-9 49h-4c-34-40-88-61-151-61C93-12 33 63 33 138c0 127 114 190 308 190v5c0 21-11 61-97 61-53 0-112-19-146-39L69 455c36 21 106 46 202 46 168 0 229-93 229-213zM346 186v43c-93 1-155-20-155-75 0-36 25-56 65-56 42 0 77 29 87 61 2 8 3 18 3 27z"/><glyph glyph-name="afii10066" unicode="б" horiz-adv-x="619" d="M528 726l-9-122c-31-9-90-16-128-18-68-7-125-23-162-61-34-34-58-92-62-133h6c33 57 97 97 174 97 145 0 237-102 237-244C584 81 464-12 313-12 139-12 38 115 38 318c0 133 40 239 121 307 53 48 123 74 213 82 50 5 117 10 156 19zM419 239v1c0 68-28 143-109 143-34 0-60-15-76-37-20-23-31-53-31-101 0-66 32-146 109-146 75 0 107 64 107 140z"/><glyph glyph-name="afii10067" unicode="в" horiz-adv-x="585" d="M65 2v480c36 5 131 13 215 13 82 0 251-8 251-125 0-63-53-94-103-103v-3c74-12 123-50 123-120C551 3 352-7 253-7 178-7 97-1 65 2zm158 394v-97h42c67 0 107 14 107 51 0 30-25 49-91 49-24 0-39-2-58-3zm-1-186V89c18-2 30-2 57-2 54 0 108 15 108 62 0 42-39 61-117 61h-48z"/><glyph glyph-name="afii10068" unicode="г" horiz-adv-x="446" d="M65 489h365V368H224V0H65v489z"/><glyph glyph-name="afii10069" unicode="д" horiz-adv-x="626" d="M134 489h413V111l58-2-8-275H477L473 0H141l-8-166H13L9 107l48 4c22 32 41 66 52 103 16 51 25 105 25 159v116zm138-115v-62c0-39-8-80-20-119-8-27-21-55-35-78h176v259H272z"/><glyph glyph-name="afii10070" unicode="е" horiz-adv-x="564" d="M528 195H186c5-59 74-89 149-89 56 0 102 6 149 22l21-106C449-1 385-12 313-12 137-12 34 88 34 240c0 110 75 261 264 261 177 0 236-137 236-249 0-23-3-47-6-57zM184 303h201c0 28-16 95-95 95-72 0-101-57-106-95z"/><glyph glyph-name="afii10072" unicode="ж" horiz-adv-x="783" d="M0 489h179l122-195h14v195h153V294h14l122 195h179L597 279c58-7 101-61 125-121 23-59 39-108 64-158H625c-15 24-27 61-46 110-21 54-55 81-99 81h-12V0H315v191h-12c-48 0-80-25-102-81-20-50-33-86-47-110H-3c25 50 41 99 65 158 25 64 66 114 124 121z"/><glyph glyph-name="afii10073" unicode="з" horiz-adv-x="524" d="M120 203v96h83c67 0 97 20 97 46s-30 46-87 46c-48 0-98-16-136-38l-33 91c65 39 146 55 217 55 82 0 208-23 208-133 0-66-62-97-108-107v-5c58-5 130-36 130-112C491 15 334-10 238-10 164-10 86 8 28 44l36 96c36-20 97-37 155-38 64 0 95 21 95 49 0 38-39 52-110 52h-84z"/><glyph glyph-name="afii10074" unicode="и" horiz-adv-x="645" d="M65 489h152V324c0-74-4-119-7-191h4c25 57 35 89 57 138l102 218h207V0H428v163c0 68 3 92 9 208h-5c-20-54-31-83-52-129L270 0H65v489z"/><glyph glyph-name="afii10075" unicode="й" horiz-adv-x="645" d="M65 489h152V324c0-74-4-119-7-191h4c25 57 35 89 57 138l102 218h207V0H428v163c0 68 3 92 9 208h-5c-20-54-31-83-52-129L270 0H65v489zm108 206h102c1-45 18-74 46-74 30 0 46 29 50 74h101c-6-98-65-146-153-146-96 0-141 57-146 146z"/><glyph glyph-name="afii10076" unicode="к" horiz-adv-x="568" d="M66 489h159V294h17l136 195h192L372 278c61-8 101-59 135-132 19-42 37-96 64-146H403c-13 19-26 51-48 105-24 58-58 86-114 86h-16V0H66v489z"/><glyph glyph-name="afii10077" unicode="л" horiz-adv-x="582" d="M94 489h423V0H358v369H241v-84c0-115-14-192-58-237C148 8 99-10 15-10L1 112c22 4 45 11 58 24 31 27 35 68 35 160v193z"/><glyph glyph-name="afii10078" unicode="м" horiz-adv-x="760" d="M48 0l34 489h204l58-195c8-24 23-78 33-116h2l42 130 60 181h203L713 0H565l-7 204c-2 41-5 117-7 159h-3c-22-73-20-66-48-145L425 8H313l-64 202c-13 44-29 105-40 149h-5c-2-48-3-120-5-158L189 0H48z"/><glyph glyph-name="afii10079" unicode="н" horiz-adv-x="619" d="M65 489h159V314h171v175h159V0H395v193H224V0H65v489z"/><glyph glyph-name="afii10080" unicode="о" horiz-adv-x="625" d="M310-12h-1C158-12 34 83 34 240c0 152 108 261 286 261 161 0 271-105 271-251C591 80 460-12 310-12zm3 112h1c65 0 111 52 111 145 0 74-33 144-111 144-81 0-114-71-114-145 0-83 43-144 113-144z"/><glyph glyph-name="afii10081" unicode="п" horiz-adv-x="615" d="M65 489h485V0H390v369H224V0H65v489z"/><glyph glyph-name="afii10082" unicode="р" horiz-adv-x="648" d="M66-200v522c0 66-2 121-4 167h138l7-72h2c42 55 104 84 184 84 107 0 221-85 221-248C614 74 488-12 370-12c-65 0-119 23-143 59h-2v-247H66zm159 466v-46c0-10 0-19 2-29 10-44 51-83 105-83 72 0 119 51 119 136 0 73-39 135-117 135-50 0-96-37-106-88-2-9-3-17-3-25z"/><glyph glyph-name="afii10083" unicode="с" horiz-adv-x="493" d="M444 129l21-115c-32-15-90-26-154-26C141-12 34 88 34 240c0 140 101 261 298 261 43 0 93-7 131-21l-26-117c-21 10-51 18-97 18-86 0-143-56-142-134 0-91 68-136 146-136 42 0 74 7 100 18z"/><glyph glyph-name="afii10084" unicode="т" horiz-adv-x="491" d="M13 489h465V369H325V0H166v369H13v120z"/><glyph glyph-name="afii10085" unicode="у" horiz-adv-x="567" d="M7 489h178l81-236c9-29 20-69 28-94h3c8 27 17 66 25 95l67 235h174L445 185C359-43 308-115 252-159c-56-45-114-60-158-64L63-90c19 3 42 9 67 21 25 11 54 37 70 62 5 8 9 16 9 22s-1 14-8 28z"/><glyph glyph-name="afii10086" unicode="ф" horiz-adv-x="774" d="M311 716h152l-2-219c144-12 279-93 279-255C740 78 598-1 461-9l2-191H311l2 191C175-1 34 81 34 241c0 166 137 244 279 256zm2-619v295c-77-14-118-69-118-148s41-132 118-147zm147 295V97c78 15 119 69 119 148s-41 133-119 147z"/><glyph glyph-name="afii10087" unicode="х" horiz-adv-x="561" d="M7 489h179l54-80c16-23 31-46 46-70h2c15 27 28 50 43 73l47 77h177L377 259 557 0H374l-54 87c-15 24-29 48-43 74h-2l-43-74-51-87H2l185 252z"/><glyph glyph-name="afii10088" unicode="ц" horiz-adv-x="630" d="M65 489h159V119h168v370h159V111l58-2-8-275H481L477 0H65v489z"/><glyph glyph-name="afii10089" unicode="ч" horiz-adv-x="595" d="M60 489h159V344c0-58 22-87 80-87 27 0 57 12 72 24v208h159V-8H371v186h-2c-32-20-84-33-134-33-107 0-175 60-175 183v161z"/><glyph glyph-name="afii10090" unicode="ш" horiz-adv-x="862" d="M65 489h158V119h129v370h158V119h130v370h158V0H65v489z"/><glyph glyph-name="afii10091" unicode="щ" horiz-adv-x="876" d="M65 489h158V119h129v370h158V119h130v370h158V111l57-2-8-275H727L723 0H65v489z"/><glyph glyph-name="afii10092" unicode="ъ" horiz-adv-x="690" d="M22 489h307V349c23 3 53 5 90 5 113 0 239-41 239-178 0-59-27-98-69-126C522 4 421-6 344-6c-60 0-119 2-175 9v367H22v119zm306-246V102c15-1 30-3 58-3 55 0 114 16 114 73 0 67-69 77-120 77-20 0-36-3-52-6z"/><glyph glyph-name="afii10093" unicode="ы" horiz-adv-x="827" d="M65 489h160V347c22 3 51 7 88 7 111 0 231-43 231-173 0-63-27-103-69-131C408 5 319-6 240-6 180-6 121-4 65 3v486zm159-246V102c15-2 30-3 52-3 55 0 110 18 110 77 0 56-52 73-101 73-29 0-46-3-61-6zm378 246h159V0H602v489z"/><glyph glyph-name="afii10094" unicode="ь" horiz-adv-x="589" d="M65 489h160V347c22 4 55 7 85 7 117 0 246-36 246-171 0-63-27-105-69-133C420 5 317-6 240-6 180-6 121-4 65 3v486zm159-245V102c15-1 30-3 58-3 51 0 116 15 116 76 0 63-72 74-118 74-24 0-40-3-56-5z"/><glyph glyph-name="afii10095" unicode="э" horiz-adv-x="521" d="M95 196v98h231c-12 57-57 92-140 92-51 0-91-12-121-25L35 461c54 27 122 40 179 40 67 0 138-17 188-59 49-42 85-104 85-197C487 92 378-12 192-12 132-12 75 1 27 24l25 106c21-9 70-22 125-22 73 0 129 28 144 88H95z"/><glyph glyph-name="afii10096" unicode="ю" horiz-adv-x="824" d="M65 489h159V309h68c25 112 113 192 250 192 145 0 248-105 248-250C790 89 675-12 533-12c-124 0-225 77-244 207h-65V0H65v489zM535 99h1c62 0 94 60 94 147 0 77-29 143-93 143-67 0-97-68-97-145 0-79 32-145 95-145z"/><glyph glyph-name="afii10097" unicode="я" horiz-adv-x="592" d="M528 486V0H369v181h-37c-38 0-64-19-82-44-22-26-35-65-49-95-7-15-12-24-21-42H9c13 15 22 35 32 55 18 37 41 100 73 131 16 18 37 32 62 37v3c-52 4-130 41-130 121 0 64 39 101 92 123 48 21 119 28 185 28 84 0 157-7 205-12zM369 279v116c-15 2-31 4-60 4-51 0-97-17-97-62 0-42 52-60 96-60 29 0 46 1 61 2z"/><glyph glyph-name="afii10071" unicode="ё" horiz-adv-x="564" d="M528 195H186c5-59 74-89 149-89 56 0 102 6 149 22l21-106C449-1 385-12 313-12 137-12 34 88 34 240c0 110 75 261 264 261 177 0 236-137 236-249 0-23-3-47-6-57zM184 303h201c0 28-16 95-95 95-72 0-101-57-106-95zm5 253h-1c-43 0-75 33-75 72 0 42 33 73 76 73 39 0 70-31 70-73 0-39-31-72-70-72zm221 0h-2c-41 0-72 33-72 72 0 42 31 73 74 73 41 0 72-31 72-73 0-39-31-72-72-72z"/><glyph glyph-name="afii10099" unicode="ђ" horiz-adv-x="628" d="M1 647h79v69h159v-69h227V541H239V433h2c32 29 81 53 137 53 74 0 128-39 163-97 34-54 49-117 49-196 0-144-46-259-138-310-43-25-88-38-123-40L301-32c29 6 52 13 78 38 28 26 51 90 51 173 0 49-8 100-29 135-15 26-42 45-74 45s-60-18-76-36c-9-9-12-18-12-38V0H80v541H1v106z"/><glyph glyph-name="afii10100" unicode="ѓ" horiz-adv-x="446" d="M65 489h365V368H224V0H65v489zm191 217h149L275 550H164z"/><glyph glyph-name="afii10101" unicode="є" horiz-adv-x="506" d="M477 474l-29-109c-23 11-63 21-107 21-76 0-127-34-141-92h216v-98H204c14-60 69-88 143-88 42 0 84 10 108 19l23-108c-29-16-91-31-159-31C143-12 35 87 35 240c0 176 143 261 304 261 51 0 108-12 138-27z"/><glyph glyph-name="afii10102" unicode="ѕ" horiz-adv-x="471" d="M37 25l29 113c31-19 96-40 144-40 51 0 71 15 71 39 0 25-16 37-78 53C95 220 50 277 51 338c0 93 82 163 212 163 63 0 119-15 150-30l-27-108c-23 12-72 30-119 30-39 0-62-13-62-39 0-24 22-36 88-54 99-29 142-75 143-152 0-88-71-160-225-160C140-12 80 4 37 25z"/><glyph glyph-name="afii10103" unicode="і" horiz-adv-x="291" d="M225 0H66v489h159V0zm-79 550h-1c-52 0-84 35-84 77 0 44 32 78 85 78s84-34 85-78c0-42-32-77-85-77z"/><glyph glyph-name="afii10104" unicode="ї" horiz-adv-x="291" d="M225 0H66v489h159V0zM37 556h-1c-43 0-75 33-75 72 0 42 33 73 76 73 39 0 70-31 70-73 0-39-31-72-70-72zm221 0h-2c-41 0-72 33-72 72 0 42 31 73 74 73 41 0 72-31 72-73 0-39-31-72-72-72z"/><glyph glyph-name="afii10105" unicode="ј" horiz-adv-x="314" d="M-23-220L-39-96c45 3 78 14 98 34C82-38 92 2 92 107v382h159V66c0-105-23-175-70-220-48-46-123-66-204-66zm194 770h-1c-52 0-84 35-84 77 0 44 32 78 85 78s84-34 85-78c0-42-32-77-85-77z"/><glyph glyph-name="afii10106" unicode="љ" horiz-adv-x="876" d="M97 489h421V344c22 3 57 6 84 6 115 0 241-44 241-176 0-59-26-97-61-123C716 2 612-6 539-6c-58 0-125 2-181 9v366H243v-84c0-115-17-191-60-236C149 8 99-10 16-10L1 112c23 4 45 12 58 22 34 27 38 81 38 162v193zm420-247V102c15-2 30-3 57-3 48 0 111 14 111 73 0 60-61 74-104 74-24 0-46-2-64-4z"/><glyph glyph-name="afii10107" unicode="њ" horiz-adv-x="893" d="M65 489h159V327h152v162h160V343c22 3 57 6 86 6 113 0 238-46 238-175 0-59-26-97-61-124C733 1 630-6 557-6c-58 0-125 2-181 9v209H224V0H65v489zm470-248V102c15-1 31-3 58-3 47 0 109 15 109 73 0 61-60 74-108 74-23 0-41-2-59-5z"/><glyph glyph-name="afii10108" unicode="ћ" horiz-adv-x="642" d="M1 647h79v69h159v-69h211V541H239V413h2c18 23 40 39 64 52 25 12 55 20 85 20 114 0 187-77 187-219V0H418v243c0 71-27 115-89 115-47 0-74-30-85-56-4-10-5-22-5-33V0H80v541H1v106z"/><glyph glyph-name="afii10109" unicode="ќ" horiz-adv-x="568" d="M66 489h159V294h17l136 195h192L372 278c61-8 101-59 135-132 19-42 37-96 64-146H403c-13 19-26 51-48 105-24 58-58 86-114 86h-16V0H66v489zm232 217h149L317 550H206z"/><glyph glyph-name="afii10110" unicode="ў" horiz-adv-x="567" d="M7 489h178l81-236c9-29 20-69 28-94h3c8 27 17 66 25 95l67 235h174L445 185C359-43 308-115 252-159c-56-45-114-60-158-64L63-90c19 3 42 9 67 21 25 11 54 37 70 62 5 8 9 16 9 22s-1 14-8 28zm127 206h102c1-45 18-74 46-74 30 0 46 29 50 74h101c-6-98-65-146-153-146-96 0-141 57-146 146z"/><glyph glyph-name="afii10193" unicode="џ" horiz-adv-x="616" d="M65 489h159V119h168v370h159V0H381l-9-174H244L234 0H65v489z"/><glyph glyph-name="afii10050" unicode="Ґ" horiz-adv-x="531" d="M69 674h321l17 132h114l-11-261H228V0H69v674z"/><glyph glyph-name="afii10098" unicode="ґ" horiz-adv-x="466" d="M65 489h254l16 121h108l-8-242H224V0H65v489z"/><glyph glyph-name="afii10846" unicode="ә" horiz-adv-x="564" d="M79 359L58 465c56 23 123 36 194 36 174 0 277-100 277-252 0-110-75-261-262-261C88-12 29 125 29 237c0 23 3 47 6 57h342c-5 59-62 89-145 89-52 0-98-6-153-24zm300-173H178c0-28 18-95 98-95 73 0 98 57 103 95z"/><glyph glyph-name="Wgrave" unicode="Ẁ" horiz-adv-x="957" d="M370 0H191L16 674h172l58-280 44-236h2c11 70 28 153 46 238l61 278h180l57-291c15-79 27-150 37-220h2c11 71 27 151 44 233l62 278h164L753 0H578l-63 314c-14 68-25 128-33 202h-2c-11-74-22-134-39-203zm-69 837h169l85-124H424z"/><glyph glyph-name="wgrave" unicode="ẁ" horiz-adv-x="807" d="M13 489h160l44-197c11-49 21-105 31-164h2c10 58 26 115 39 163l54 198h127l51-191c15-56 29-112 40-170h2c7 58 19 115 32 172l45 189h155L638 0H485l-49 172c-14 49-23 90-34 152h-2c-10-63-20-106-33-151L316 0H163zm231 217h149l92-156H374z"/><glyph glyph-name="Wacute" unicode="Ẃ" horiz-adv-x="957" d="M370 0H191L16 674h172l58-280 44-236h2c11 70 28 153 46 238l61 278h180l57-291c15-79 27-150 37-220h2c11 71 27 151 44 233l62 278h164L753 0H578l-63 314c-14 68-25 128-33 202h-2c-11-74-22-134-39-203zm133 837h169L549 710H418z"/><glyph glyph-name="wacute" unicode="ẃ" horiz-adv-x="807" d="M13 489h160l44-197c11-49 21-105 31-164h2c10 58 26 115 39 163l54 198h127l51-191c15-56 29-112 40-170h2c7 58 19 115 32 172l45 189h155L638 0H485l-49 172c-14 49-23 90-34 152h-2c-10-63-20-106-33-151L316 0H163zm407 217h149L439 550H328z"/><glyph glyph-name="Wdieresis" unicode="Ẅ" horiz-adv-x="957" d="M370 0H191L16 674h172l58-280 44-236h2c11 70 28 153 46 238l61 278h180l57-291c15-79 27-150 37-220h2c11 71 27 151 44 233l62 278h164L753 0H578l-63 314c-14 68-25 128-33 202h-2c-11-74-22-134-39-203zm13 712h-1c-41 0-72 33-72 70 0 40 31 70 73 70 39 0 68-30 68-70 0-37-29-70-68-70zm215 0h-1c-41 0-70 33-70 70 0 40 30 70 71 70s70-30 70-70c0-37-29-70-70-70z"/><glyph glyph-name="wdieresis" unicode="ẅ" horiz-adv-x="807" d="M13 489h160l44-197c11-49 21-105 31-164h2c10 58 26 115 39 163l54 198h127l51-191c15-56 29-112 40-170h2c7 58 19 115 32 172l45 189h155L638 0H485l-49 172c-14 49-23 90-34 152h-2c-10-63-20-106-33-151L316 0H163zm282 67h-1c-43 0-75 33-75 72 0 42 33 73 76 73 39 0 70-31 70-73 0-39-31-72-70-72zm221 0h-2c-41 0-72 33-72 72 0 42 31 73 74 73 41 0 72-31 72-73 0-39-31-72-72-72z"/><glyph glyph-name="Ygrave" unicode="Ỳ" horiz-adv-x="670" d="M410 0H251v282L17 674h186l76-163c23-50 39-81 57-124h2c17 40 35 76 57 123l77 164h184L410 288V0zM168 835h169l85-124H291z"/><glyph glyph-name="ygrave" unicode="ỳ" horiz-adv-x="567" d="M7 489h178l81-236c9-29 20-69 28-94h3c8 27 17 66 25 95l67 235h174L445 185C359-43 308-115 252-159c-56-45-114-60-158-64L63-90c19 3 42 9 67 21 25 11 54 37 70 62 5 8 9 16 9 22s-1 14-8 28zm123 217h149l92-156H260z"/><glyph glyph-name="endash" unicode="–" horiz-adv-x="500" d="M30 300h440v-95H30v95z"/><glyph glyph-name="emdash" unicode="—" horiz-adv-x="1000" d="M30 300h940v-95H30v95z"/><glyph glyph-name="quoteleft" unicode="‘" horiz-adv-x="284" d="M185 419l-152-9c32 100 76 201 123 277l100 8c-31-86-56-185-71-276z"/><glyph glyph-name="quoteright" unicode="’" horiz-adv-x="284" d="M104 686l152 9c-32-100-76-201-123-277l-100-8c31 86 56 186 71 276z"/><glyph glyph-name="quotesinglbase" unicode="‚" horiz-adv-x="284" d="M120-94l-100-8C51-16 76 83 91 174l152 9C211 83 167-18 120-94z"/><glyph glyph-name="quotedblleft" unicode="“" horiz-adv-x="493" d="M185 419l-152-9c32 100 76 201 123 277l100 8c-31-86-56-185-71-276zm209 0l-152-9c32 100 76 201 123 277l100 8c-31-86-56-185-71-276z"/><glyph glyph-name="quotedblright" unicode="”" horiz-adv-x="493" d="M104 686l152 9c-32-100-76-201-123-277l-100-8c31 86 56 186 71 276zm209 0l152 9c-32-100-76-201-123-277l-100-8c31 86 56 186 71 276z"/><glyph glyph-name="quotedblbase" unicode="„" horiz-adv-x="499" d="M120-94l-100-8C51-16 76 83 91 174l152 9C211 83 167-18 120-94zm209 0l-100-8c31 86 56 185 71 276l152 9C420 83 376-18 329-94z"/><glyph glyph-name="dagger" unicode="†" horiz-adv-x="557" d="M204 674h148l-16-205 185 14V362l-185 14 16-426H204l16 426-185-14v121l185-14z"/><glyph glyph-name="daggerdbl" unicode="‡" horiz-adv-x="557" d="M206 674h144l-12-187 183 14V380l-183 14V240l183 14V133l-183 14 12-196H206l12 196-183-14v121l183-14v154L35 380v121l183-14z"/><glyph glyph-name="bullet" unicode="•" horiz-adv-x="355" d="M177 121h-1c-75 0-137 60-137 138-2 76 62 138 138 138 77 0 139-62 139-138s-62-138-139-138z"/><glyph glyph-name="ellipsis" unicode="…" horiz-adv-x="1000" d="M166-12h-1c-56 0-93 40-93 94 0 55 38 94 94 94 57 0 93-39 94-94 0-54-37-94-94-94zm334 0h-1c-56 0-93 40-93 94 0 55 38 94 94 94 57 0 93-39 94-94 0-54-37-94-94-94zm334 0h-1c-56 0-93 40-93 94 0 55 38 94 94 94 57 0 93-39 94-94 0-54-37-94-94-94z"/><glyph glyph-name="perthousand" unicode="‰" horiz-adv-x="1393" d="M228 662h1c117 0 191-74 191-192 0-135-94-210-198-210-101 0-192 67-192 197 0 119 79 205 198 205zm-2-88h-1c-51 0-73-53-73-114-1-63 26-112 74-112 47 0 72 43 72 114 0 62-21 112-72 112zM329-12h-86l381 672h85zm403 403h1c117 0 191-74 191-192 0-134-94-209-198-209-101 0-192 67-192 196 0 119 79 205 198 205zm-2-88h-1c-51 0-73-53-73-113-1-63 26-112 74-112 47 0 72 42 72 113 0 62-21 112-72 112zm440 88h1c117 0 191-74 191-192 0-134-94-209-198-209-101 0-192 67-192 196 0 119 79 205 198 205zm-2-88h-1c-51 0-73-53-73-113-1-63 26-112 74-112 47 0 72 42 72 113 0 62-21 112-72 112z"/><glyph glyph-name="guilsinglleft" unicode="‹" horiz-adv-x="287" d="M259 445L136 252 259 60H149L30 252l119 193h110z"/><glyph glyph-name="guilsinglright" unicode="›" horiz-adv-x="287" d="M151 252L28 445h108l121-193L136 60H28z"/><glyph glyph-name="fraction" unicode="⁄" horiz-adv-x="460" d="M86-12H-2l376 674h88z"/><glyph glyph-name="fraction" unicode="∕" horiz-adv-x="460" d="M86-12H-2l376 674h88z"/><glyph glyph-name="zerosuperior" unicode="⁰" horiz-adv-x="407" d="M202 446h-1C82 446 23 531 23 647c0 109 55 199 179 199 119 0 182-82 182-201 0-94-47-199-182-199zm1 78h1c37 0 62 41 62 122 0 84-26 122-64 122-37 0-61-42-61-122s25-122 62-122z"/><glyph glyph-name="foursuperior" unicode="⁴" horiz-adv-x="424" d="M346 451H230v91H23v64l174 238h149V618h55v-76h-55v-91zM230 618v74c0 24 3 49 4 76h-2c-14-27-27-52-40-71l-55-78 3-1h90z"/><glyph glyph-name="fivesuperior" unicode="⁵" horiz-adv-x="372" d="M318 840v-87H142l-7-45c8 1 20 1 30 1 45 0 91-6 123-28 30-18 52-52 52-98 0-78-72-137-188-137-48 0-103 12-129 24l19 80c18-9 63-22 104-22 32 0 80 12 80 50 0 32-27 56-120 56-23 0-47-2-64-4l28 210h248z"/><glyph glyph-name="sixsuperior" unicode="⁶" horiz-adv-x="385" d="M312 844v-81c-9 2-25 3-38 3-79-3-126-32-141-77l2-1c21 14 56 27 92 27 79 0 135-47 135-125 0-95-84-144-163-144-126 0-176 90-176 174 0 63 24 126 69 166 45 39 98 58 181 59 14 1 31 1 39-1zM197 527h1c29 0 54 23 54 55s-18 61-63 61c-28 0-49-18-57-37-2-5-3-10-3-15 0-31 24-64 68-64z"/><glyph glyph-name="sevensuperior" unicode="⁷" horiz-adv-x="358" d="M27 840h314v-65L165 451H45l178 302v1H27v86z"/><glyph glyph-name="eightsuperior" unicode="⁸" horiz-adv-x="381" d="M191 846h1c105 0 146-56 146-102 0-39-26-70-60-83v-2c35-11 79-39 79-93 0-67-60-120-170-120-122 0-162 66-162 108 0 47 32 75 76 92v2c-39 17-63 49-63 85 0 68 66 113 153 113zm0-325h1c29 0 53 15 53 40 0 33-31 46-61 53-33-10-49-24-49-49 0-22 23-44 56-44zm-3 252h-1c-30 0-48-16-48-37 0-22 23-38 58-47 21 6 40 20 40 42 0 23-18 42-49 42z"/><glyph glyph-name="ninesuperior" unicode="⁹" horiz-adv-x="381" d="M61 448v80c9-2 28-2 38-2 34 1 68 7 92 20 31 16 50 39 56 62l-2 2c-16-15-46-27-86-27-70 0-136 42-136 123 0 82 74 140 164 140 122 0 171-89 171-170 0-73-23-133-67-172-47-40-111-56-191-57-14-1-32 0-39 1zm128 318h-1c-29 0-55-23-55-56 0-27 19-55 58-55 28 0 45 12 54 26 3 4 4 11 4 16 0 33-15 69-60 69z"/><glyph glyph-name="parenleftsuperior" unicode="⁽" horiz-adv-x="218" d="M113 875h79c-25-50-57-136-57-237 0-105 30-184 57-237h-79c-28 44-68 124-68 237 0 115 41 194 68 237z"/><glyph glyph-name="parenrightsuperior" unicode="⁾" horiz-adv-x="218" d="M104 401H26c27 55 57 135 57 237S53 824 26 875h78c29-44 69-124 69-237s-39-191-69-237z"/><glyph glyph-name="zeroinferior" unicode="₀" horiz-adv-x="407" d="M202-152h-1C82-152 23-67 23 49c0 109 55 199 179 199 119 0 182-82 182-201 0-94-47-199-182-199zm1 78h1c37 0 62 41 62 122 0 84-26 122-64 122-37 0-61-42-61-122s25-122 62-122z"/><glyph glyph-name="oneinferior" unicode="₁" horiz-adv-x="320" d="M249-147H124v291h-1l-82-36-16 87 116 48h108v-390z"/><glyph glyph-name="twoinferior" unicode="₂" horiz-adv-x="378" d="M17-147v57l67 55c84 69 124 99 124 142 0 25-22 46-61 46-36 0-70-13-94-29l-34 78c37 25 93 46 158 46 101 0 161-50 161-123 0-71-55-114-118-162l-26-19v-2h152v-89H17z"/><glyph glyph-name="threeinferior" unicode="₃" horiz-adv-x="376" d="M51 138l-25 76c32 18 90 34 156 34 100 0 153-42 153-100 0-43-37-75-88-88v-2c60-5 105-40 105-92 0-70-75-118-191-118-59 0-118 13-151 31l26 81c22-12 69-29 109-29 44 0 75 18 75 43 0 32-45 47-91 47H93v70h35c34 0 79 10 79 40 0 19-15 34-55 34s-82-16-101-27z"/><glyph glyph-name="fourinferior" unicode="₄" horiz-adv-x="424" d="M346-147H230v91H23V8l174 238h149V20h55v-76h-55v-91zM230 20v74c0 24 3 49 4 76h-2c-14-27-27-52-40-71l-55-78 3-1h90z"/><glyph glyph-name="fiveinferior" unicode="₅" horiz-adv-x="372" d="M318 242v-87H142l-7-45c8 1 20 1 30 1 45 0 91-6 123-28 30-18 52-52 52-98 0-78-72-137-188-137-48 0-103 12-129 24l19 80c18-9 63-22 104-22 32 0 80 12 80 50 0 32-27 56-120 56-23 0-47-2-64-4l28 210h248z"/><glyph glyph-name="sixinferior" unicode="₆" horiz-adv-x="385" d="M312 246v-81c-9 2-25 3-38 3-79-3-126-32-141-77l2-1c21 14 56 27 92 27 79 0 135-47 135-125 0-95-84-144-163-144C73-152 23-62 23 22c0 63 24 126 69 166 45 39 98 58 181 59 14 1 31 1 39-1zM197-71h1c29 0 54 23 54 55s-18 61-63 61c-28 0-49-18-57-37-2-5-3-10-3-15 0-31 24-64 68-64z"/><glyph glyph-name="seveninferior" unicode="₇" horiz-adv-x="358" d="M27 242h314v-65L165-147H45l178 302v1H27v86z"/><glyph glyph-name="eightinferior" unicode="₈" horiz-adv-x="381" d="M191 248h1c105 0 146-56 146-102 0-39-26-70-60-83v-2c35-11 79-39 79-93 0-67-60-120-170-120C65-152 25-86 25-44c0 47 32 75 76 92v2c-39 17-63 49-63 85 0 68 66 113 153 113zm0-325h1c29 0 53 15 53 40 0 33-31 46-61 53-33-10-49-24-49-49 0-22 23-44 56-44zm-3 252h-1c-30 0-48-16-48-37 0-22 23-38 58-47 21 6 40 20 40 42 0 23-18 42-49 42z"/><glyph glyph-name="nineinferior" unicode="₉" horiz-adv-x="381" d="M61-150v80c9-2 28-2 38-2 34 1 68 7 92 20 31 16 50 39 56 62l-2 2c-16-15-46-27-86-27C89-15 23 27 23 108c0 82 74 140 164 140 122 0 171-89 171-170 0-73-23-133-67-172-47-40-111-56-191-57-14-1-32 0-39 1zm128 318h-1c-29 0-55-23-55-56 0-27 19-55 58-55 28 0 45 12 54 26 3 4 4 11 4 16 0 33-15 69-60 69z"/><glyph glyph-name="parenleftinferior" unicode="₍" horiz-adv-x="218" d="M113 277h79c-25-50-57-136-57-237 0-105 30-184 57-237h-79C85-153 45-73 45 40c0 115 41 194 68 237z"/><glyph glyph-name="parenrightinferior" unicode="₎" horiz-adv-x="218" d="M104-197H26C53-142 83-62 83 40S53 226 26 277h78c29-44 69-124 69-237s-39-191-69-237z"/><glyph glyph-name="Euro" unicode="€" horiz-adv-x="598" d="M539 143l27-112C528 9 464-12 393-12c-113 0-212 46-272 128-25 33-43 72-53 116H-1v72h58v18c0 9 1 19 2 28H-1v72h72c13 52 39 98 74 135 61 66 148 105 248 105 66 0 127-15 169-33l-31-117c-30 14-76 28-126 28-53 0-103-19-137-59-15-16-26-37-33-59h281v-72H217c-1-9-1-19-1-29v-17h300v-72H233c7-25 19-47 35-63 36-38 87-55 145-55 51 0 103 17 126 29z"/><glyph glyph-name="afii61289" unicode="ℓ" horiz-adv-x="589" d="M264 494V348c62 60 97 131 97 190 0 48-18 75-44 75-29 0-53-35-53-119zm219-290l73-69C493 27 404-11 311-11c-98 0-162 43-189 136-1 2-1 4-2 6l-50-30-41 85c27 17 59 39 87 58v217c0 173 83 251 199 251 103 0 166-70 166-174 0-122-75-215-217-329v-5c1-56 34-86 84-86 63 0 109 52 135 86z"/><glyph glyph-name="afii61352" unicode="№" horiz-adv-x="1041" d="M829 635h1c112 0 186-75 186-177 0-123-84-184-190-184-105 0-189 64-189 177 0 109 77 184 192 184zm-2-78h-1c-42 0-63-55-63-105 0-57 29-101 64-101 41 0 64 40 64 103 0 53-22 103-64 103zm159-401H669v78h317v-78zM205 0H68v650h181l114-235c34-72 66-153 94-227h2c-8 88-11 172-11 269v193h137V0H422L300 250c-35 72-66 155-98 232h-3c4-87 6-179 6-283V0z"/><glyph glyph-name="trademark" unicode="™" horiz-adv-x="686" d="M27 674h255v-67h-86V401h-85v206H27v67zm649-273h-83l-6 120c-1 30 1 65 0 106h-6c-8-34-17-74-25-106l-31-115h-82l-27 116c-5 26-12 69-19 105h-5c-1-37-1-75-3-106l-6-120h-81l18 273h133l21-67c5-19 9-43 17-88h2c7 33 14 60 21 88l22 67h124z"/><glyph glyph-name="estimated" unicode="℮" horiz-adv-x="817" d="M782 316H177c-3 0-5-1-5-4V129c0-8 4-15 9-21C238 47 320 9 410 9c96 0 182 43 240 111h55C637 41 529-11 409-11 203-11 35 139 35 325s168 336 374 336 373-150 373-336v-9zm-136 24v184c0 9-4 16-10 22-58 58-138 95-226 95-90 0-170-38-228-98-6-6-10-14-10-23V340c0-3 2-5 5-5h464c3 0 5 2 5 5z"/><glyph glyph-name="partialdiff" unicode="∂" horiz-adv-x="613" d="M96 563L49 670c28 19 101 61 213 61 182 0 317-145 317-365 0-245-146-378-320-378C95-12 24 119 24 214c0 130 89 246 233 246 88 0 144-52 164-85h1v18c0 117-67 210-179 210-73 0-124-27-147-40zm181-449h1c67 0 116 71 127 142-9 34-49 82-110 82-65 0-111-53-111-123 0-62 40-101 93-101z"/><glyph glyph-name="uni2206" unicode="∆" horiz-adv-x="690" d="M641 0H49v80l200 572h195L641 80V0zM466 128l-86 258c-13 40-31 108-42 149h-4c-8-30-24-100-37-140l-86-267h255z"/><glyph glyph-name="product" unicode="∏" horiz-adv-x="719" d="M707 521H604V-90H456v611H264V-90H116v611H13v129h694V521z"/><glyph glyph-name="summation" unicode="∑" horiz-adv-x="587" d="M584-90H15v89l237 276L29 545v105h525V521H234v-4l193-236L225 43v-4h359V-90z"/><glyph glyph-name="minus" unicode="−" horiz-adv-x="596" d="M40 316h516v-97H40v97z"/><glyph glyph-name="radical" unicode="√" horiz-adv-x="605" d="M641 841L400-80H294L123 331l-79-33-27 71 182 77 116-303c10-26 18-51 25-76h2c4 22 10 50 18 79l174 695h107z"/><glyph glyph-name="infinity" unicode="∞" horiz-adv-x="755" d="M557 95h-1c-73 0-131 54-180 102-52-49-100-102-187-102-98 0-163 73-163 169 0 90 68 169 171 169 74 0 132-54 181-102 52 49 100 102 187 102 98 0 163-73 163-169 0-90-68-169-171-169zm-3 95h1c40 0 71 33 71 74 0 43-30 74-69 74-45 0-81-39-116-73 30-29 67-75 113-75zm-357 0h1c44 0 80 39 115 73-30 29-67 75-113 75-41 0-72-33-72-74 0-43 30-74 69-74z"/><glyph glyph-name="integral" unicode="∫" horiz-adv-x="363" d="M359 801l-14-93c-11 3-23 5-36 5-22 0-41-10-51-27-15-23-23-66-23-147 0-152 17-275 17-444 0-82-15-146-36-183-30-56-84-79-137-79-28 0-59 5-74 12l17 96c10-4 26-6 41-6 19 0 33 8 45 22 16 20 29 57 29 134 0 172-17 297-17 457 0 109 22 170 64 216 29 31 70 45 115 45 25 0 49-4 60-8z"/><glyph glyph-name="approxequal" unicode="≈" horiz-adv-x="596" d="M514 440l63-58c-35-61-95-105-164-105-52 0-90 22-123 36-30 13-61 34-107 34-50 0-85-35-110-66l-55 62c35 53 93 101 166 101 54 0 88-22 120-36 30-13 62-34 106-34 51 0 87 43 104 66zm5-214l59-54c-35-65-97-109-166-109-50 0-88 22-120 36-30 13-62 34-110 34-45 0-83-35-108-66l-55 64c35 55 97 99 165 99 53 0 89-22 122-36 30-13 61-34 106-34 51 0 86 35 107 66z"/><glyph glyph-name="notequal" unicode="≠" horiz-adv-x="596" d="M556 112H247l-61-99H85l64 99H40v97h171l74 117H40v97h307l60 99h101l-63-99h111v-97H383l-74-117h247v-97z"/><glyph glyph-name="lessequal" unicode="≤" horiz-adv-x="596" d="M539 119L58 294v94l480 175V458L192 342v-2l347-116V119zM538 0H59v90h479V0z"/><glyph glyph-name="greaterequal" unicode="≥" horiz-adv-x="596" d="M538 294L58 119v105l346 116v2L58 458v105l480-175v-94zM537 0H58v90h479V0z"/><glyph glyph-name="lozenge" unicode="◊" horiz-adv-x="599" d="M558 324L359-40H239L41 324l198 364h120zm-128-3L313 547c-6 9-12 22-15 30h-2c-3-8-9-21-14-30L169 327l117-227c5-9 11-22 14-29h2c3 7 10 20 14 29z"/><glyph glyph-name="uniEFED" unicode="" d="M153 712h-1c-41 0-72 33-72 70 0 39 31 70 73 70 39 0 68-31 68-70 0-37-29-70-68-70z"/><glyph glyph-name="uniEFEE" unicode="" d="M3 853h84c4-22 17-47 62-47s61 23 67 47h80c-2-74-46-130-147-130C45 723 5 779 3 853z"/><glyph glyph-name="uniEFF1" unicode="" d="M78 1h81c-7-14-24-40-24-69 0-32 21-57 57-57 20 0 37 5 47 9l23-73c-27-22-72-34-106-34-71 0-118 34-118 110C38-67 64-17 78 1z"/><glyph glyph-name="uniEFF2" unicode="" d="M120 4h85l-23-48c39-10 75-36 75-85 0-71-65-94-122-94-32 0-65 5-89 20l19 63c15-8 39-14 58-14 21 0 37 7 37 24 0 21-23 32-82 39z"/><glyph glyph-name="uniEFF3" unicode="" horiz-adv-x="400" d="M201 898h1c75 0 116-43 116-101 0-56-46-98-117-98-72 0-119 43-119 98 0 57 43 101 119 101zm-2-52h-1c-28 0-45-23-45-49 0-24 19-46 46-46 28 0 47 20 47 47 0 25-19 48-47 48z"/><glyph glyph-name="uniEFF5" unicode="" d="M76 713H3c-3 88 30 132 80 132 28 0 48-10 68-21 18-10 34-20 47-20 17 0 24 10 28 44h72c2-91-28-127-82-127-29 0-50 9-69 19s-32 19-46 19c-13 0-23-15-25-46z"/><glyph glyph-name="uniEFF7" unicode="" d="M92 837h117l107-127H205l-54 66h-2l-53-66H-15z"/><glyph glyph-name="uniF629" unicode="" horiz-adv-x="351" d="M242-5h-69v56c-41 5-74 23-97 48s-36 61-36 100c0 69 43 138 133 155v52h69v-50c17 0 40-4 60-11l-17-78c-12 5-29 10-53 10-52 0-80-28-80-72 0-54 37-75 80-75 24 0 45 4 60 10l15-75c-17-9-42-14-65-16V-5z"/><glyph glyph-name="uniF62A" unicode="" horiz-adv-x="381" d="M225-50h-67V3C108 5 60 19 33 34l22 80c33-17 75-31 122-31 40 0 62 11 62 31s-17 28-73 43C89 178 38 203 38 269c0 58 43 102 118 114v52h67v-49c42-1 83-12 104-21l-21-78c-16 7-52 24-106 24-42 0-53-15-53-28 0-19 18-28 84-45 85-22 118-54 118-114 0-56-43-104-124-116v-58z"/><glyph glyph-name="uniF62B" unicode="" horiz-adv-x="222" d="M18 222h186v-73H18v73z"/><glyph glyph-name="uniF62C" unicode="" horiz-adv-x="218" d="M113 424h79c-25-50-57-136-57-237 0-105 30-184 57-237h-79C85-6 45 74 45 187c0 115 41 194 68 237z"/><glyph glyph-name="uniF62D" unicode="" horiz-adv-x="218" d="M104-50H26C53 5 83 85 83 187S53 373 26 424h78c29-44 69-124 69-237S134-4 104-50z"/><glyph glyph-name="uniF62E" unicode="" horiz-adv-x="351" d="M242 262h-69v56c-41 5-74 23-97 48s-36 61-36 100c0 69 43 138 133 155v52h69v-50c17 0 40-4 60-11l-17-78c-12 5-29 10-53 10-52 0-80-28-80-72 0-54 37-75 80-75 24 0 45 4 60 10l15-75c-17-9-42-14-65-16v-54z"/><glyph glyph-name="uniF62F" unicode="" horiz-adv-x="381" d="M225 217h-67v53c-50 2-98 16-125 31l22 80c33-17 75-31 122-31 40 0 62 11 62 31s-17 28-73 43C89 445 38 470 38 536c0 58 43 102 118 114v52h67v-49c42-1 83-12 104-21l-21-78c-16 7-52 24-106 24-42 0-53-15-53-28 0-19 18-28 84-45 85-22 118-54 118-114 0-56-43-104-124-116v-58z"/><glyph glyph-name="uniF630" unicode="" horiz-adv-x="222" d="M18 489h186v-73H18v73z"/><glyph glyph-name="uniF631" unicode="" horiz-adv-x="218" d="M113 691h79c-25-50-57-136-57-237 0-105 30-184 57-237h-79c-28 44-68 124-68 237 0 115 41 194 68 237z"/><glyph glyph-name="uniF632" unicode="" horiz-adv-x="218" d="M104 217H26c27 55 57 135 57 237S53 640 26 691h78c29-44 69-124 69-237s-39-191-69-237z"/><glyph glyph-name="uniF633" unicode="" horiz-adv-x="820" d="M474 350l12 83c-9 2-20 4-32 4-73 0-124-62-124-130 0-39 18-64 54-64 39 0 82 46 90 107zm88-265l19-63C518-4 466-12 390-12 211-12 57 113 57 308c0 206 156 378 391 378 181 0 324-121 324-299 0-138-89-229-200-229-46 0-83 23-90 75h-2c-34-50-79-75-136-75-68 0-121 50-121 135 0 121 95 229 244 229 48 0 102-12 127-25l-28-187c-9-54-3-80 24-81 44-2 101 49 101 158 0 132-92 232-253 232S141 506 141 321c0-167 112-266 271-266 52 0 110 11 150 30z"/><glyph glyph-name="uniF634" unicode="" d="M80-247l-23 66c35 7 68 28 68 64 0 23-15 44-28 59l109 20c20-16 39-47 39-82 0-87-74-126-165-127z"/><glyph glyph-name="uniF638" unicode="" horiz-adv-x="598" d="M197 238l175 268c-14 25-38 40-73 40-69 0-112-81-112-220 0-30 3-59 10-88zm206 179L226 143c18-27 40-39 72-39 68 0 113 75 113 222 0 30-3 58-8 91zm157 221l-57-80c41-60 59-141 59-230 0-190-80-340-264-340-61 0-112 18-152 49l-43-63-62 48 53 73c-38 60-58 140-58 229 0 190 86 338 265 338 61 0 111-17 149-48l47 69z"/><glyph glyph-name="uniF639" unicode="" horiz-adv-x="598" d="M298-12h-1C120-12 37 135 36 325c0 189 86 337 265 337 181 0 261-148 261-334 0-189-80-340-264-340zm0 116h1c66 0 104 75 104 222 0 146-37 220-104 220-62 0-104-73-104-220-1-148 41-222 103-222z"/><glyph glyph-name="uniF63A" unicode="" horiz-adv-x="532" d="M500 0H4v94l90 73c162 134 231 201 233 271 0 53-32 97-114 97-61 0-115-31-153-60L11 586c54 43 138 76 235 76 149 0 240-83 240-209 0-105-78-189-179-271l-68-51v-2h261V0z"/><glyph glyph-name="uniF63B" unicode="" horiz-adv-x="543" d="M11 39l35 118c27-14 99-44 170-44 84 0 125 37 125 84 0 61-67 90-134 90h-77v114h75c52 0 117 19 117 71 0 36-32 66-102 66-62 0-127-27-154-43L30 608c44 28 130 54 224 54 147 0 230-73 230-164 0-69-40-124-127-152v-2c83-12 151-72 151-156C508 68 398-12 226-12 131-12 52 13 11 39z"/><glyph glyph-name="uniF63C" unicode="" horiz-adv-x="588" d="M483 0H330v155H20v102l257 393h206V272h82V155h-82V0zM171 272h159v147c0 41 2 82 4 126h-4c-23-44-42-85-65-127l-93-144z"/><glyph glyph-name="uniF63D" unicode="" horiz-adv-x="550" d="M481 650V521H202l-14-94c17 2 31 3 50 3 73 0 139-15 188-46 53-34 86-89 86-169C512 95 401-12 215-12 126-12 55 8 15 28l30 118c30-15 98-36 164-36 63 0 138 27 138 96 0 60-49 105-197 105-41 0-70-3-101-7l44 346h388z"/><glyph glyph-name="uniF63E" unicode="" horiz-adv-x="599" d="M492 659V538c-18 2-36 2-61 0-151-8-217-76-234-149h2c36 32 85 51 151 51 116 0 219-76 219-216C569 90 457-12 312-12 122-12 34 124 34 276c0 117 44 220 118 286 72 63 163 95 280 98 27 2 45 0 60-1zM309 105h1c57 0 97 46 97 108s-36 114-108 114c-48 0-87-28-102-62-5-9-7-19-7-33 4-63 40-127 119-127z"/><glyph glyph-name="uniF63F" unicode="" horiz-adv-x="501" d="M6 650h494v-99L211 0H38l291 519v2H6v129z"/><glyph glyph-name="uniF640" unicode="" horiz-adv-x="598" d="M302 662h1c173 0 232-97 232-169 0-61-35-115-98-144v-2c64-22 126-73 126-159C563 70 461-12 295-12 111-12 36 88 36 169c0 79 45 130 122 161v2c-66 32-99 84-99 143 0 112 104 187 243 187zm-1-564h1c57 0 97 33 97 77 0 54-44 87-112 101-55-10-86-45-86-90-1-45 39-88 100-88zm-4 456h-1c-56 0-86-33-86-73 0-44 43-71 101-86 37 8 73 38 73 80 0 39-26 79-87 79z"/><glyph glyph-name="uniF641" unicode="" horiz-adv-x="600" d="M95-9v121c18-3 35-2 68-1 54 2 107 15 146 40 47 30 77 71 88 117l-2 1c-32-32-79-49-144-49-119 0-219 77-219 206 0 132 113 236 263 236 182 0 266-134 266-284 0-132-41-229-116-295-69-60-164-91-279-93-26-2-55-1-71 1zm196 554h-1c-57 0-99-47-99-110 0-54 34-101 103-101 48 0 80 20 96 45 5 8 8 17 8 28 1 64-26 138-107 138z"/><glyph glyph-name="uniF642" unicode="" horiz-adv-x="963" d="M218 616h1c117 0 191-74 191-193 0-134-94-209-198-209-101 0-192 67-192 197 0 119 79 205 198 205zm-2-88h-1c-51 0-73-53-73-114 0-63 26-112 74-112 47 0 72 42 72 114 0 62-21 112-72 112zM346-12h-86l357 629h86zm404 403h1c116 0 190-74 190-192 0-134-94-209-197-209-101 0-192 67-192 196 0 119 79 205 198 205zm-3-88h-1c-50 0-72-53-72-113 0-63 26-112 74-112 47 0 71 42 71 113 0 62-20 112-72 112z"/><glyph glyph-name="uniF643" unicode="" horiz-adv-x="605" d="M302-12h-1C119-12 33 118 33 244c0 125 86 257 269 257 184 0 270-131 270-257 0-124-86-256-270-256zm0 114h2c72 0 116 58 116 142 0 85-44 143-118 143-73 0-117-58-117-143 0-84 44-142 117-142z"/><glyph glyph-name="uniF644" unicode="" horiz-adv-x="605" d="M443 0H290v357h-2l-184-73-21 117 231 88h129V0z"/><glyph glyph-name="uniF645" unicode="" horiz-adv-x="605" d="M528 0H65v84l65 39c144 82 198 127 198 182 0 49-35 73-93 73-46 0-96-18-131-39L68 439c34 25 112 63 212 63 133 0 211-65 211-167 0-86-74-150-148-193l-48-28v-3c40 7 88 10 112 10h121V0z"/><glyph glyph-name="uniF646" unicode="" horiz-adv-x="605" d="M62-101L79 13C112 1 159-7 215-7c78 0 135 27 135 82 0 45-51 73-133 73-21 0-42-1-59-2l-1 108 28 2c81 6 145 25 145 68 0 37-32 57-90 57-52 0-108-21-141-38L70 444c48 33 131 57 209 57 124 0 213-55 213-149 0-64-54-120-125-137v-2c80-11 150-57 150-141 0-124-136-199-286-199-75 0-138 13-169 26z"/><glyph glyph-name="uniF647" unicode="" horiz-adv-x="605" d="M572 28h-82v-155H339V28H31v101l253 363h206V142h82V28zM339 142v130c0 39 1 81 3 118h-5c-20-40-43-82-68-120l-91-123 3-5h158z"/><glyph glyph-name="uniF648" unicode="" horiz-adv-x="605" d="M76-105L94 4c25-8 76-15 121-15 77 0 138 32 138 89 0 18-7 34-19 47-29 28-85 42-237 38l55 326h353l-17-126H255l-18-91c96 0 181-16 233-66 31-30 48-68 48-118 0-117-94-215-287-215-64 0-124 11-155 22z"/><glyph glyph-name="uniF649" unicode="" horiz-adv-x="605" d="M507 617l8-112c-192-4-278-74-297-143l2-1c24 22 69 49 134 49 119 0 211-73 211-195C565 85 447-12 307-12 138-12 45 104 45 250c0 216 171 367 462 367zM310 106h1c47 0 96 36 96 103 0 56-40 99-98 99-42 0-72-18-92-41-12-13-16-29-16-43 0-63 38-118 109-118z"/><glyph glyph-name="uniF64A" unicode="" horiz-adv-x="605" d="M529 489v-99C456 213 348 31 240-127L86-109c89 125 215 321 279 467v2H61v129h468z"/><glyph glyph-name="uniF64B" unicode="" horiz-adv-x="605" d="M440 330v-5c63-23 122-69 122-145C562 69 454-12 294-12 140-12 39 61 39 164c0 68 46 120 118 148v5c-55 24-94 64-94 124 0 100 92 176 243 176 161 0 230-85 230-158 0-66-46-107-96-129zM307 519h-1c-53 0-85-30-85-69 0-37 39-69 101-81 37 8 70 38 70 76 0 47-40 74-85 74zm-9-424h1c54 0 95 32 95 75 0 47-44 83-112 97-52-13-82-48-82-88 0-49 40-84 98-84z"/><glyph glyph-name="uniF64C" unicode="" horiz-adv-x="605" d="M93-121L85-10c180 4 269 58 302 145l-2 1c-24-24-77-50-139-50-124 0-208 85-208 193 0 130 114 229 264 229 162 0 256-117 256-262 0-272-226-370-465-367zm202 312h1c37 0 77 22 95 52 6 9 9 24 9 39 0 56-42 106-103 106-53 0-100-39-100-101 0-59 42-96 98-96z"/><glyph glyph-name="uniF64E" unicode="" horiz-adv-x="605" d="M534 126l15-100c-33-20-95-38-166-38-82 0-155 28-206 80-29 29-51 68-63 109H42v70h60c0 10-1 17-1 22s0 16 1 24H43v69h72c12 41 35 77 63 107 55 55 137 84 221 84 70 0 122-17 148-29l-32-103c-19 10-56 23-104 23-44 0-85-13-116-45-10-10-19-23-24-37h234v-69H251c-1-9-1-17-1-21 0-8 1-15 1-25h254v-70H271c6-12 13-24 22-33 31-31 71-43 119-43s97 12 122 25z"/><glyph glyph-name="uniF64F" unicode="" horiz-adv-x="605" d="M134 263v86h95l6 49c6 49 35 219 225 219 36 0 71-8 89-17l-27-112c-12 6-28 10-50 10-50 0-75-34-82-85l-9-64h109v-86H370L348 99c-17-128-59-227-207-226-46 0-83 9-97 17L66 0c15-6 31-8 50-9 57 2 71 32 87 157l14 115h-83z"/><glyph glyph-name="uniF650" unicode="" horiz-adv-x="605" d="M251 249h97l16 112h-97zM211 0h-95l23 151H54v98h102l17 112H85v98h104l22 147h93l-22-147h98l22 147h95l-22-147h83v-98h-99l-16-112h85v-98H425L403 0h-95l23 151h-98z"/><glyph glyph-name="uniF651" unicode="" horiz-adv-x="605" d="M557 0H65v80c63 25 114 69 114 128 0 8 0 16-2 24H78v86h81c-2 13-4 27-4 41 0 119 86 215 239 215 53 0 104-12 130-26l-26-113c-22 12-59 20-94 20-70 0-102-43-102-101 0-13 1-25 3-36h154v-86H320c1-4 0-9 0-14-5-46-33-77-57-94v-2h294V0z"/><glyph glyph-name="uniF652" unicode="" horiz-adv-x="605" d="M373 0H223v104H63v72h160v54H63v72h125L31 540h165l60-122c18-40 31-66 46-101h2l48 101 62 122h163L411 302h125v-72H373v-54h163v-72H373V0z"/><glyph glyph-name="uniF653" unicode="" horiz-adv-x="605" d="M350-94h-90v88C192-3 121 18 79 45l35 103c35-22 106-44 160-44 47 0 79 12 79 39 0 21-14 34-85 54-126 35-173 77-173 151s65 126 167 141v96h90v-92c61-4 118-20 149-37l-33-99c-26 14-82 35-135 35-43 0-75-12-75-36 0-22 14-32 94-55 130-36 173-82 173-152 0-65-57-132-175-151v-92z"/><glyph glyph-name="uniF654" unicode="" horiz-adv-x="605" d="M460 153l19-98c-22-9-64-20-103-21v-76h-90v77C171 50 87 122 87 242c0 101 71 193 199 216v73h90v-70c33-1 72-8 98-17l-23-100c-19 9-51 15-87 15-78 0-128-42-128-110 0-77 60-111 127-111 41 0 74 6 97 15z"/><glyph glyph-name="uniF655" unicode="" horiz-adv-x="407" d="M202-5h-1C82-5 23 80 23 196c0 109 55 199 179 199 119 0 182-82 182-201 0-94-47-199-182-199zm1 78h1c37 0 62 41 62 122 0 84-26 122-64 122-37 0-61-42-61-122s25-122 62-122z"/><glyph glyph-name="uniF656" unicode="" horiz-adv-x="320" d="M249 0H124v291h-1l-82-36-16 87 116 48h108V0z"/><glyph glyph-name="uniF657" unicode="" horiz-adv-x="378" d="M17 0v57l67 55c84 69 124 99 124 142 0 25-22 46-61 46-36 0-70-13-94-29l-34 78c37 25 93 46 158 46 101 0 161-50 161-123 0-71-55-114-118-162l-26-19v-2h152V0H17z"/><glyph glyph-name="uniF658" unicode="" horiz-adv-x="376" d="M51 285l-25 76c32 18 90 34 156 34 100 0 153-42 153-100 0-43-37-75-88-88v-2c60-5 105-40 105-92C352 43 277-5 161-5 102-5 43 8 10 26l26 81c22-12 69-29 109-29 44 0 75 18 75 43 0 32-45 47-91 47H93v70h35c34 0 79 10 79 40 0 19-15 34-55 34s-82-16-101-27z"/><glyph glyph-name="uniF659" unicode="" horiz-adv-x="424" d="M346 0H230v91H23v64l174 238h149V167h55V91h-55V0zM230 167v74c0 24 3 49 4 76h-2c-14-27-27-52-40-71l-55-78 3-1h90z"/><glyph glyph-name="uniF65A" unicode="" horiz-adv-x="372" d="M318 389v-87H142l-7-45c8 1 20 1 30 1 45 0 91-6 123-28 30-18 52-52 52-98C340 54 268-5 152-5 104-5 49 7 23 19l19 80c18-9 63-22 104-22 32 0 80 12 80 50 0 32-27 56-120 56-23 0-47-2-64-4l28 210h248z"/><glyph glyph-name="uniF65B" unicode="" horiz-adv-x="385" d="M312 393v-81c-9 2-25 3-38 3-79-3-126-32-141-77l2-1c21 14 56 27 92 27 79 0 135-47 135-125C362 44 278-5 199-5 73-5 23 85 23 169c0 63 24 126 69 166 45 39 98 58 181 59 14 1 31 1 39-1zM197 76h1c29 0 54 23 54 55s-18 61-63 61c-28 0-49-18-57-37-2-5-3-10-3-15 0-31 24-64 68-64z"/><glyph glyph-name="uniF65C" unicode="" horiz-adv-x="358" d="M27 389h314v-65L165 0H45l178 302v1H27v86z"/><glyph glyph-name="uniF65D" unicode="" horiz-adv-x="381" d="M191 395h1c105 0 146-56 146-102 0-39-26-70-60-83v-2c35-11 79-39 79-93C357 48 297-5 187-5 65-5 25 61 25 103c0 47 32 75 76 92v2c-39 17-63 49-63 85 0 68 66 113 153 113zm0-325h1c29 0 53 15 53 40 0 33-31 46-61 53-33-10-49-24-49-49 0-22 23-44 56-44zm-3 252h-1c-30 0-48-16-48-37 0-22 23-38 58-47 21 6 40 20 40 42 0 23-18 42-49 42z"/><glyph glyph-name="uniF65E" unicode="" horiz-adv-x="381" d="M61-3v80c9-2 28-2 38-2 34 1 68 7 92 20 31 16 50 39 56 62l-2 2c-16-15-46-27-86-27-70 0-136 42-136 123 0 82 74 140 164 140 122 0 171-89 171-170 0-73-23-133-67-172C244 13 180-3 100-4 86-5 68-4 61-3zm128 318h-1c-29 0-55-23-55-56 0-27 19-55 58-55 28 0 45 12 54 26 3 4 4 11 4 16 0 33-15 69-60 69z"/><glyph glyph-name="uniF65F" unicode="" horiz-adv-x="178" d="M69-59l-79-6C13-1 29 60 40 125l117 5C134 60 105-2 69-59z"/><glyph glyph-name="uniF660" unicode="" horiz-adv-x="178" d="M88-5h-1C47-5 21 23 21 61s27 65 68 65 67-27 67-65S129-5 88-5z"/><glyph glyph-name="uniF661" unicode="" horiz-adv-x="407" d="M202 262h-1C82 262 23 347 23 463c0 109 55 199 179 199 119 0 182-82 182-201 0-94-47-199-182-199zm1 78h1c37 0 62 41 62 122 0 84-26 122-64 122-37 0-61-42-61-122s25-122 62-122z"/><glyph glyph-name="uniF662" unicode="" horiz-adv-x="320" d="M249 267H124v291h-1l-82-36-16 87 116 48h108V267z"/><glyph glyph-name="uniF663" unicode="" horiz-adv-x="378" d="M17 267v57l67 55c84 69 124 99 124 142 0 25-22 46-61 46-36 0-70-13-94-29l-34 78c37 25 93 46 158 46 101 0 161-50 161-123 0-71-55-114-118-162l-26-19v-2h152v-89H17z"/><glyph glyph-name="uniF664" unicode="" horiz-adv-x="376" d="M51 552l-25 76c32 18 90 34 156 34 100 0 153-42 153-100 0-43-37-75-88-88v-2c60-5 105-40 105-92 0-70-75-118-191-118-59 0-118 13-151 31l26 81c22-12 69-29 109-29 44 0 75 18 75 43 0 32-45 47-91 47H93v70h35c34 0 79 10 79 40 0 19-15 34-55 34s-82-16-101-27z"/><glyph glyph-name="uniF665" unicode="" horiz-adv-x="424" d="M346 267H230v91H23v64l174 238h149V434h55v-76h-55v-91zM230 434v74c0 24 3 49 4 76h-2c-14-27-27-52-40-71l-55-78 3-1h90z"/><glyph glyph-name="uniF666" unicode="" horiz-adv-x="372" d="M318 656v-87H142l-7-45c8 1 20 1 30 1 45 0 91-6 123-28 30-18 52-52 52-98 0-78-72-137-188-137-48 0-103 12-129 24l19 80c18-9 63-22 104-22 32 0 80 12 80 50 0 32-27 56-120 56-23 0-47-2-64-4l28 210h248z"/><glyph glyph-name="uniF667" unicode="" horiz-adv-x="385" d="M312 660v-81c-9 2-25 3-38 3-79-3-126-32-141-77l2-1c21 14 56 27 92 27 79 0 135-47 135-125 0-95-84-144-163-144-126 0-176 90-176 174 0 63 24 126 69 166 45 39 98 58 181 59 14 1 31 1 39-1zM197 343h1c29 0 54 23 54 55s-18 61-63 61c-28 0-49-18-57-37-2-5-3-10-3-15 0-31 24-64 68-64z"/><glyph glyph-name="uniF668" unicode="" horiz-adv-x="358" d="M27 656h314v-65L165 267H45l178 302v1H27v86z"/><glyph glyph-name="uniF669" unicode="" horiz-adv-x="381" d="M191 662h1c105 0 146-56 146-102 0-39-26-70-60-83v-2c35-11 79-39 79-93 0-67-60-120-170-120-122 0-162 66-162 108 0 47 32 75 76 92v2c-39 17-63 49-63 85 0 68 66 113 153 113zm0-325h1c29 0 53 15 53 40 0 33-31 46-61 53-33-10-49-24-49-49 0-22 23-44 56-44zm-3 252h-1c-30 0-48-16-48-37 0-22 23-38 58-47 21 6 40 20 40 42 0 23-18 42-49 42z"/><glyph glyph-name="uniF66A" unicode="" horiz-adv-x="381" d="M61 264v80c9-2 28-2 38-2 34 1 68 7 92 20 31 16 50 39 56 62l-2 2c-16-15-46-27-86-27-70 0-136 42-136 123 0 82 74 140 164 140 122 0 171-89 171-170 0-73-23-133-67-172-47-40-111-56-191-57-14-1-32 0-39 1zm128 318h-1c-29 0-55-23-55-56 0-27 19-55 58-55 28 0 45 12 54 26 3 4 4 11 4 16 0 33-15 69-60 69z"/><glyph glyph-name="uniF66B" unicode="" horiz-adv-x="178" d="M69 208l-79-6c23 64 39 125 50 190l117 5c-23-70-52-132-88-189z"/><glyph glyph-name="uniF66C" unicode="" horiz-adv-x="178" d="M88 262h-1c-40 0-66 28-66 66s27 65 68 65 67-27 67-65-27-66-68-66z"/><glyph glyph-name="uniF6AE" unicode="" horiz-adv-x="333" d="M182 728h110c-55-93-99-228-99-404 0-174 44-309 99-402H182C130 1 69 132 69 324c0 194 61 325 113 404z"/><glyph glyph-name="uniF6AF" unicode="" horiz-adv-x="333" d="M151-78H41c55 93 99 228 99 403 0 176-44 310-99 403h110c52-78 113-209 113-403 0-193-61-324-113-403z"/><glyph glyph-name="uniF6B0" unicode="" horiz-adv-x="333" d="M285-75H74v798h211v-84h-98V9h98v-84z"/><glyph glyph-name="uniF6B1" unicode="" horiz-adv-x="333" d="M48 723h211V-75H48V9h98v630H48v84z"/><glyph glyph-name="uniF6B2" unicode="" horiz-adv-x="333" d="M37 287v75c74 3 79 42 79 72 0 25-3 52-5 79-3 27-6 55-6 79 0 93 59 131 151 131h41v-86h-19c-47 0-63-26-63-72 0-16 3-33 6-54 2-20 5-44 5-72 2-78-31-103-88-113v-2c57-11 90-36 88-115 0-28-3-51-6-72-2-21-5-38-5-54 0-47 17-73 63-73h19v-85h-41c-92 0-151 36-151 134 0 23 3 51 6 77 2 28 5 54 5 78 0 29-5 70-79 73z"/><glyph glyph-name="uniF6B3" unicode="" horiz-adv-x="333" d="M296 362v-75c-74-3-79-44-79-73 0-24 3-50 6-78 2-26 5-54 5-77 0-98-59-134-151-134H36v85h19c46 0 63 26 63 73 0 16-3 33-6 54-2 21-5 44-5 72-2 79 31 104 88 115v2c-57 10-90 35-88 113 0 28 3 52 6 72 2 21 5 38 5 54 0 46-16 72-63 72H36v86h41c92 0 151-38 151-131 0-24-3-52-6-79-2-27-5-54-5-79 0-30 5-69 79-72z"/><glyph glyph-name="uniF6B4" unicode="" horiz-adv-x="278" d="M221 0H58l24 452h115zm-82 685h1c56 0 93-40 93-94-1-55-37-94-94-94s-94 39-94 94c0 54 38 94 94 94z"/><glyph glyph-name="uniF6B5" unicode="" horiz-adv-x="483" d="M266 685h1c56 0 93-40 93-94 0-55-37-94-94-94-56 0-93 39-94 94 0 54 38 94 94 94zm-73-233h140l1-27c2-49-13-101-60-153-34-37-64-70-64-102 0-34 22-57 75-59 37 0 82 14 111 34l38-112C392 9 329-12 250-12 118-12 50 57 50 145c0 79 51 126 90 165 39 41 54 81 53 126v16z"/><glyph glyph-name="uniF6B6" unicode="" horiz-adv-x="492" d="M259 520L136 327l123-192H149L30 327l119 193h110zm205 0L341 327l123-192H354L235 327l119 193h110z"/><glyph glyph-name="uniF6B7" unicode="" horiz-adv-x="492" d="M151 327L28 520h108l121-193-121-192H28zm202 0L230 520h108l121-193-121-192H230z"/><glyph glyph-name="uniF6B8" unicode="" horiz-adv-x="287" d="M259 520L136 327l123-192H149L30 327l119 193h110z"/><glyph glyph-name="uniF6B9" unicode="" horiz-adv-x="287" d="M151 327L28 520h108l121-193-121-192H28z"/><glyph glyph-name="uniF6BA" unicode="" horiz-adv-x="343" d="M30 385h283V281H30v104z"/><glyph glyph-name="uniF6BB" unicode="" horiz-adv-x="500" d="M30 375h440v-95H30v95z"/><glyph glyph-name="uniF6BC" unicode="" horiz-adv-x="1000" d="M30 375h940v-95H30v95z"/><glyph glyph-name="uniF6BD" unicode="" horiz-adv-x="269" d="M134 237h-1c-56 0-93 40-93 94 0 55 38 94 94 94 57 0 93-39 94-94 0-54-37-94-94-94z"/><glyph glyph-name="commaaccent" unicode="" d="M80-248l-23 67c35 6 68 28 68 64 0 23-15 44-28 59l109 20c20-16 39-47 39-82 0-87-74-126-165-128z"/><glyph glyph-name="Acute" unicode="" d="M153 837h169L199 710H68z"/><glyph glyph-name="Caron" unicode="" d="M208 710H91L-16 837H95l54-65h2l53 65h111z"/><glyph glyph-name="Dieresis" unicode="" d="M44 712h-1c-41 0-72 33-72 70 0 40 31 70 73 70 39 0 68-30 68-70 0-37-29-70-68-70zm215 0h-1c-41 0-70 33-70 70 0 40 30 70 71 70s70-30 70-70c0-37-29-70-70-70z"/><glyph glyph-name="DieresisAcute" unicode="" d="M-37 712h-1c-39 0-68 31-68 67 0 38 30 67 70 67 37 0 65-28 65-67 0-37-29-67-66-67zm376 0h-1c-38 0-66 31-66 67 0 38 29 67 68 67s67-28 67-67c0-38-30-67-68-67zM106 837h162L150 713H30z"/><glyph glyph-name="DieresisGrave" unicode="" d="M-37 712h-1c-39 0-68 31-68 67 0 38 30 67 70 67 37 0 65-28 65-67 0-37-29-67-66-67zm376 0h-1c-38 0-66 31-66 67 0 38 29 67 68 67s67-28 67-67c0-38-30-67-68-67zM32 837h161l76-124H149z"/><glyph glyph-name="Grave" unicode="" d="M-22 837h169l85-124H101z"/><glyph glyph-name="Hungarumlaut" unicode="" d="M64 838h152L111 720H-4zm193 0h152L304 720H189z"/><glyph glyph-name="Macron" unicode="" d="M17 815h267v-82H17v82z"/><glyph glyph-name="cyrBreve" unicode="" d="M-5 850h110c1-40 13-63 45-63 31 0 43 22 47 63h109c-5-86-65-127-159-127S3 766-5 850z"/><glyph glyph-name="cyrFlex" unicode="" d="M306 723l-109-1c-2 37-13 62-45 62s-43-25-47-62l-110 1c6 82 66 125 160 125s146-47 151-125z"/><glyph glyph-name="dblGrave" unicode="" d="M-101 837H60l79-124H19zm225 0h161l79-124H244z"/><glyph glyph-name="cyrbreve" unicode="" d="M0 695h102c1-45 18-74 46-74 30 0 46 29 50 74h101c-6-98-65-146-153-146C50 549 5 606 0 695z"/><glyph glyph-name="cyrflex" unicode="" d="M97 556H-4c6 99 65 146 153 146 96 0 141-57 146-146H193c-1 45-18 74-46 74-30 0-46-29-50-74z"/><glyph glyph-name="dblgrave" unicode="" d="M-32 704H97l60-153H66zm187 0h129l60-153h-92z"/><glyph glyph-name="dieresisacute" unicode="" horiz-adv-x="301" d="M-6 563h-1c-39 0-68 31-68 67 0 38 30 67 70 67 37 0 65-28 65-67 0-37-29-67-66-67zm312 0h-1c-38 0-66 31-66 67 0 38 28 67 68 67 39 0 67-28 67-67 0-38-30-67-68-67zM119 716h136l-93-156H65z"/><glyph glyph-name="dieresisgrave" unicode="" horiz-adv-x="301" d="M-5 563h-1c-39 0-68 31-68 67 0 38 30 67 70 67 37 0 65-28 65-67 0-37-29-67-66-67zm310 0h-1c-38 0-66 31-66 67 0 38 28 67 68 67 39 0 67-28 67-67 0-38-30-67-68-67zM45 716h137l54-156h-98z"/><glyph glyph-name="uniF6DC" unicode="" horiz-adv-x="402" d="M164 0v511h-2L34 452 8 569l180 81h129V0H164z"/><glyph glyph-name="centinferior" unicode="" horiz-adv-x="351" d="M242-152h-69v56c-41 5-74 23-97 48S40 13 40 52c0 69 43 138 133 155v52h69v-50c17 0 40-4 60-11l-17-78c-12 5-29 10-53 10-52 0-80-28-80-72 0-54 37-75 80-75 24 0 45 4 60 10l15-75c-17-9-42-14-65-16v-54z"/><glyph glyph-name="centsuperior" unicode="" horiz-adv-x="351" d="M242 446h-69v56c-41 5-74 23-97 48s-36 61-36 100c0 69 43 138 133 155v52h69v-50c17 0 40-4 60-11l-17-78c-12 5-29 10-53 10-52 0-80-28-80-72 0-54 37-75 80-75 24 0 45 4 60 10l15-75c-17-9-42-14-65-16v-54z"/><glyph glyph-name="commainferior" unicode="" horiz-adv-x="178" d="M69-206l-79-6C13-148 29-87 40-22l117 5c-23-70-52-132-88-189z"/><glyph glyph-name="commasuperior" unicode="" horiz-adv-x="178" d="M69 392l-79-6c23 64 39 125 50 190l117 5c-23-70-52-132-88-189z"/><glyph glyph-name="dollarinferior" unicode="" horiz-adv-x="381" d="M225-197h-67v53c-50 2-98 16-125 31l22 80c33-17 75-31 122-31 40 0 62 11 62 31s-17 28-73 43C89 31 38 56 38 122c0 58 43 102 118 114v52h67v-49c42-1 83-12 104-21l-21-78c-16 7-52 24-106 24-42 0-53-15-53-28 0-19 18-28 84-45 85-22 118-54 118-114 0-56-43-104-124-116v-58z"/><glyph glyph-name="dollarsuperior" unicode="" horiz-adv-x="381" d="M225 401h-67v53c-50 2-98 16-125 31l22 80c33-17 75-31 122-31 40 0 62 11 62 31s-17 28-73 43C89 629 38 654 38 720c0 58 43 102 118 114v52h67v-49c42-1 83-12 104-21l-21-78c-16 7-52 24-106 24-42 0-53-15-53-28 0-19 18-28 84-45 85-22 118-54 118-114 0-56-43-104-124-116v-58z"/><glyph glyph-name="hypheninferior" unicode="" horiz-adv-x="222" d="M18 75h186V2H18v73z"/><glyph glyph-name="hyphensuperior" unicode="" horiz-adv-x="222" d="M18 673h186v-73H18v73z"/><glyph glyph-name="periodinferior" unicode="" horiz-adv-x="178" d="M88-152h-1c-40 0-66 28-66 66s27 65 68 65 67-27 67-65-27-66-68-66z"/><glyph glyph-name="periodsuperior" unicode="" horiz-adv-x="178" d="M88 446h-1c-40 0-66 28-66 66s27 65 68 65 67-27 67-65-27-66-68-66z"/><glyph glyph-name="zerooldstyle" unicode="" horiz-adv-x="605" d="M302-12h-1C119-12 33 118 33 244c0 125 86 257 269 257 184 0 270-131 270-257 0-124-86-256-270-256zm0 114h2c72 0 116 58 116 142 0 85-44 143-118 143-73 0-117-58-117-143 0-84 44-142 117-142z"/><glyph glyph-name="oneoldstyle" unicode="" horiz-adv-x="443" d="M349 0H196v351h-2L56 290 30 408l190 81h129V0z"/><glyph glyph-name="twooldstyle" unicode="" horiz-adv-x="512" d="M488 0H25v84l65 39c144 82 198 127 198 182 0 49-35 73-93 73-46 0-96-18-131-39L28 439c34 25 112 63 212 63 133 0 211-65 211-167 0-86-74-150-148-193l-48-28v-3c40 7 88 10 112 10h121V0z"/><glyph glyph-name="threeoldstyle" unicode="" horiz-adv-x="509" d="M21-101L38 13C71 1 118-7 174-7c78 0 135 27 135 82 0 45-51 73-133 73-21 0-42-1-59-2l-1 108 28 2c81 6 145 25 145 68 0 37-32 57-90 57-52 0-108-21-141-38L29 444c48 33 131 57 209 57 124 0 213-55 213-149 0-64-54-120-125-137v-2c80-11 150-57 150-141 0-124-136-199-286-199-75 0-138 13-169 26z"/><glyph glyph-name="fouroldstyle" unicode="" horiz-adv-x="589" d="M567 28h-82v-155H334V28H26v101l253 363h206V142h82V28zM334 142v130c0 39 1 81 3 118h-5c-20-40-43-82-68-120l-91-123 3-5h158z"/><glyph glyph-name="fiveoldstyle" unicode="" horiz-adv-x="500" d="M25-105L43 4c25-8 76-15 121-15 77 0 138 32 138 89 0 18-7 34-19 47-29 28-85 42-237 38l55 326h353l-17-126H204l-18-91c96 0 181-16 233-66 31-30 48-68 48-118 0-117-94-215-287-215-64 0-124 11-155 22z"/><glyph glyph-name="sixoldstyle" unicode="" horiz-adv-x="589" d="M497 617l8-112c-192-4-278-74-297-143l2-1c24 22 69 49 134 49 119 0 211-73 211-195C555 85 437-12 297-12 128-12 35 104 35 250c0 216 171 367 462 367zM300 106h1c47 0 96 36 96 103 0 56-40 99-98 99-42 0-72-18-92-41-12-13-16-29-16-43 0-63 38-118 109-118z"/><glyph glyph-name="sevenoldstyle" unicode="" horiz-adv-x="514" d="M486 489v-99C413 213 305 31 197-127L43-109c89 125 215 321 279 467v2H18v129h468z"/><glyph glyph-name="eightoldstyle" unicode="" horiz-adv-x="590" d="M433 330v-5c63-23 122-69 122-145C555 69 447-12 287-12 133-12 32 61 32 164c0 68 46 120 118 148v5c-55 24-94 64-94 124 0 100 92 176 243 176 161 0 230-85 230-158 0-66-46-107-96-129zM300 519h-1c-53 0-85-30-85-69 0-37 39-69 101-81 37 8 70 38 70 76 0 47-40 74-85 74zm-9-424h1c54 0 95 32 95 75 0 47-44 83-112 97-52-13-82-48-82-88 0-49 40-84 98-84z"/><glyph glyph-name="nineoldstyle" unicode="" horiz-adv-x="589" d="M89-121L81-10c180 4 269 58 302 145l-2 1c-24-24-77-50-139-50-124 0-208 85-208 193 0 130 114 229 264 229 162 0 256-117 256-262 0-272-226-370-465-367zm202 312h1c37 0 77 22 95 52 6 9 9 24 9 39 0 56-42 106-103 106-53 0-100-39-100-101 0-59 42-96 98-96z"/></font>
</defs>
</svg>
